<?xml version="1.0" encoding="UTF-8"?>
<svg id="Layer_2" data-name="Layer 2" xmlns="http://www.w3.org/2000/svg" viewBox="0 0 343.9 345.12">
  <defs>
    <style>
      .blue-1 {
        fill: #fff;
      }

      .blue-2 {
        fill: none;
      }

      .blue-3 {
        fill: #004c6c;
      }
    </style>
  </defs>
  <g id="Layer_1-2" data-name="Layer 1">
    <g id="Artwork_59" data-name="Artwork 59">
      <g>
        <path class="blue-3" d="M89.61,320.96c21.62,12.32,48.19,20.32,74.59,22.02,15.55,1.01,36.85-4.81,53.92-10.71,19.16-6.63,37.15-15.9,53.18-27.87,11.16-8.34,19.1-16.17,28.08-27.96,34.06-44.76,49.11-106.29,36.4-142.21-14.17-40.05-39.65-72.67-74.76-99.04-36.43-27.36-113.62-59.21-186.28,1.57C34.37,70.54-4.17,121.16,1.07,188.74c3.89,50.17,42.06,105.73,88.54,132.22Z"/>
        <g>
          <path class="blue-2" d="M89.61,320.96c21.62,12.32,48.19,20.32,74.59,22.02,15.55,1.01,36.85-4.81,53.92-10.71,19.16-6.63,37.15-15.9,53.18-27.87,11.16-8.34,19.1-16.17,28.08-27.96,34.06-44.76,49.11-106.29,36.4-142.21-14.17-40.05-39.65-72.67-74.76-99.04-36.43-27.36-113.62-59.21-186.28,1.57C34.37,70.54-4.17,121.16,1.07,188.74c3.89,50.17,42.06,105.73,88.54,132.22Z"/>
          <g>
            <path class="blue-1" d="M89.98,317.87c1.29.82,1.06.11,1.3.15-2.24-1.2-1.31,0-1.3-.15Z"/>
            <polygon class="blue-1" points="68.58 304.33 69.05 304.47 65.85 302.45 68.58 304.33"/>
            <path class="blue-1" d="M51.17,288.13c.95,2.21,6.1,6.12,9.05,9.15l.38.62c.62.27,1.23.54,1.87.79-3.9-3.34-8.99-7.74-11.3-10.56Z"/>
            <path class="blue-1" d="M44.13,277.47c.26.8-1.98-1.9,1.82,2.31-.16-.24-.2-.31-.29-.46-.34-.38-.8-.91-1.53-1.85Z"/>
            <path class="blue-1" d="M45.66,279.33c1.64,1.86-.86-1.41,0,0h0Z"/>
            <path class="blue-1" d="M38.32,270.5l2.24,2.41c-.27-.66-2.02-2.98-1.24-2.21-2.15-2.58-1.87-1.93-1-.2Z"/>
            <path class="blue-1" d="M35.98,268.36l1.11,1.3c-.11-.29-.36-.67-1.11-1.3Z"/>
            <path class="blue-1" d="M39.48,272.37c-.8-.9-1.62-1.79-2.39-2.71.18.46-.02.68,1.06,1.27-.38-.08.25.34,1.33,1.44Z"/>
            <path class="blue-1" d="M40.64,274.06c.99,1.56,2.44,3.46.11,1.1,4.09,4.79,3.92,3.71-.11-1.1Z"/>
            <path class="blue-1" d="M49.7,287.84l1.54,1.97,1.7,1.35c-.84-.68-3.17-3.6-3.24-3.32Z"/>
            <path class="blue-1" d="M27.25,253.38c-.26-.08.17,1.18.11,1.51l1.45,1.95c-.55-1.12-1.69-3.19-1.55-3.46Z"/>
            <path class="blue-1" d="M27.36,254.89c-.73-.97-1.44-1.95-2.13-2.95,1.59,2.82,2.09,3.22,2.13,2.95Z"/>
            <path class="blue-1" d="M34.89,268.43c1.35,1.49,2.7,2.97,4.11,4.4-1.65-1.73-3.21-3.54-4.8-5.33l.69.93Z"/>
            <polygon class="blue-1" points="20.6 241.31 21.89 242.95 19.69 239.98 20.6 241.31"/>
            <path class="blue-1" d="M16.63,233.09c.91,1.24-.3-2.13.53-.75-1.07-2.23-2.1-4.08-3.06-5.75.88,1.83,1.64,3.84,2.52,6.5Z"/>
            <path class="blue-1" d="M12.62,223.74c.42.92.91,1.86,1.49,2.85-.49-.96-.95-1.92-1.49-2.85Z"/>
            <path class="blue-1" d="M22.27,246.51c-.04-.3-.06-.9-.9-2.75.06.5.15.99.23,1.49.21.38.44.82.68,1.26Z"/>
            <path class="blue-1" d="M21.6,245.31v-.05c-.75-1.36-1.19-2.34-1.41-2.75.19.35.56,1.21,1.41,2.8Z"/>
            <path class="blue-1" d="M22.44,246.83c-.06-.12-.11-.2-.17-.32.02.14.05.23.17.32Z"/>
            <path class="blue-1" d="M29.83,260.31c-1.43-1.61-4.03-5.27-2.1-1.37,1.13,1.1-.02-1.1,2.1,1.37Z"/>
            <path class="blue-1" d="M22.74,248.69c.59,1.15,1.22,2.27,1.83,3.41.08-.13-.11-.83.54.01-.79-1.14-1.6-2.27-2.37-3.42Z"/>
            <polygon class="blue-1" points="21.69 247.11 22.74 248.69 22.09 247.41 21.69 247.11"/>
            <path class="blue-1" d="M14.56,230.03c-.81-1.46-1.54-3.13-2.28-5.04.68,2.09,1.49,4.23,2.32,6.22.27.22.89.98-.04-1.18Z"/>
            <path class="blue-1" d="M17.77,237.55c-.06-.1-.13-.23-.18-.32.06.22.12.39.18.32Z"/>
            <path class="blue-1" d="M6.48,205.68c0,.12-.01.22-.02.34.03.02.06.03.1.05l-.08-.39Z"/>
            <path class="blue-1" d="M14.67,231.58c.57,1.56,1.08,2.42,1.6,3.22-.54-1.11-1.1-2.3-1.66-3.59-.12-.1-.17-.1.06.38Z"/>
            <path class="blue-1" d="M10.55,218.51c.17.85.38,1.8.64,2.8-.13-.85-.42-2.55-.64-2.8Z"/>
            <path class="blue-1" d="M17.47,236.66c.04.07.08.14.13.21-.13-.54-.15-.45-.13-.21Z"/>
            <path class="blue-1" d="M17.47,236.66c-.42-.74-.84-1.29-1.2-1.86.44.91.91,1.72,1.31,2.42-.06-.2-.09-.41-.11-.56Z"/>
            <path class="blue-1" d="M2.12,200.26c.26.11.68,1.23,1.07,2.8.46,1.56.84,3.58,1.06,5.49,1.28,3.56,2.09.78,2.21-2.53-.22-.07-.41-.02-1.47-3.69,0,.68.32,2.77.48,4.33.17,1.55.26,2.54-.35,1.03-1.31-4.92-.77-4.1-.95-6.57-.1,1.08-.59-.46-1.14-2.14-.55-1.68-1.03-3.5-1.39-2.89l.46,2.2.54,2.19c-.12.11-.61-1.46-.51-.21Z"/>
            <path class="blue-1" d="M8.2,213.03l.49,1.48c-.43-1.73-.61-3-.82-5.36-.87-2.45-1.13-2.94-1.32-3.08.24,1.26.59,2.49.88,3.74.3,1.25.61,2.49.98,3.72l-.22-.49Z"/>
            <path class="blue-1" d="M10.82,221.2c-.86-.99-2.24-4.51-2.04-2.15.73,2.19,1.09,2.93,1.42,3.42.32.5.58.77,1.15,2.03-2.67-6.94.99,1.91-.57-3.23.58,1.34,1.05,2.56,1.5,3.71-.4-1.27-.77-2.51-1.09-3.67.01.07.02.11.03.17v.03s0,0,0,0c.05.32.05.43-.04.08-.01-.02-.05-.1-.06-.14-.08-.02-.19-.13-.29-.25-.57-2.07,0-.36.29.25.03.01.07.06.1.06,0,0,0-.02,0-.03-.86-2.31-1.77-4.61-2.52-6.97.35,1.53.98,3.4,2.13,6.68Z"/>
            <path class="blue-1" d="M24.69,256.11c-.08-.22-.05-.23-.03-.27-.31-.38-.44-.52.03.27Z"/>
            <path class="blue-1" d="M23.36,253.3c.34.43.72.74,1.62,2.27.68,1.39-.21.12-.31.27.68.85,2.28,3,.72.02l-.34-.42c-1.43-2.68-2.79-6.36-2.47-5.93.05.98.15,1.81.78,3.78Z"/>
            <path class="blue-1" d="M16.07,237.36c-.99-1.83-1.85-3.72-2.77-5.59l.87,3.09.18-.25c1.35,3.29,1.37,2.44,1.72,2.76Z"/>
            <polygon class="blue-1" points="6.57 204.94 7.27 205.62 5.78 202.31 6.57 204.94"/>
            <polygon class="blue-1" points="5.04 197.12 5.53 197.34 4.97 195.3 5.04 197.12"/>
            <path class="blue-1" d="M314.68,86.56l1.16,1.48c-.53-.71-.89-1.16-1.16-1.48Z"/>
            <path class="blue-1" d="M306.7,75.61l-.39-.12c.49.41.72.56.39.12Z"/>
            <path class="blue-1" d="M89.03,29.56c1.18-.62,2.53-1.1,3.47-1.53.95-.42,1.52-.74,1.24-.88h-.96c-1.5,1.09-2.74,1.77-3.76,2.41Z"/>
            <path class="blue-1" d="M218.32,11.82c-.22-.14-.45-.28-.68-.42-.67-.06-1.3-.15-1.87-.17.78.15,1.64.38,2.55.59Z"/>
            <path class="blue-1" d="M220.86,10.53c1.09.51,2.15,1.06,3.21,1.63-.7-.42-1.72-.98-3.21-1.63Z"/>
            <path class="blue-1" d="M343.22,154.68c.23.73.47,1.46.68,2.19-.26-3.49-.41-1.93-.68-2.19Z"/>
            <path class="blue-1" d="M15.71,116.8c1.07-2.03,1.94-3.62,2.6-5.07-1.39,2.38-2.74,4.22-2.6,5.07Z"/>
            <path class="blue-1" d="M307.25,85.35c.73.85,1.1,1.17,1.17,1.08-.75-.88-1.21-1.34-1.17-1.08Z"/>
            <path class="blue-1" d="M21.22,105.83c-.24.33-.44.67-.65,1.02-.65,1.54-1.36,3.06-2.25,4.89,1.06-1.74,2.21-3.75,2.91-5.9Z"/>
            <path class="blue-1" d="M185.76,344.14c-.2.01-.43.05-.61.05-.05.08.22.03.61-.05Z"/>
            <path class="blue-1" d="M110.65,328.57c.7.26,1.84.71,2.93,1.09-.51-.23-1.4-.54-2.93-1.09Z"/>
            <path class="blue-1" d="M4.22,165.03c-.07,1.7.04.27,0,0h0Z"/>
            <path class="blue-1" d="M1.83,173.23c-.05-.37-.12-.65-.23-.69.12.14.19.39.23.69Z"/>
            <path class="blue-1" d="M27.08,89.46s.05-.08.08-.12c-.37.38-.3.31-.08.12Z"/>
            <path class="blue-1" d="M3.84,167.57c.1-.63.2-1.36.28-2.16-.06.35-.15,1-.28,2.16Z"/>
            <path class="blue-1" d="M4.1,167.24c-.05.58-.1,1.04-.14,1.48.07.22.14.03.14-1.48Z"/>
            <path class="blue-1" d="M4.4,162.68c-.1.96-.2,1.86-.29,2.73.05-.33.09-.47.1-.38.01-.5.08-1.2.18-2.36Z"/>
            <path class="blue-1" d="M305.17,271.09c-.08.09-.17.19-.25.28-.84,1.57-.42.91.25-.28Z"/>
            <path class="blue-1" d="M127.07,5.27c-.08.03-.12.05-.19.08.08-.02.18-.04.25-.06l-.07-.02Z"/>
            <path class="blue-1" d="M133.09,3.24c-2.46,1.31-3.97,1.53-5.95,2.05.81.27,1.6.5,2.4.81l3.55-2.86Z"/>
            <path class="blue-1" d="M330.89,114.66c-.5-1.4-.96-2.82-1.49-4.21,2.99,4.51,4.38,8.18,3.2,4.1-.87.05-2.67-3.88-4.75-7.67-.51-.95-1.02-1.91-1.5-2.8-.5-.88-1.02-1.69-1.47-2.39-.92-1.39-1.67-2.29-2.09-2.22-.39-.9-.75-1.82-1.17-2.7.43.72.56.8.96,1.52-1.09-2.66-1.95-3.38-2.9-4.28-.48-.44-1.01-.92-1.64-1.68-.32-.38-.66-.83-1.04-1.38-.4-.54-.84-1.18-1.32-1.95-1.32-2.17-2.13-3.78-1-2.45l-1.75-2.24-1.83-2.17c-.95-1.35-.49-1.19.46.16-1.74-2.31-3.45-4.63-5.31-6.83l.08.02c-.97-.81-2.98-2.78-3.99-3.71-1.25-1.81.84.73.63.18l-3.4-3.39c-.96-1.75,1.93.99,4.02,3.57-.82-2.22-1.56-2.91-2.76-4.05-.6-.57-1.33-1.24-2.25-2.27-.95-1.01-2.12-2.34-3.58-4.28l3.22,3.2c-1.33-2.74-3.89-5.21-7.15-9.23.32.54,1.89,2.61,2.84,4.14.93,1.55,1.29,2.51-.61.74-.91-1.15-2.25-2.55-4.44-4.32.19-.21-.22-.78-.98-1.59-.76-.82-1.93-1.83-3.18-3l.69-.38c-2.86-2.38-2.87-1.94-4.73-3.13-3.04-2.79-3.3-3.79-3.71-4.81-4.97-4.39,2.89,3.64-3.19-1.29-4.03-3.75-7.25-5.9-12.78-9.49-2.97-2.48.82.03-.18-.96-1.04-.52-2.08-1.03-3.14-1.5-.68-.49-.35-.48-.19-.48-2.52-1.42-.59.43-4.49-1.86-.74.02-2.5-1.51-4.81-3.22-1.14-.88-2.43-1.78-3.77-2.59-1.33-.82-2.71-1.54-4.06-1.97-1.12-.83.8-.09.57-.55-3.53-1.56-5.07-2.15-6.45-2.68-1.37-.54-2.63-.94-5.66-1.85-1.54-.91-3.14-1.71-4.73-2.56,1.71,1.02,1.33,1.19,0,.97-.66-.11-1.56-.33-2.57-.57-1-.24-2.12-.5-3.19-.75,1.2.74,2.21,1.38,2.91,1.77-2.22-.67-4.4-1.44-6.64-2.03-.75-.39,0-.4,1.17-.33-.47-.09-.92-.17-1.26-.24-2.26-1.06-.91-1.06.93-.88.76.4,1.5.84,2.21,1.29,1.77.18,3.47.29,3.29-.25-.46-.08-1.31-.32-2.23-.63.47.04.78.04.61-.1-.2-.16-.94-.26-2.08-.49-.4-.46-.82-.88-1.23-1.32l-.48.19-4.29-1.72-4.35-1.58c-1.64-.29-3.26-.41-4.89-.61-1.63-.2-3.3-.33-5.09-.48-.89-.09-1.81-.18-2.76-.27-.96-.08-1.96-.17-3-.26-1.05-.1-2.14-.21-3.29-.35-1.16-.11-2.37-.22-3.66-.34,2.63-.26.69-.92.92-1.62.68.29,1.52.48,2.49.62.96.16,2.05.31,3.21.43,1.17.14,2.43.23,3.71.44,1.28.21,2.61.46,3.92.8-2.75-.69-2.07-.89-1.34-.86-3.2-.52-6.44-.8-9.65-1.13.31-.56-1.97-.72-4.46-1.31.87.73-.93.61-3.47.5-1.26-.09-2.71-.18-4.08-.28-1.38-.04-2.69-.06-3.67-.01-.11-.2.07-.39.88-.49.81-.08,2.26-.16,4.65.14-1.3-.36-2.4-.46-3.38-.42-.98.03-1.84.16-2.7.3-.86.15-1.71.27-2.67.35-.96.09-2.03.09-3.33-.1,1.17,0,1.8.05,2.27-.15-1.37.18-3.72.17-5.54.14-1.82.02-3.1-.08-2.32-.29l1.17-.06c-.98.03-2.08.07-3.26.11-.59.03-1.21.04-1.83.09-.63.06-1.27.12-1.92.19-1.3.14-2.63.28-3.96.42-1.33.15-2.63.42-3.89.62-1.26.22-2.46.44-3.57.67-1.1.27-2.09.54-2.95.79-1.71.5-2.85.93-3.08,1.23-.11-.11.74-1.37,1.16-1.66-4.32,2.06-8.48,4.33-12.44,6.81.91-1.18-4.22-1.71,1.82-4.11-.91.22-1.92.47-3.17.85-.62.19-1.31.4-2.05.68-.74.31-1.55.66-2.44,1.07,1.24-.33,3.37.06,1.78.74-2.37.38-3.19.55-4.13.78-.47.12-.97.25-1.72.44-.74.21-1.71.5-3.13.91,1.81-.59.4,1.49-2.33,2.64.34-.37-.78-1.1.17-1.67l-1.58,1.05c-.52.36-1.02.75-1.53,1.13l-3.03,2.26c1.55-1.04-.21-1.14-1.88-.72.76-.22-5.66,3.14-7.33,4.24l2.91-1.31c-3.75,1.95-5.2,3.57-6.69,5.06-.74.76-1.47,1.52-2.45,2.36-.96.88-2.13,1.89-3.83,3.07.65-.8,1.05-2.82-2.5-.47-.29.42-.76,1.1-1.37,1.98-.58.9-1.31,1.99-2.16,3.18-.85,1.18-1.83,2.46-2.92,3.75-1.07,1.32-2.25,2.67-3.54,3.95l-1.3.63c-1.3,1.34-2.6,2.67-3.86,4.04.93-1.55,2.87-4.34,5.07-7.23,2.17-2.92,4.74-5.82,6.59-7.85-2.66,1.72-.97.19-4.65,3.16-1.54.76,1.67-2.03,2.75-2.92-1.46,1.12-2.95,2.22-4.39,3.36-1.41,1.16-2.85,2.3-4.25,3.48.44.14-1,1.67-2.46,3.2-1.44,1.55-2.88,3.1-2.5,3.2,2.73-2.88,5.5-5.73,8.36-8.49.87.3-3.81,6.09-9.49,11.29-1.64,1.13.1-2.03-.19-2.12-.27.45-1.52,1.81-2.78,3.1-1.25,1.29-2.49,2.56-2.81,2.74l2.05-2.61c-3.3,2.82-4.29,5.67-8.38,8.93-.63.64-1.73,1.44-2.65,2.16-.92.73-1.65,1.37-1.58,1.64,2.62-1.59,5.05-.09,4.25,1.77-.23.21-1.94,1.79-3.78,3.49-1.81,1.73-3.8,3.55-4.59,4.21-1.19.91-.83-.2-.41-1.36.42-1.16.92-2.33-.13-1.57.09.21-.74,1.65-1.1,2.23-1.33,1.34-.03-1.03-2.53,2.21.2,1.03-5.13,6.53-.65,1.94-2.27,3.28-2.71,3.26-5.45,7.07.65-.46.38.65-.26,2.31-.66,1.65-1.72,3.83-2.69,5.56-.04-.31-.75.29-1.09.59-2.22,3.4-3.93,6.02-5.52,8.63-.82,1.29-1.58,2.6-2.36,4-.79,1.4-1.62,2.88-2.44,4.59-.48.54-2.32,3.73-1.94,2.18-.35,1.05-.5,2.09-1.46,4.23-2.52,3.87,2.07-4.82-.12-2,.15.23-.35,1.68-.99,3.48-.59,1.82-1.39,3.96-1.86,5.57.49-.36,1.29-2.12,2.05-4.2.76-2.09,1.62-4.46,2.19-6.04.93.43-.71,6.07-3,13.58-1,2.95-1.3,3.56-1.49,3.53-.17-.03-.15-.67-.26-.13-.49,1.38-.88,2.58-1.19,3.63-.29,1.06-.49,1.97-.66,2.78-.32,1.61-.5,2.8-.58,3.94-.2,2.27-.46,4.24-1.8,8.9-1.38,3.65-1.28-.08-1.89.67.44-2.52.92-4.43,1.46-6.11.56-1.67,1.09-3.13,1.51-4.81l-1.35,4.05c.19-1.63.89-4.99,1.63-6.71-.36.74-.95,2.3-1.5,4.4-.28,1.05-.6,2.22-.94,3.47-.28,1.27-.59,2.62-.9,4.02-1.19,5.61-2.19,11.99-2.82,16.53.03.82.02,1.93.07,2.67.07.74.16,1.12.33.47.02-.96.12-1.92.17-2.88.75-2.58.2,5.45.76,1.85.02,1.93.16,3.98.17,6.2.1,2.23.07,4.65-.05,7.34l-.7,1.02c.1-.06.19-.94.23-2,.07-1.06.1-2.29,0-3.05.14,1.13-.18,3.2-.27,5.3-.13,2.1-.19,4.25.38,5.46.07-1.27.21-2.54.36-3.8.18,1.92.61,4.05.95,6.29.3,2.25.72,4.56.84,6.93.47-2.21-.19-1.08.3-4.48-.18.74-.35.37-.5-.55-.11-.92-.19-2.38-.27-3.79-.2-2.81-.16-5.4-.69-3.03.45-1.75.52-3.24.58-4.87.08-1.63.21-3.39.66-5.62-.12.07-.24.46-.31.34-.06-.12-.11-.75.08-2.73-.06-.18-.12-.61-.16-.88.02-.12.02-.16.03-.27-.02.08-.03.14-.04.22-.02-.17-.03-.19-.01.08-.16.94-.33,1.7-.48,2.01-.21-1-.22-3.09-.19-5.2.09-2.11.25-4.23.21-5.32.35-2.35.17,1.02.55-.24-.03-1.08,0-2.15,0-3.24.57-.25,1.73-6.09,1.27-.54l.36-2.47.45-2.46c.76-2.85,1.76-6.76,2.12-9.24.7-2.25.92-5.92.81-3.82.26-1.28.62-2.54.93-3.81.32-1.27.63-2.54,1.01-3.8l.15-.03c2.47-7.31,4.74-15.35,9.6-22.86,1.09-2.37,2.17-4.87,4.51-8.57l.82-.51c.77-1.49,2.2-3.57,3.46-5.46,1.31-1.87,2.45-3.55,2.65-4.29.77-.57,1.75-1.68,2.83-3.1,1.08-1.42,2.36-3.09,3.61-4.87,2.58-3.5,5.34-7.24,7.34-9.41l-.31-.55c2.63-3.12,5.15-6.1,8.42-9.98l-.59-.13c2.7-3.49,8.11-7.83,13.17-12.54-.22.46-1.54,1.61-2.52,2.39,3.4-2.41,6.5-5.47,9.56-8.45,3.05-3.01,6.17-5.75,9.35-7.76,1.37-1.26,2.53-1.98,3.66-2.63-.14.1-.26.2-.36.29.16-.11.39-.27.62-.44.72-.4,1.46-.82,2.26-1.27-.7.35-1.37.7-1.92,1.03,1.16-.84,2.87-2.19,4.61-3.42l1.07-.02c.14-.1.26-.18.4-.28,1.86-.95,1.27-1.13.1-.89.85-.66,1.62-1.28,2.2-1.81,1.89-.14,4.7-3.06,7.18-3.38.49-.6,2.87-1.83,5.15-3.17,2.27-1.38,4.61-2.52,4.93-3.24.12.09.72-.11-.33.36,1.12-.43,2.23-.85,3.3-1.31,1.06-.47,2.12-.85,3.07-1.38l1.2.32c1.51-.89,3.01-1.86,4.58-2.65,3.17-.54,4.47-.68,1.65.78,1.73-.76,2.96-1.3,3.93-1.66.97-.34,1.67-.56,2.34-.77.67-.21,1.3-.41,2.14-.71.84-.3,1.89-.72,3.44-1.22l-.21.52c2.25-.47,5.75-1.84,7.21-1.6.66.01,1.54-.03,2.61-.12,1.07-.1,2.33-.24,3.75-.32,1.41-.12,2.97-.24,4.64-.38,1.67-.07,3.45-.15,5.29-.23,7.36-.23,15.77.29,22.24,1.59-1.18-.85.32-.49,2.2-.04.47.11.96.22,1.44.34.48.13.94.24,1.36.32.83.16,1.48.2,1.65-.03.7.45,2.47.96.32.86.83.11,1.61.23,2.35.35.73.14,1.41.3,2.06.45,1.29.32,2.46.61,3.55.88,2.18.61,4.12,1.09,6.48,1.28.65.52-1.51.06-.91.43.54.06,2.12.34,2.74.72.6.38-1.02-.02-2.07-.19,6.57,1.88,7.51,1.28,8.3.53,3.19,1.52,4.81,2.14,7.41,2.45.52.35,1.21.81,1.28.98.06.17-.49.03-2.52-.67,1.13.42,4.5,1.93,7.62,3.31,1.55.71,3.05,1.37,4.2,1.83,1.13.48,1.92.74,2.05.6.59.51,3.02,1.53,3.61,1.77,2.39,1.3,3.69,1.99,4.95,2.74,1.26.75,2.55,1.41,4.83,2.79l-1.2-.87c2.27.32,3.92,2.11,7.57,4.38h-.15c1.96,1.52,3.15,2.43,3.97,3.01.81.61,1.26.89,1.7,1.17.44.28.88.56,1.67,1.17.78.62,1.9,1.6,3.71,3.24l-.07-.77c.72-.18,2.37,1.24,4.32,3.21.98.99,2.05,2.08,3.17,3.13.56.53,1.13,1.04,1.71,1.53.56.5,1.13.98,1.7,1.4l-1.32-1.6c2.6,1.75,5.41,6.93,7.48,9.2.42.54-.89-.61-1.62-1.19,5.35,6.07,1.29.15,5.73,4.23.5,1.07-1.71-.3,1.07,2.63.58.84,2.91,2.66,5.36,4.99,1.23,1.16,2.57,2.38,3.72,3.66,1.15,1.28,2.18,2.56,2.93,3.74-.56-1.12-1.11-2.24.88-.26,1.48,1.57,2.99,4.09,4.63,6.41,1.63,2.34,3.15,4.68,4.71,5.95.25.49.31.7.26.76,1.07,1.25,2.61,3.43,4.14,5.42.77.99,1.49,1.97,2.09,2.8.62.82,1.15,1.47,1.52,1.82-.02.91.73,2.38,1.73,4.18.98,1.8,2.3,3.87,3.58,5.86,2.4,4.06,4.63,7.81,3.75,8.19,1.45,3.03,2.94,6.05,4.23,9.16l-.27-.17c.6,1.5,1.13,2.74,1.6,3.79.45,1.06.83,1.95,1.19,2.7.72,1.5,1.32,2.49,1.92,3.48.41,1.44-.13.47-.26.39.4,1.12.62,2.1.89,2.99.27.88.47,1.68.64,2.42.37,1.46.68,2.64.94,3.8.3,1.14.6,2.24.94,3.53.18.65.37,1.34.58,2.11.19.78.39,1.63.62,2.59l-.48.87c.29,1.04.37,4.43.31,8.69-.1,4.27-.42,9.39-.49,14-.06-.1-.15-.3-.16-1.03-.06,5.19-1.31,11.3-2.54,16.53-1.21,5.24-2.35,9.63-1.8,11.74-.42,2.26-.83,4.52-1.33,6.77,2.62-8.53.53,1.53,1.88-1.9-.44,1.71-1.21,3.86-1.79,5.03-.58,1.18-.88,1.41-.27-.66l.3-.62c-.29-.91-1.2,1.7-2.16,4.48-.99,2.76-2.03,5.69-2.35,5.44-2.98,8.22-6.55,16.12-10.53,23.62-4,7.49-8.36,14.61-12.93,21.38l1.75-1.1c-1.05,1.59-2.14,3.16-3.25,4.7-1.02,1.12-1.7,1.26.66-2.05-.81.74-1.7,2.19-2.38,3.49-.71,1.28-1.21,2.4-1.17,2.5-5.03,6.19,1.06-3.09-.42-1.14l-1.92,2.7.53-.54c-1.35,2.34-1.18,2.79-4.3,6.55-2.11,2.26-1.42.87-2.23,1.78-.04-.04-.33.25-1.24,1.38-1.59,1.76-3.23,3.49-4.92,5.15.83-.51,1.65-1.04,2.47-1.58-1.93,2.54-4.78,4.75-1.87,2.98-2.12,1.33-7.04,5.82-12.16,9.78-5.09,4-10.22,7.56-11.57,8.23-3.45,2.87-7.23,5.2-12.03,7.82,1.25-.55,2.36-.26-1.85,1.94.38-1.11-1.59-.2-4.18.99-2.58,1.21-5.81,2.68-7.77,2.95,1.7-.38-1.31,1.09-4.13,2.4-2.82,1.3-5.43,2.5-2.76,1.97-3.7,1.37-.44-.45-3.35.32-4.23,2-9.14,3.64-14.37,5.17-5.23,1.54-10.76,2.95-16.33,4.45-.13.24,1.83.08-.5.98-2.06.14-4.12.28-6.17.34-2.2.56-1.82,1.61-6.04,1.62.6.08,1.52.2.02.5-5.61.64-11.28,1.19-16.89.94-5.68-.3-11.49-.88-17.22-1.74-11.48-1.71-22.86-4.76-33.28-9.6,2.77,1.46.82.77-1.41-.04,1.41.63-.21.46-.03.83-1.47-.67-2.91-1.39-4.34-2.12-1.44-.71-2.86-1.47-4.27-2.24-.97.02-3.31-1.05-5.56-2.12-2.23-1.09-4.35-2.19-4.98-2.09l2.78,1.27c-2-.53-.97.54.47,1.86,1.45,1.28,3.32,2.76,2.81,3.14,1.14.28,2.39.78,3.71,1.44,1.31.69,2.75,1.44,4.28,2.23,1.52.81,3.16,1.58,4.9,2.23,1.72.68,3.57,1.17,5.48,1.45,1.52.76-1.47-.12-.7.42.99.09,2.04.29,3.36.63,1.32.34,2.88.9,4.93,1.57l-.5-.02c5.84,1.63,10.04,2.66,14.44,3.72,4.4,1.04,9.02,2.03,15.79,2.97l-.94-.66c2.9.38,3.5.65,4.86.89,1.72-.3-.34-.42-2.42-.69-2.08-.25-4.19-.51-2.62-.81.93.38,2.68.74,4.82,1,1.07.12,2.24.24,3.46.34,1.21.12,2.53.13,3.8.2,5.12.07,9.98-.47,11.37-.01,4.52-.59-1.4-.44,3.1-1.07l1.24.16,1.06-.62c2.93-.45,4.48-.32,4.64-.06-.71.12-2,.47-2.76.64,3.9-.25,10.59-2.42,11.89-2.64-1.42.28-2.84.58-4.27.82,11.92-3.11,26.32-7.27,37.06-12.48l-.93.1c4.09-1.96,5.76-2.64,7.56-3.34,1.79-.71,3.71-1.41,8.09-3.77l-.29.22c1.66-1.13,3.95-2.48,6.33-3.78-2.05,1.5,4.42-1.79,1.71.12,4.15-2.67,5.11-3.43,5.71-3.98.6-.55.82-.92,3.28-3.08l1.49-.45c1.61-1.56,1.67-1.8,5.64-4.74-3.1,2.65,2.97-1.29-.47,1.74,4.54-2.63,7.47-5.22,9.81-7.37,2.34-2.16,4.09-3.89,6.34-5.01,1.34-2.1-.4-.63-2.32,1.01-1.92,1.65-4.02,3.47-3.07,2.51-1.96,1.14,2.46-3.19,4.88-5.37,1.22-1.12,2.5-1.83,4.21-3.03,1.7-1.2,3.85-2.9,6.58-6.11-.54.64-.52.74-1.07,1.36,2.31-2.18,3.68-4.97,6.43-7.7.76-2.14,3.02-3.99,2.66-5.03-1.46,2.1-2.92,4.2-4.46,6.25,1.26-1.78,2.27-3.66,3.53-5.78,1.28-2.1,2.76-4.48,4.98-7.29-.14.58-1.14,2.47-1.87,3.74.71-.78,1.26-1.63,1.79-2.5.52-.87,1.05-1.76,1.77-2.59.2.5-.98,2.52-2.62,4.85-1.58,2.37-3.6,5.04-4.7,7.14.83-.79,2.01-2.67,2.91-4.04.88-1.38,1.46-2.27,1.2-1.01.89-3.49,4.87-6.72,7-12.1l.28.61c.42-.8,1.13-2.55,1.98-3.97l-.9,2.95c1.81-4.27,4.95-7.42,6.68-11.52-1.06,2.06-1.71,3.17-2.11,3.74-.39.57-.52.61-.58.49-.12-.24.03-1.08-1.09.53,1.23-2.57,2.07-4.19,2.77-5.34.7-1.15,1.29-1.82,1.88-2.53,1.16-1.44,2.54-2.98,5.06-8.87-.65,1.61-3.02,5.77-2.12,3.2.56-1.08,1.23-2.32,1.86-3.46.61-1.15,1.19-2.18,1.62-2.81,3.15-7.87-1,.99.06-2.47,1.69-2.42,1.33-3.94,2.41-7.48l.54.17c1.85-4.45,1.71-5.18,1.63-5.75-.1-.58-.21-1.03,1.31-5.09l-.37,3.73,1.19-4.37.33,1.08c1-4.85,1.52-6.29,2.92-10.92-.66.99-.84-.86.12-5.01.93-2.77.19,1.71,1.36-4.22.05,1.4.22,2.98-.9,5.43.12.3.03,1.39.14,1.71.56-1.48,1.03-3.41,1.37-5.24.38-1.82.62-3.55.81-4.64-.17.83-.39,1.82-.56,2.32l.41-4.4.3-4.4c.42-1.34.42-.23.42.87.23-1.77.09-3.04.38-5.64.37.73.87.62.61,4.35.2-2.81.37-5.62.44-8.44.29-.53.85-4.28.95-3.18.6-4.7-.44-11.54-.61-17.78-.12-.32-.24-.96-.43-2.28-.14-1.47-.27-2.89-.4-4.31-.19-1.42-.31-2.84-.58-4.29-.28-1.44-.52-2.93-.99-4.44-.22-.76-.45-1.54-.71-2.33-.29-.78-.62-1.58-.96-2.4-.13-1.39-.36-2.66-.55-3.98-2.07-4.97.88,5.29-2.56-2.97-.6-1.46-.96-2.32-1.13-2.85-.16-.53-.13-.72-.04-.8.19-.16.64.13.31-.94-.82-1.37-1.89-3.26-3.1-5.44-1.24-2.17-2.4-4.73-3.43-7.47,1.05,1.63,1.51,3.08,2.35,4.68ZM293.37,60.5c.95.86,2.95,2.5,3.34,3.41-1.47-.64-2-1.67-3.34-3.41ZM209.54,7.68c.48.05,1.07.2,1.72.43.65.25,1.36.57,2.11.94-1.15-.34-2.42-.81-3.83-1.36ZM6.33,146.54c0-.05,0-.09,0-.14.81-2.66.51-1.72,0,.14ZM5.05,152.16c-.02.58.06.56.18.33-.07-.42.15-1.69.44-3.14-.22.38-.45,1.09-.63,2.81ZM290.88,283.34l.84-.76c-1.53,2.03-1.19,1.39-.84.76Z"/>
            <path class="blue-1" d="M220.53,10.67c.3.22.36.35.4.48.5.09.55,0-.4-.48Z"/>
            <path class="blue-1" d="M343.09,154.27v.2c.05.11.09.17.13.2l-.13-.4Z"/>
            <path class="blue-1" d="M39.14,69.18c.83-.89,1.34-1.36,1.72-1.63-.06-.14-.52.2-1.72,1.63Z"/>
            <path class="blue-1" d="M4.16,182.57l-.22-3.67c.06,1.78-.05,2.41-.12,3.32.14-.09.3-.79.35.35Z"/>
            <path class="blue-1" d="M5.91,214.79c.22.51.33,1.11.55,1.61l.21-.22c-.67-2.23-1.33-3.74-.76-1.39Z"/>
            <path class="blue-1" d="M2.48,186.08c-.45.32-.2,2.65.18,5.23-.02-.16-.03-.3-.04-.46.75.69.19-2.01-.14-4.77Z"/>
            <path class="blue-1" d="M2.74,191.9c.1.8.19,1.61.29,2.38.31.27-.1-.97-.29-2.38Z"/>
            <path class="blue-1" d="M4.36,159.44c-.24,1.2.53.83.27,1.5.24.71.23-1.33.19-2.72-.01-1.38-.22-2.12-.46,1.22Z"/>
            <polygon class="blue-1" points="1.04 188.3 1.57 187.32 1.02 185.88 1.04 188.3"/>
            <path class="blue-1" d="M1.3,167.58c-.14,1.39-.29,2.78-.35,4.18.1-.06.15.47.18,1.13.03-2.58.36-5.4.18-5.31Z"/>
            <path class="blue-1" d="M1.13,172.89c-.04,1.34-.05,2.62.03,3.37,0-.73.02-2.29-.03-3.37Z"/>
            <polygon class="blue-1" points=".53 182.57 .63 181.33 .62 178.36 .53 182.57"/>
            <path class="blue-1" d="M10.57,123.7c.49-1.44.94-2.9,1.47-4.33,0-.51-.61.6-1.12,2.23-.25,1.08-.78,2.69-.35,2.1Z"/>
            <path class="blue-1" d="M4.83,136.44c.42-1.18.59-1.22.97-1.84l-.66-.33c-.12.72-.23,1.44-.31,2.17Z"/>
            <path class="blue-1" d="M8.73,123.55c-.03-.5,1.82-6.5-.2-.98,0,.51-1.4,4.92.2.98Z"/>
            <polygon class="blue-1" points="45.26 65.01 44.5 65.91 45.52 66.56 45.26 65.01"/>
            <path class="blue-1" d="M89.12,22.2c-2.41,1.38-2.59,1.71-2.7,2.01-.11.3-.18.55-2.31,1.85-.89.98,3.48-2.14,2.54-1.16,2.6-2.09,4.19-2.87,2.47-2.71Z"/>
            <path class="blue-1" d="M86.66,24.91c-.41.35-.83.72-1.28,1.14.74-.62,1.08-.93,1.28-1.14Z"/>
            <polygon class="blue-1" points="99.38 322.89 96.44 321.11 98.23 322.48 99.38 322.89"/>
            <path class="blue-1" d="M93.12,320.63l-.34-1.06-2.15-.39c.7.35,2.05,1.02,2.49,1.45Z"/>
            <path class="blue-1" d="M287.53,52.42l-.32-.05c.26.52.87,1.09,2,2.31-.55-.76-1.1-1.52-1.68-2.25Z"/>
            <polygon class="blue-1" points="317.8 89.86 317.35 89.16 317.64 90.82 317.8 89.86"/>
            <path class="blue-1" d="M337.18,125.43c-.6-1.55-1.51-3.28-2.12-4.83,1.52,3.29,1.51,5.55,2.12,4.83Z"/>
          </g>
        </g>
      </g>
    </g>
  </g>
</svg>
