<?xml version="1.0" encoding="UTF-8"?>
<svg id="Layer_2" data-name="Layer 2" xmlns="http://www.w3.org/2000/svg" viewBox="0 0 52.25 51.35">
  <defs>
    <style>
      .cls-1 {
        fill: #052f39;
      }
    </style>
  </defs>
  <g id="Layer_1-2" data-name="Layer 1">
    <path class="cls-1" d="M50.03,16.35c.85-.93-.77-2.56-1.02-3.48l-.47.2c-.3-.58-.74-1.06-1.31-1.64l-.35.28c-.69-.35-.71-1.62-1.44-2.44.18-.05.34.18.36.4,0-.82-.63-1.23-1.23-1.59-.59-.37-1.27-.59-1.43-1.27-.32-.08-.44-.26-.52-.49.02.02.04.03.07.03-.02-.03-.05-.06-.08-.09-.04-.15-.09-.29-.16-.44.03.16.07.3.11.4-.18-.14-.49-.3-.82-.42l.18-.47s-.04-.02-.07-.04c-.16-.35-.35.02-.43.41-.18-.04-.36-.06-.52-.04.25-.8-.83-.31-.67-1.17-.42.22-1.58-.65-2.15.02.05-.1-.01-.19.14-.12-.27-.25-.55-.5-.95-.43l.14-.62-1.06.39c-.27-.54-.39-.8.26-1.05-1.37.23-1-.1-2.15.22l.17-.36c-.33-.13-1.03.25-1.13-.13-.27-.46-1.19-.81-2.31-.99-1.11-.27-2.38-.34-3.39-.78.36,1.16-.95-.52-1.04.39-.12-.27-.41-.43-.08-.67-.53.15-.93.04-1.29,0-.36,0-.68.04-1,.46-.15-.26.18-.43.06-.58-.08.07-.31.28-.44.13-.13-.15.13-.25.29-.39-1.11.18-1.08,1.03-1.02,1.82-.58-.27-.84-.15-1.1.44-.23-.22-.6-.41.02-.65-.18.02-.76.05-1.27.15-.49.11-.89.31-.82.62-.15-.13-.47.08-.54.18-.75.17-.83.13-1.55.39l.23.05c-.08.81-.57.35-1.15.64v-.08c-.79-.03-.93.08-1.05.18-.13.1-.26.18-1.04.2l.26.41c.14.5-.2.49-.67.44-.46-.04-1.07-.13-1.34.27l.39.09c-.21.53-1.79-.59-2.31-.44-.14-.02.07-.21.17-.34-1.43.14.17.59-.52,1.24-.33-.18-.29-.85-.86-.53-.21-.02-.44.48-.73.97-.3.48-.6,1.04-1.15,1.07.32.07.62.15.43.58-.21.26-.73.34-1.14.55-.41.21-.76.49-.67.98-.11.01-.18-.01-.23-.05-.22.49-.8,1.48-.62,1.99-.79-.32-1.15.41-1.33,1.15-.2.73-.34,1.39-1,1-.24.46-.43.95-.65,1.42l-.12-.11c-.56.84-.33,1.33-.12,1.79-.18.17-.25-.04-.32-.09-.41.61-.61.97-.67,1.34-.03.38.07.77.27,1.44h-.51c.16.34-1.26,1.87-.86,3.39-.05-.02-.15-.06-.21-.18.24.84-.26,1.75-.4,2.61-.17.85-.21,1.6.72,1.82l.56.99c-.01-1.33.8.11,1.04-.45.16.47-.39,1.36-.55.76l.08-.11c-.48-.06-.52.36-.51.81.02.44.13.89-.19.94.16.64.27,1.33.39,1.92.12.6.22,1.2.32,1.8l.14.89c.07.32.14.63.21.95.17.62.28,1.27.55,1.85l.56-.54.31.81c-.06.28-.4.52-.63-.07-.24.47.75.83.9.77.24,1.25-.97-.07-.83.28l.26.45.03-.15c.43.26.76.12,1.09.79.11.48-.27.44-.2.62-.05.02-.03.09.13.26.17.34.33.68.54.99l.23-.68c.52.24.57.85.82.08-.19.56.27,1.5.94,2.23.64.75,1.33,1.4,1.41,1.65.8.15,1.23.65,1.86,1.19-.09-.22.24-.79.73-.31-1.02.88.62,1.28.6,2.36-.09-.81,1.83.97,1.61-.24.44.41-.23.45,0,.96.77.1,1.42.54,2.12,1.01.73.41,1.48.95,2.38,1.11.08-.16-.12-.5.32-.64.21.36.43.73.66,1.1.37,0,.56-.88,1.04-.15-.06-.16-.14-.4.1-.42,1.59.76,3.42.84,5.18.71.44-.03.89-.05,1.33-.06.44-.05.88-.08,1.33-.08.9.03,1.79.01,2.77.21-.55-.23-.24-.33.11-.42-.25-.03-.1-.42-.2-.64l1.53.29c.07-.7,1.4-.43,1.37-1.08l-.39.22c.2-.48-.19-.85-.61-1.24l1.3-.36c6.52-1.79,11.53-6.44,14.06-12.22,0,.02-.01.04,0,.07l.21.07c.09-.26.04-.48-.1-.39.1-.23.19-.46.28-.7.17.54,1.42.7,2.26.47-.16-.08-.3-.13-.32-.76-.27.13-.94,1.03-1.1.45.08-.77.36-.52.66-.81-.48.12-.44-.83-.92-1.1.4-1.39.66-2.83.77-4.29.05.02.11.02.16-.03l-.04-.41c.47-.36.53.82.78.31.23.58.73,1.3.31,2.07l-.63.05c.18.01.46-.46.31-.71.22.38-1.03,1.06-.31,1.57l.52-.48c.2.62.72,1.51.3,2.17.68-.17-.02-.18.81-.53-.93.26.4-1.9-.64-1.34.89-.39.55-.86,1.3-1.49-.2,0-.41.21-.25-.42-.06-.03-.12-.11-.17-.16,0-.02.01-.03.02-.04l-.03.03s-.03-.03-.01.01c-.1.14-.22.25-.33.29-.43-.36-.34-1.33-.55-1.67.11-.36.23.16.45-.03l-.36-.51c.45-.03.73-.99,1.01-.1v-.8c.26-.48.35-1.15.09-1.54.05-.39-.6-.9-.22-.61l-.42-1.21.11-.03c-.21-1.23-1.26-2.34-.82-3.71-.21-.33-.45-.67-.49-1.3l.34-.22c-.25-.41-.12-1.65-.57-1.73M4.55,40.06l.02-.22c.32.27.15.24-.02.22M46.72,12.59c0,.12.07,1.55-.17,1.98-.05.08-.1.13-.17.18-.13-.26-.26-.51-.4-.77l.65-.37-.7.27c-.14-.25-.28-.5-.43-.74.5-.3.97-.53,1.22-.54M47.58,17.73c-.07-.22-.14-.43-.22-.65.24.11.46.26.58.42-.14.02-.27.14-.36.23M44.02,8.82l-.11.38.83.38c-.43.07-1.08.13-1.76.19-.29-.32-.6-.63-.9-.94.71-.19,1.47-.27,1.94-.02M35.89,4.61c-.18-.08-.36-.15-.54-.23.3-.2.59-.4.9-.58-.14.19-.25.49-.36.81M23.14,2.24c.14.08.07.31-.04.61.06-.07.11-.13.15-.19.15.07.21.17.23.3-.15.03-.3.06-.45.09.02-.06.05-.13.07-.19-.06.07-.12.14-.18.22-.08.01-.16.03-.24.05-.18-.14-.34-.27-.45-.32l.92-.55ZM48.06,34.8c.1-.26.19-.52.28-.78.02.06.05.11.06.18,0,.21-.11.43-.34.61M48.42,33.81s-.01,0-.02-.01c0-.01,0-.02.01-.04v.05ZM51.08,26.08c-.53.61-1.07.07-1.45.22-.2-.71.24-1.14.18-1.64l-.18.64c-.21-.22-.39-.67-.27-.96-.05.05-.07.14-.09.22-.13-1-.32-1.99-.59-2.99l-.08-.31c.59.18,1.19.64,1.6,1.35.41.88-.45.49-.3.63.1.85.45,1.18.82,1.48.33.3.67.59.38,1.36M51.72,26.09s-.01-.01-.02-.02c.18-.45.11-.29.02.02"/>
  </g>
</svg>