<?xml version="1.0" encoding="UTF-8"?>
<svg id="Layer_2" data-name="Layer 2" xmlns="http://www.w3.org/2000/svg" xmlns:xlink="http://www.w3.org/1999/xlink" viewBox="0 0 156.66 156">
  <defs>

    <clipPath id="clippath">
      <rect class="cls-1" width="156.66" height="156"/>
    </clipPath>
  </defs>
  <g id="Layer_1-2" data-name="Layer 1">
    <g class="cls-3">
      <path class="cls-2" d="M49.46,149.85c-2.96-1.25-5.07-2.33-8.16-4.14-1.31-.77-4.46-2.99-5.47-3.87-.93-.81-1.77-1.22-1.86-.9-.24.86,4.38,4.54,8.24,6.56,4.22,2.22,6.3,3.1,10.83,4.62,2.3.77,3.13.98,3.02.78-.15-.29-.66-.53-6.6-3.05M117.48,147.91c-.29-.08-6.22,1.92-6.22,1.92-2.25.79-2.81,1.16-2.25,1.47.45.25,4.96-1.17,6.72-2.11,1.94-1.05,2.11-1.17,1.75-1.28M94.37,155.4c-.53-.02-.79.2-.54.46.11.12.52.12.99,0,.45-.11,1.42-.29,2.17-.41,2.18-.35,6.9-1.48,7.62-1.83.89-.43,1.87-1.11,1.77-1.22-.05-.05-.73.14-1.53.43-2.9,1.03-9.33,2.6-10.48,2.56M120.73,146.12c-.38.24-.85.47-1.05.5-.4.07-.84.69-.57.81.42.17,4.59-2.31,4.99-2.73.86-.93-2.03.56-3.38,1.42M151.47,81.53c-.11,0-.25.22-.3.48-.34,1.61-1.02,9.31-.84,9.49.23.23.32-.26.53-2.97.12-1.57.35-3.33.5-3.92.33-1.28.39-3.09.11-3.09M128.9,23.7c.37-.23.2-1.13-.27-1.47-.64-.46-.84-.41-.67.15.22.75.72,1.46.94,1.32M125.73,17.15c-.36-.42-.83-.86-1.06-.98-.35-.19-.33-.08.17.8,1.65,2.94,2.27,3.78,2.62,3.56.23-.15-.96-2.48-1.73-3.38M123.33,131.03c-.87.41-1.89,1.64-3.46,2.71-1.63,1.11-3.79,2.06-3.57,2.06s2.42-.79,3.97-1.82c1.32-.87,2.49-1.89,3.25-2.59.56-.52.35-.62-.2-.36M117.59,10.98c.54.2,1.29.57,1.66.83.38.26.98.6,1.34.75.36.15.87.51,1.13.79.26.28.55.52.65.52.26,0-.13-.67-.7-1.2h0c-.27-.25-1.23-.96-2.15-1.58-.92-.61-1.9-1.33-2.19-1.6-.5-.47-3.08-1.64-5.4-2.46-.62-.22-1.29-.55-1.48-.72-.19-.18-.9-.43-1.58-.55-.67-.13-1.81-.41-2.52-.63-.71-.22-2.63-.54-4.27-.73-1.64-.18-3.63-.43-4.43-.55-1.83-.28-3.38-.3-6.09-.1-2.13.16-2.78.55-.93.54,1.78,0,5.12.47,6.25.87.61.22,1.29.4,1.5.4s.72.16,1.12.36c.68.33.76.33,1.12,0,.33-.3.6-.33,1.82-.17,1.57.2,3.27.74,3.37,1.05.03.11.25.15.47.09.22-.06.52-.01.67.1.32.26,1.86.8,2.1.73.27-.07,3.23.93,4.62,1.57,2.31,1.06,2.91,1.32,3.89,1.68M114.63,24.76c0-.09-.37-.62-.82-1.18-.48-.6-1.32-1.29-2.03-1.67-.66-.36-1.58-1.01-2.04-1.44-1.55-1.48-3.31-2.29-6.56-3.01-.97-.22-2.56-.58-3.54-.82-.83-.2-2.02-.41-3.38-.62,6.29,1.94,12.13,4.95,17.31,8.82.69.14,1.05.12,1.05-.08M70.75,11.46c-.11-.11-.52-.1-.99.03-.44.12-1.42.33-2.16.47-2.17.41-6.86,1.67-7.57,2.04-.88.46-1.84,1.16-1.74,1.27.05.05.73-.16,1.52-.47,2.87-1.11,9.26-2.87,10.4-2.86.53,0,.78-.22.53-.48M61.23,7.06c1.36-.59,2.57-1.08,2.69-1.08s.37-.13.55-.29c.4-.35,4.01-1.75,6.75-2.61.55-.18.96-.37.9-.43-.06-.06-1.08,0-2.26.14-1.18.14-2.66.43-3.29.65-.63.21-1.62.45-2.19.52-.57.07-1.74.27-2.6.43-3.79.73-8.34,1.61-9.78,1.89-1.97.38-6.45,2.05-9.36,3.49-.63.31-1.19.57-1.25.58-.06,0-.62.31-1.25.68-.63.37-1.4.67-1.72.66-.68,0-5.15,2.67-6.82,4.08-5.43,4.6-7.44,6.87-11.98,13.56-.58.85-1.2,1.72-1.38,1.93-.18.21-.57.87-.87,1.48-.3.6-.64,1.16-.76,1.24-.12.08-.62.97-1.11,1.99-.49,1.01-1.6,3.3-2.49,5.07-1.71,3.44-3.47,8.35-3.88,10.81-.13.82-.48,2.24-.76,3.15-.98,3.19-1.17,4.94-1.27,11.85-.09,6.11-.07,6.71.43,10.21.52,3.72.64,4.36,1.69,9.36,1.35,6.44,3.05,11.53,5.66,16.97,1.34,2.79,1.96,3.73,1.63,2.48-.09-.34-.46-2.05-.82-3.81-.57-2.75-.77-3.35-1.43-4.33-.42-.63-.77-1.23-.77-1.34s-.28-.79-.63-1.5c-1.23-2.54-2.67-6.53-3.39-9.42-.81-3.23-.97-4.32-1.18-7.99-.12-2.16-.32-4.76-.44-5.79-.12-1.02-.17-2.27-.11-2.77.06-.5.22-2.1.36-3.57.45-4.76.99-8.56,1.72-11.92.7-3.21,2.32-8.08,3.05-9.15.2-.29.67-1.15,1.04-1.91.37-.76.94-1.77,1.26-2.25.91-1.36,4.1-5.41,5.22-6.62.56-.61,1.02-1.27,1.02-1.47,0-.4,2.15-2.58,4.19-4.24.72-.58,1.45-1.22,1.63-1.41.18-.19.56-.47.84-.62s1.25-.86,2.15-1.57c2.5-1.98,6.3-4.64,8.69-6.09.53-.32,1.16-.76,1.4-.98.59-.53,4.76-3.05,6.58-3.99,2.05-1.06,7.04-3.22,9.65-4.18,1.22-.45,3.32-1.3,4.68-1.89M44.16,140.47l-2.25-2.2c-1.23-1.21-3.15-3.22-4.25-4.47-1.1-1.25-2.48-2.85-3.05-3.58-.9-1.13-1.34-1.47-3.27-2.47-1.23-.63-2.27-1.08-2.32-1-.05.09-.15.49-.23.9-.13.72-.07.81,2.22,3.11,3.42,3.45,4.81,4.63,7.21,6.16.73.46,1.71,1.1,2.19,1.42.48.32,1.52.93,2.31,1.35l1.44.77ZM27.36,117.19c-.06-.17-.22-.68-.33-1.14-.12-.46-.45-1.16-.73-1.56-.28-.4-.75-1.07-1.03-1.5-.66-1-.84-1.1-1.39-.8-.74.41-.43,1.64.77,3.06.55.65,1.15,1.23,1.35,1.29.19.06.52.3.72.53.43.49.82.56.65.12M23.85,42.66c.21-.06.86-1.03,1.48-2.24.62-1.18,1.53-2.82,2.03-3.65.98-1.63,1.03-1.74.68-1.52-.13.08-.82,1.07-1.53,2.2-.72,1.13-1.47,2.19-1.67,2.37-.38.32-1.34,2.24-1.35,2.69,0,.13.17.2.37.15M22.22,44.5c.25,0,.62-.64.62-1.06,0-.21-.14-.14-.4.21-.45.59-.52.85-.22.85M19.17,55.14c.06,0,.32-.63.57-1.4.25-.77.87-2.42,1.37-3.67,1.03-2.56.99-2.45.71-2.27-.8.5-3.25,7.34-2.64,7.34M22.45,50.27c.01-.4,1.56-3.23,3.15-5.76.33-.52.84-1.47,1.13-2.1.71-1.54,1.59-2.93,4.32-6.85,3.15-4.52,5.68-7.58,8.42-10.18,1.27-1.21,2.32-2.24,2.32-2.29s-.08-.08-.19-.08c-.19,0-1.52.97-4.29,3.11-3.27,2.54-4.03,3.29-5.98,5.98-.72.99-1.55,2.1-1.85,2.47-.3.37-.98,1.43-1.52,2.35-.73,1.27-.91,1.72-.7,1.85.2.13.1.35-.39.87-1,1.08-1.82,2.64-3.97,7.61-1.86,4.31-3.67,9.42-3.91,11.07-.1.7-.08.67.38-.33.27-.59.66-1.59.87-2.24.2-.64.78-2.06,1.28-3.16.5-1.1.91-2.15.92-2.34M22.44,112.66c0-.26-.09-.52-.2-.6-.26-.17-.26.33,0,.75.17.26.2.23.2-.15M22.02,111.36c0-.1-.11-.74-.24-1.44-.27-1.4-1.09-2.8-2.06-3.5-.77-.56-.98-.42-.67.49.13.38.3,1.11.38,1.63.12.74.36,1.16,1.15,1.97.95.97,1.44,1.26,1.44.85M18.69,60.04c.26-.41.26-.48,0-.32-.11.07-.21.25-.2.38,0,.15.08.13.2-.07M18.45,99.35c.65,1.85,1.22,2.7,2.94,4.41,1.22,1.22,1.4.94.46-.69-.33-.57-.74-1.36-.92-1.77-.18-.4-.52-1.16-.75-1.69-.78-1.76-2.84-4.85-3.07-4.62-.07.08.54,2.09,1.34,4.35M14.56,50.46c.37-1.5,1.61-5.2,2.16-6.44.51-1.14.66-2.08.35-2.08-.87,0-3.08,5.54-3.94,9.89-.94,4.76-1.21,7.04-1.41,11.92-.1,2.47-.08,3.34.09,3.18.23-.23.32-.79,1.08-7.32.38-3.25.81-5.62,1.68-9.16M12.28,51.46c.22-1.04.09-1.56-.25-.99-.1.17-.29.84-.42,1.48-.12.64-.4,1.9-.61,2.79-.22.89-.5,2.76-.63,4.15-.13,1.39-.34,2.81-.47,3.17-.13.35-.25,1.07-.28,1.6-.03.53-.1,1.87-.17,2.98-.25,4.27.33,11.32,1.35,16.49.58,2.96,3.23,10.96,3.62,10.96.18,0,.09-1.74-.14-2.73-.13-.55-.35-1.14-.49-1.32-.31-.4-.8-2.69-1.36-6.35-.24-1.56-.56-3.24-.72-3.72-.48-1.49-.73-5.29-.79-11.95-.06-7.41.28-11.56,1.34-16.56M156.44,80.26c-.13.5.13,3.24-.12,6.66-.17,2.42-.83,5.73-1,6.41-.43,1.64-.83,3.17-.88,3.4-.06.23-.57,1.79-1.13,3.46-.57,1.67-.99,3.15-.95,3.29.05.14-.26,1.07-.67,2.07-.42,1-.88,2.44-1.02,3.2-1.12,5.8-4.59,11.8-5.93,14.28-1.55,2.87-6.66,9.76-7.26,9.76-.44,0-.15-.73.63-1.65.48-.56,3.76-4.94,4.84-7.88.92-2.5.81-3.67.71-3.67-.05,0-.61.79-1.24,1.75-1.83,2.81-4.27,5.81-5.54,6.82-.65.51-1.33,1.09-1.52,1.28-.19.2-.42.36-.51.36s-.53.37-.99.83c-.45.45-1.33,1.16-1.96,1.57-1.31.86-2.29,1.88-2.78,2.86-.19.38-.73.95-1.22,1.28-.48.32-1,.75-1.15.96-.15.21-.36.37-.48.37-.1,0-3.37,2.64-2.63,2.45.84-.21,3.3-1.87,4.86-2.89,1-.66,1.02.13-.42,1.22-2.48,1.87-6.92,4.64-7.23,4.79-.41.19-3.87,2.66-5.45,3.4-3.34,1.58-5.77,1.93-5.81,2.08-.08.31-.37.43-1.32.53-.67.07-2.2.33-3.39.57-1.19.25-2.64.52-3.22.62-2.53.4-4.26.99-4.85,1.63-.45.49-.84.67-1.71.79-.62.08-1.37.33-1.67.54-.38.28-1.35.49-3.36.73-1.55.18-3.1.11-3.43.28-.33.18-1.03.33-1.55.33-.52,0-2.06-.08-3.44.27-5.47,1.39-13.65,1.13-19.39-.09-2.64-.57-3-1.38-.43-.97.93.15,1.58.17,1.7.04.3-.31.1-.4-1.88-.87-1.99-.47-3.33-.96-3.83-1.38-.17-.14-1.47-.7-2.89-1.23-1.42-.53-2.69-1.07-2.83-1.19-.14-.12-.76-.37-1.38-.56-.93-.28-6.5-3.08-7.97-4.01-.24-.15-1.17-.68-2.08-1.17-.91-.49-2.02-1.15-2.48-1.46-.46-.31-1.33-.84-1.94-1.17-.61-.33-1.5-.96-2-1.39-.49-.43-1.41-1.16-2.04-1.61-.63-.45-1.23-.97-1.33-1.16-.1-.19-.9-1.06-1.77-1.94-.87-.88-2.02-2.17-2.56-2.87-1.3-1.7-3.56-5.64-4.32-7.53-.34-.84-.79-.67-1.01-.98-.21-.32-.74-1.34-1.17-2.28-.77-1.67-.83-1.74-2.87-3.19-1.31-.94-2.44-1.94-3.03-2.71-.52-.67-1.11-1.27-1.31-1.34-.21-.07-.68-.62-1.07-1.23-.38-.61-1.05-1.52-1.47-2.02-.43-.51-.78-1.07-.78-1.24s-.57-1.44-1.27-2.81c-1.49-2.93-2.83-6.21-3.62-8.87-.31-1.05-.74-2.49-.96-3.19-.73-2.37-1.89-6.81-2.06-7.87-.1-.58-.38-2.17-.64-3.51-.26-1.35-.48-3.26-.5-4.25-.02-1-.15-2.17-.3-2.61-.2-.6-.23-2.03-.15-5.53.18-7.36.58-11.54,1.39-14.83.1-.41.34-1.42.53-2.23.33-1.43,1.03-2.87,1.4-2.88.1,0,.13.12.07.27-.39.96-.77,2.57-.67,2.84.12.32-.45,2.8-.92,4.02-.14.35-.29,1.45-.34,2.45-.05,1-.17,2.31-.26,2.91-.3,1.95-.27,8.75.06,11.77.46,4.26.74,6.45.87,6.81.06.18.3,1.41.52,2.75.22,1.34.54,2.85.71,3.36.17.51.31,1.14.31,1.4s.23,1.23.52,2.15c.29.92.52,1.76.52,1.86s.23.54.51.98c.28.44.84,1.77,1.24,2.95,2.93,8.64,5.64,13.21,10.64,18,2.41,2.3,2.57,1.74.27-.9-2.61-2.99-6.2-9.47-7.78-14.05-.51-1.48-1.91-6.09-2.49-8.19-.19-.7-.43-1.52-.53-1.81-.51-1.52-2.1-9.74-2.7-13.94-.4-2.8-.4-2.89.33-13.3.33-4.73.76-7.59,1.68-11.06.29-1.11.6-2.36.69-2.77.86-4.01,7.69-18.01,9.76-20,.43-.41,1.14-1.27,1.59-1.92.93-1.33,2.84-3.8,4.36-5.64,2.08-2.51,6.57-6.86,8.49-8.24.36-.26.7-.53.76-.6.34-.44,6.31-4.49,7.65-5.18.54-.28,1.84-.95,2.86-1.5,1.76-.92,2.4-1.16,6.04-2.24,4.09-1.21,8-2.02,11.97-2.49.52-.06,1.17-.19,1.46-.29,1.07-.38,7.21-.98,12.8-1.24,2.47-.12,3.37-.08,4.32.17.96.26,1.28.27,1.61.06.23-.14,5.02.7,5.01.92-.02.34-2.75.29-3.42-.06-.52-.27-1-.27-3.43-.04-1.56.15-2.92.35-3.03.45-.11.1-.4.18-.66.18-.32,0-.52.19-.66.59-.16.48-.45.68-1.53,1.05-.73.25-1.84.58-2.47.72-1.5.34-4.82,1.66-4.21,1.68.26,0,.54.18.62.4.14.37.32.34,2.96-.43,1.55-.45,3.33-.96,3.95-1.14.63-.18,1.43-.43,1.77-.56.62-.23,3.82-.87,6.24-1.24,2.63-.41,5.21-.91,5.41-1.05.25-.18,11.88-.13,15.42.07,1.48.08,3.1.31,3.95.56.79.23,1.63.42,1.86.42.58,0,4.1,1.42,7.03,2.83,1.34.65,2.44,1.12,2.44,1.05s.21.06.47.29c.26.23,1.12.84,1.93,1.35.8.51,1.69,1.14,1.98,1.4.28.26.63.5.76.55.33.11,4.85,4.05,4.85,4.22,0,.08.44.66.97,1.3.53.64,1.31,1.69,1.72,2.35.41.65,1.39,1.74,2.18,2.42,1.85,1.6,2.61,2.45,2.63,2.98.03.56,3.12,4.21,3.69,4.36.44.11,1.71,1.92,2.57,3.68.24.5.65,1.14.91,1.43.46.53,1.53,2.49,3.03,5.53.89,1.82,2.74,7.24,3.23,9.47.18.82.41,1.78.51,2.13.1.35.43,2.03.72,3.72.29,1.7.62,3.48.73,3.95.11.47.29,2.15.42,3.72.12,1.57.32,3.34.43,3.92.11.58.24,3.25.29,5.92.05,2.67.17,4.97.28,5.11.39.51.53,1.37.65,3.85l.12,2.53.57-.83c.98-1.44,1.21-2.17,1.41-4.62.11-1.31.27-2.76.36-3.23.09-.46.05-2.52-.08-4.57-.26-4.03-.39-5.17-.82-7.13-.3-1.38-.26-1.6.28-1.26.22.14.45.77.62,1.69.15.81.45,2.09.67,2.85.5,1.75,1.05,5.53,1,6.92-.02.58-.01,2.29.01,3.8.03,1.63-.06,3.15-.21,3.76M135.97,133.5c-1.3,1.45-3.85,4.05-6.41,6.27-1.15.99-2.26,1.81-3.2,2.36-1.28.75-1.21,1.02.25.34,1.09-.5,2.47-1.32,3.96-2.62,2.89-2.52,6.42-6.5,6.17-6.29-.13.11-.41-.45-.77-.06M29.66,36.59c.46-.45.65-1.03.33-1.02-.09,0-.37.34-.63.74-.53.84-.41.96.3.28M3.29,62.81c-.09.29-.17,1.15-.17,1.91,0,.99.05,1.23.17.85.09-.29.17-1.15.17-1.92,0-.99-.05-1.23-.17-.85M4.62,53.02c.17-.99.45-2.14.63-2.55.34-.8.45-1.8.16-1.62-.27.17-1.49,5-1.49,5.9,0,1.01.4.03.7-1.73M24.44,17.25c.16-.14.29-.4.29-.58,0-.27-.07-.27-.41.05-.46.43-.35.92.12.52M86.83,1.13c-.26-.05-.63-.05-.83,0-.2.05.01.09.47.09.46,0,.62-.05.36-.1M148.9,42.88c.16.96.59,2.34.96,3.07,1.49,2.96,2.59,7.49,2.97,12.2.11,1.39.32,1.85.51,1.14.15-.54.22-4.53.12-6.37-.08-1.48-3.1-10.53-4.7-14.14-1.7-3.82-1.98-2.15-1.72-1.65.8,1.58,1.58,3.98,1.87,5.74M32.4,11.52c.27,0,1.14-.65,1.67-1.05,1.76-1.31,4.57-2.99,4.75-2.99.24,0,1.95-.83,2.29-1.12.45-.37.28-.57-.31-.37-.32.1-1.13.43-1.82.72-.37.16-1.76.8-3.08,1.67-1.12.74-2.23,1.75-2.23,1.75-1.19.8-1.65,1.39-1.28,1.39M21.73,19.31c-.16.06-.55.52-.86,1l-.56.89.86-.84c.88-.86,1.09-1.26.57-1.05M7.25,43.47c0-.1.33-.74.73-1.42.7-1.19.9-1.8.57-1.79-.23.02-1.73,3.4-1.5,3.4.11,0,.2-.08.2-.19M10.16,36.92c0-.13.15-.36.33-.52.18-.15.49-.62.7-1.04.88-1.78,2.61-4.68,4.73-7.89.43-.65.66-1.49.4-1.49-.12,0-2.56,3.79-3.7,5.75-1.36,2.32-2.59,4.66-2.97,5.64l-.33.85.42-.53c.23-.29.42-.64.42-.77M17.4,25.14c.07-.59,1.33-2.55,1.78-2.75.48-.23.31.33-.52,1.63-1.09,1.71-1.36,1.95-1.25,1.12"/>
    </g>
  </g>
</svg>
