<?xml version="1.0" encoding="UTF-8"?>
<svg id="Layer_2" data-name="Layer 2" xmlns="http://www.w3.org/2000/svg" viewBox="0 0 343.04 342.9">
  <defs>
    <style>
      .green-1 {
        fill: #fff;
      }

      .green-2 {
        fill: none;
      }

      .green-3 {
        fill: #006227;
      }
    </style>
  </defs>
  <g id="Layer_1-2" data-name="Layer 1">
    <g id="Artwork_59" data-name="Artwork 59">
      <g>
        <path class="green-3" d="M291.92,298.64c18.08-16.26,33.45-38.64,42.75-62.95,5.48-14.32,6.09-36.34,5.39-54.4-.79-20.27-4.45-40.32-11.27-59.43-4.75-13.3-9.95-23.4-18.64-35.8C277.14,39.02,222.54,4.3,184.44,4.29c-42.49,0-81.14,13.12-116.6,37.42C31.04,66.92-21.88,129.05,15.27,217.81c20.65,49.33,57.97,102.55,124.25,120.16,49.21,13.08,113.51-4.36,152.39-39.33Z"/>
        <g>
          <path class="green-2" d="M291.92,298.64c18.08-16.26,33.45-38.64,42.75-62.95,5.48-14.32,6.09-36.34,5.39-54.4-.79-20.27-4.45-40.32-11.27-59.43-4.75-13.3-9.95-23.4-18.64-35.8C277.14,39.02,222.54,4.3,184.44,4.29c-42.49,0-81.14,13.12-116.6,37.42C31.04,66.92-21.88,129.05,15.27,217.81c20.65,49.33,57.97,102.55,124.25,120.16,49.21,13.08,113.51-4.36,152.39-39.33Z"/>
          <g>
            <path class="green-1" d="M289.08,297.29c1.2-.95.45-.96.57-1.17-1.88,1.71-.44,1.23-.57,1.17Z"/>
            <polygon class="green-1" points="269.4 313.19 269.67 312.78 266.76 315.21 269.4 313.19"/>
            <path class="green-1" d="M248.4,324.36c1.19-.09,3.12-1.07,5.25-2.21,2.12-1.14,4.46-2.4,6.36-3.35l.7-.17,1.35-1.52c-1.1.66-2.29,1.37-3.5,2.09-1.19.75-2.49,1.36-3.71,2.02-2.46,1.29-4.76,2.47-6.45,3.13Z"/>
            <path class="green-1" d="M235.99,327.39c.84.04-2.46,1.19,2.79-.9-.28.07-.36.09-.52.12-.48.17-1.14.4-2.27.78Z"/>
            <path class="green-1" d="M238.27,326.62c1.15-.48.74-.39.26-.22-.49.17-1.08.36-.26.22Z"/>
            <path class="green-1" d="M227.48,330.54c1.03-.37,2.02-.84,3.02-1.3-.35.02-1.22.26-1.87.44-.66.15-1.12.23-.62.01-3.17,1.09-2.46,1.08-.53.85Z"/>
            <path class="green-1" d="M224.67,331.99l1.6-.59c-.31,0-.75.1-1.6.59Z"/>
            <path class="green-1" d="M229.64,330.09c-1.1.51-2.25.87-3.37,1.31.5,0,.63.24,1.56-.55-.22.3.42-.06,1.81-.75Z"/>
            <path class="green-1" d="M231.6,329.53c1.79-.44,4.09-1.12,1.06.25,5.91-2.2,4.82-2.44-1.06-.25Z"/>
            <path class="green-1" d="M247.62,325.61c.8-.23,1.6-.48,2.37-.79l1.82-1.19c-.45.3-1.56.77-2.52,1.18-.96.41-1.81.69-1.68.8Z"/>
            <path class="green-1" d="M207.63,335.17c-.17.2,1.18.29,1.46.44l2.32-.75c-.62.09-1.51.22-2.27.33-.76.11-1.4.09-1.51-.02Z"/>
            <path class="green-1" d="M209.09,335.6c-1.16.34-2.34.62-3.51.94,3.2-.51,3.75-.79,3.51-.94Z"/>
            <path class="green-1" d="M224.36,333.04c1.85-.79,3.73-1.47,5.54-2.34-2.18.98-4.43,1.77-6.65,2.67l1.11-.33Z"/>
            <polygon class="green-1" points="194.01 337.25 195.99 336.61 192.45 337.65 194.01 337.25"/>
            <path class="green-1" d="M184.93,338.17c1.48-.42-2.1-.46-.52-.76-2.46.18-4.55.65-6.45.95,2.02-.19,4.16-.33,6.97-.19Z"/>
            <path class="green-1" d="M174.77,338.71c1.01-.07,2.06-.21,3.19-.36-1.07.07-2.13.18-3.19.36Z"/>
            <path class="green-1" d="M199.48,337.52c-.15-.03-.36-.09-.79-.11-.43-.05-1.09-.07-2.1-.02l1.48.33c.43-.04.92-.11,1.41-.2Z"/>
            <path class="green-1" d="M198.12,337.74h-.05c-1.54.15-2.61.27-3.06.32.39-.04,1.33-.14,3.12-.32Z"/>
            <path class="green-1" d="M199.83,337.46c-.13.02-.23.04-.35.06.14.02.23.03.35-.06Z"/>
            <path class="green-1" d="M215.02,335.06c-2.01.76-6.32,2.07-2,1.5,1.42-.68-1.04-.36,2-1.5Z"/>
            <path class="green-1" d="M201.68,337.78l3.83-.55c-.1-.12-.82-.19.2-.51l-4.03,1.06Z"/>
            <polygon class="green-1" points="199.84 338.26 201.68 337.78 200.26 337.98 199.84 338.26"/>
            <path class="green-1" d="M181.34,339.05c-.82.16-1.69.26-2.61.35-.92.05-1.88.04-2.91.06,1.1.04,2.22.14,3.33.1,1.11-.04,2.22-.09,3.3-.15.3-.17,1.23-.51-1.12-.36Z"/>
            <path class="green-1" d="M189.51,338.68c-.11.02-.26.05-.36.07.23.02.41,0,.36-.07Z"/>
            <path class="green-1" d="M155.71,338.24c.11.05.2.09.31.14.03-.03.05-.05.09-.07l-.39-.06Z"/>
            <path class="green-1" d="M182.84,339.48c1.66,0,2.64-.17,3.57-.38-1.23.12-2.54.23-3.95.31-.13.08-.16.13.37.07Z"/>
            <path class="green-1" d="M169.15,338.91c.85.11,1.83.2,2.85.29-.84-.16-2.54-.42-2.85-.29Z"/>
            <path class="green-1" d="M188.58,338.68c.08-.02.16-.03.24-.05-.55-.05-.48-.02-.24.05Z"/>
            <path class="green-1" d="M188.58,338.68c-.84.12-1.5.28-2.17.43,1-.11,1.93-.17,2.73-.35-.21-.01-.42-.04-.57-.07Z"/>
            <path class="green-1" d="M149.09,340.53c.39-.41,4.81-.21,8.53.83.94.07,1.51-.07,1.77-.25.27-.19.23-.44-.01-.72-.5-.53-1.83-1.37-3.37-2.01-.14.18-.16.37-3.97.1,1.27.44,8.31,1.8,5.06,1.76-5.07-.49-4.1-.76-6.5-1.35.49.22.33.32-.17.37-.5.04-1.36.07-2.23-.03-1.75-.14-3.64-.28-3.19.26,1.49.21,2.96.5,4.46.65.06.16-1.59.08-.38.41Z"/>
            <path class="green-1" d="M163.2,339.15l1.56.06c-1.77-.21-3.03-.49-5.32-1.02-2.59-.08-3.14-.03-3.34.11,2.52.47,5.08.61,7.64.82l-.54.03Z"/>
            <path class="green-1" d="M171.77,339.51c-.62.25-1.87.42-2.68.6-.41.1-.7.17-.76.27-.05.1.14.25.71.38,4.63,0,3.25-.4,6.01-.6-7.44.08,2.13-.27-3.23-.59,1.46-.08,2.77-.09,4-.11-1.33-.07-2.62-.15-3.83-.26.07.01.11.02.17.03h.03s0,0,0,0c.32.06.42.1.06.07-.02,0-.11,0-.15,0-.05.07-.19.13-.34.19-2.14-.12-.33-.13.34-.19.02-.02.08-.05.09-.07,0,0-.02,0-.03,0-1.23.03-2.47.09-3.71.1l-3.7-.13c1.56.16,3.52.41,7.01.3Z"/>
            <path class="green-1" d="M209.33,338.53c-.24,0-.24-.04-.26-.07-.47.14-.64.22.26.07Z"/>
            <path class="green-1" d="M206.22,338.77c.53-.16.94-.44,2.7-.69,1.54-.17.04.25.15.39,1.03-.35,3.58-1.2.26-.67-.17.07-.34.11-.51.17-3.02.35-6.94.4-6.43.24.94.3,1.76.48,3.83.57Z"/>
            <path class="green-1" d="M188.75,340.23l-6.21.6,3.2.26-.18-.25c3.56-.1,2.76-.37,3.19-.6Z"/>
            <polygon class="green-1" points="155.04 337.89 155.92 337.48 152.3 337.71 155.04 337.89"/>
            <polygon class="green-1" points="147.16 336.63 147.54 336.24 145.44 336.06 147.16 336.63"/>
            <path class="green-1" d="M134.31,7.87l1.78-.6c-.85.26-1.39.45-1.78.6Z"/>
            <path class="green-1" d="M121.29,11.68l-.24.33c.55-.32.77-.5.24-.33Z"/>
            <path class="green-1" d="M13.14,203.65c-.2-1.33-.42-2.72-.55-3.75-.13-1.03-.27-1.67-.47-1.45l-.27.92c.28.88.53,1.65.76,2.35.22.7.39,1.34.53,1.92Z"/>
            <path class="green-1" d="M32.53,74.81c-.2.17-.41.35-.61.52-.28.61-.5,1.22-.71,1.75.38-.69.82-1.47,1.33-2.27Z"/>
            <path class="green-1" d="M32.08,72.01c.84-.86,1.65-1.75,2.53-2.57-.62.53-1.43,1.36-2.53,2.57Z"/>
            <path class="green-1" d="M208.1,4.57l2.27.15c-3.33-1.01-1.94-.3-2.27-.15Z"/>
            <path class="green-1" d="M74.68,299.93c-1.58-1.66-2.83-2.98-4-4.07,1.83,2.07,3.15,3.93,4,4.07Z"/>
            <path class="green-1" d="M130.65,14.44c1.04-.42,1.48-.62,1.42-.73-1.09.37-1.67.69-1.42.73Z"/>
            <path class="green-1" d="M65.97,291.24c.24.33.5.63.77.94,1.26,1.1,2.49,2.25,3.94,3.68-1.32-1.56-2.88-3.28-4.71-4.62Z"/>
            <path class="green-1" d="M342.25,213.68c-.04.19-.08.43-.13.6.06.07.1-.2.13-.6Z"/>
            <path class="green-1" d="M305.67,280.99c.46-.59,1.22-1.55,1.93-2.46-.39.41-.94,1.18-1.93,2.46Z"/>
            <path class="green-1" d="M116.64,326.55c1.56.68.27.06,0,0h0Z"/>
            <path class="green-1" d="M123.56,331.56c-.36-.07-.65-.1-.73,0,.18-.06.43-.05.73,0Z"/>
            <path class="green-1" d="M52.18,280.62s-.06-.07-.09-.12c.25.46.21.38.09.12Z"/>
            <path class="green-1" d="M118.9,327.77c-.56-.31-1.23-.62-1.94-.98.3.19.9.47,1.94.98Z"/>
            <path class="green-1" d="M118.67,327.41c.53.24.95.43,1.35.61.23,0,.08-.12-1.35-.61Z"/>
            <path class="green-1" d="M114.48,325.59c.89.4,1.7.8,2.48,1.2-.29-.17-.4-.26-.32-.23-.45-.2-1.1-.49-2.16-.96Z"/>
            <path class="green-1" d="M306.26,78.2c.06.1.12.22.19.33,1.24,1.27.74.68-.19-.33Z"/>
            <path class="green-1" d="M.32,160.33c.01.08.02.13.03.2,0-.08.01-.19.02-.26l-.04.06Z"/>
            <path class="green-1" d="M0,153.99c.47,2.72.49,4.24.36,6.29l1.44-2.09c-.32-.69-.66-1.38-.95-2.08l-.85-2.11Z"/>
            <path class="green-1" d="M166.27,2.2l-4.47-.02c5.26-1.28,9.19-1.38,4.95-1.63-.12.41-1.26.73-2.91,1.01-1.64.27-3.79.49-5.93.84-2.14.33-4.28.6-5.9,1-1.62.41-2.72.81-2.8,1.23l-2.94.19c.83-.13.94-.25,1.76-.38-1.44.07-2.41.21-3.16.42-.75.23-1.28.52-1.86.83-1.16.63-2.5,1.31-6.08,2.05-2.49.53-4.27.75-2.64.13-1.79.63-3.61,1.17-5.38,1.87-1.59.45-1.28.07.3-.38l-4.13,1.32c-1.38.43-2.75.87-4.1,1.39l.05-.07c-1.09.64-3.6,1.92-4.83,2.52-2.15.52.98-.53.38-.52-1.47.62-2.89,1.38-4.33,2.06-.98.16-.59-.21.44-.77,1.03-.55,2.69-1.33,4.27-1.81-2.4-.04-3.28.48-4.75,1.24-1.46.79-3.53,1.78-8.13,3.32,1.36-.66,2.72-1.34,4.09-1.98-1.52.14-3.06.67-4.85,1.33-.89.34-1.85.7-2.88,1.08-1.03.41-2.13.85-3.36,1.28.62-.11,3.07-.97,4.86-1.3,1.77-.37,2.8-.4.49.82-1.41.45-3.17,1.26-5.56,2.75-.26-.48-2.71.76-5.72,2.42l-.14-.77c-3.19,1.92-2.76,2.11-4.52,3.44-3.62,1.98-4.66,1.9-5.75,1.96-5.79,3.24,4.4-1.53-2.27,2.59-2.41,1.33-4.43,2.52-6.44,3.96-2,1.46-4.1,3-6.67,5.08-3.31,2.02.29-.77-.97-.14-.82.83-1.65,1.64-2.43,2.5-.68.49-.57.18-.52.03-2.15,1.94.22.7-3.19,3.67-.22.7-2.23,1.89-4.58,3.55-1.2.8-2.46,1.75-3.65,2.77-.6.51-1.17,1.03-1.71,1.56-.52.55-1.01,1.11-1.43,1.68-1.14.8.16-.79-.34-.71-2.59,2.87-3.61,4.17-4.56,5.31-.95,1.14-1.69,2.23-3.52,4.82-1.33,1.2-2.59,2.48-3.89,3.72,3.01-2.61.17,1.59-2.08,5.37,1.08-.91,2-1.68,2.58-2.23-1.34,1.9-2.71,3.76-3.95,5.71-.6.6-.39-.11.04-1.22-.23.42-.45.82-.62,1.13-1.7,1.83-1.29.55-.55-1.15.63-.59,1.24-1.19,1.88-1.73.72-1.62,1.34-3.21.77-3.2-.22.41-.71,1.14-1.28,1.93.19-.43.28-.73.09-.61-.21.14-.55.81-1.1,1.84l-1.62.78.03.51c-2.01,2.34-3.87,4.8-5.76,7.25-.71,1.52-1.37,2.99-2.03,4.5-.67,1.5-1.25,3.09-1.95,4.73-1.36,3.29-2.89,7.02-4.87,11.83.54-2.58-.67-.92-1.28-1.35,1.89-2.26,3.17-7.49,6.08-12.11-1.49,2.42-1.48,1.71-1.22,1.02-.73,1.45-1.36,2.96-2.01,4.44s-1.3,2.97-1.86,4.49c-.44-.45-1.29,1.67-2.57,3.88.91-.65.39,1.1-.5,3.48-.95,2.35-1.98,5.45-2.5,7.35-.45.1-.52-.92,1.23-5.42-1.33,2.34-1.59,4.09-1.83,5.8-.2,1.73-.31,3.46-1.44,5.83.34-1.12.58-1.71.53-2.21-.58,2.68-2.38,9.13-2.36,7.52l.28-1.14c-.25.94-.56,2-.83,3.16-.24,1.16-.49,2.41-.76,3.69-.57,2.55-.86,5.31-1.19,7.84-.5,5.09-.53,9.37-.02,9.98-.13.07-1.16-1.09-1.34-1.58.46,2.37.9,4.7,1.38,7.01l1.75,6.84c-.44-.59-1.15.29-1.8.53-.33.12-.66.08-.96-.4-.28-.48-.5-1.39-.64-3.01-.05.93-.12,1.98-.09,3.28.07,1.3.21,2.86.48,4.81.04-1.28,1.03-3.23,1.22-1.51-.66,4.8-.32,3.31-.45,9.22-.02-1.91,1.49.03,1.9,2.97-.28-.43-1.27.45-1.59-.62l2.56,7.12c-.52-1.79-1.21-.1-1.17,1.6.04-.41.39,1.17.8,3.09.41,1.92.87,4.19,1.25,5.12l-.28-1.56-.2-1.58c.38,2.08.98,3.55,1.46,4.77.51,1.21,1.02,2.14,1.52,3.07.25.46.5.93.77,1.41.28.48.57,1,.86,1.58.58,1.16,1.18,2.59,1.82,4.56-.57-.85-2.38-1.82-1.18,2.27.66.8,2.21,2.52,3.97,4.84,1.73,2.33,3.8,5.21,5.51,8.42l.22,1.43c.88,1.64,1.82,3.26,2.74,4.88-2.43-2.67-8.43-10.71-11.05-15.54.87,3.04-.12,1,1.67,5.37.16.83-.22.3-.71-.61-.46-.92-1.03-2.22-1.29-2.87.63,1.73,1.26,3.47,1.97,5.15.68,1.7,1.37,3.39,2.1,5.08.49-.75,4.23,7.29,4.66,6.61-1.95-3.45-3.86-6.94-5.68-10.48.52-.74,4.75,5.41,8.04,12.37.59,1.9-1.91-.7-2.07-.44.35.39,1.26,1.99,2.14,3.57.89,1.57,1.71,3.13,1.79,3.49l-1.88-2.73c1.72,3.99,4.16,5.77,6.06,10.64.81,1.59,1.82,5.14,2.38,5.17-.73-2.98,1.4-4.85,2.96-3.54.23.57,4.05,8.39,4.86,10.29,1.02,2.84-3.83-2.77-2.96-.35.24-.03,1.36,1.19,1.8,1.71.88,1.67-1-.28,1.35,3.07,1.05.11,4.67,6.87,1.65,1.21,2.44,3.16,2.3,3.56,5.1,7.33-.25-.75.75-.17,2.12.95.69.56,1.47,1.27,2.24,2.01.79.73,1.58,1.51,2.24,2.24-.3-.05.05.81.23,1.22,2.56,3.15,4.53,5.58,6.53,7.9.98,1.18,1.99,2.31,3.08,3.49,1.08,1.19,2.24,2.43,3.61,3.75.36.63,2.82,3.37,1.47,2.52.88.67,1.82,1.13,3.56,2.72,2.88,3.6-3.93-3.48-1.94-.52.27-.07,1.5.85,2.99,2.03,1.53,1.14,3.33,2.56,4.7,3.53-.17-.6-1.6-1.9-3.34-3.28-1.74-1.38-3.7-2.96-5.04-3.98.7-.75,5.55,2.57,11.94,7.14,2.49,1.88,2.95,2.39,2.87,2.55-.08.16-.68-.07-.21.2,2.32,1.81,4.04,3.01,5.48,3.82,1.43.82,2.5,1.36,3.53,1.83,2.1.9,3.86,1.83,7.85,4.6,2.98,2.53-.48,1.17.02,2-4.54-2.4-6.47-4.47-9.36-6.37,1.1.9,2.26,1.73,3.39,2.6-.74-.36-1.85-.97-2.95-1.64-1.09-.7-2.16-1.47-2.87-2.08,1.16,1.17,5.24,4.09,10.16,7.03,2.43,1.53,5.12,2.96,7.64,4.4,2.58,1.33,4.98,2.7,7.03,3.73,1.57.49,4.2,1.46,3.1.67l-2.66-1.12c-2.19-1.56,5.21,1.62,2-.11,3.65,1.27,7.83,2.36,12.8,4.47.24.35.48.68.72,1.01-.06-.2-3.18-1.62-4.68-1.94,1.12.23,2.96,1.22,4.9,2.05,1.95.81,3.95,1.56,5.27,1.5l-3.45-1.65c1.89.43,4,.85,6.24,1.24,1.11.21,2.25.45,3.39.73,1.15.24,2.3.47,3.44.79-.97-.58-1.24-.62-1.65-.7-.41-.11-.98-.16-2.49-1.05,1.27.9-1.65.05-4.35-.73-2.69-.83-5.15-1.68-3.08-.41-3-1.96-5.56-2.31-9.48-4.7.04.27,1.31,1.03-2.32-.6-.19,0-.62-.09-.89-.14-.11-.05-.15-.07-.24-.12.07.04.12.07.19.11-.17-.03-.19-.03.07.04.84.46,1.5.87,1.74,1.11-1.01-.14-3.01-.77-4.97-1.56-1.95-.8-3.93-1.61-4.96-1.96-2.07-1.18,1.01.2-.04-.61l-3.06-1.08c-.07-.58-5.16-3.7-.09-1.37-1.5-.73-2.93-1.61-4.39-2.4-1.23-.82-2.68-1.8-4.1-2.72-1.43-.9-2.85-1.72-3.94-2.33-.96-.69-2.28-1.38-3.13-1.81-.84-.43-1.19-.61-.23-.18-2.19-1.43-4.45-2.78-6.58-4.31l.02-.15c-6.14-4.69-13.05-9.39-18.69-16.37-1.92-1.78-3.96-3.58-6.76-6.96l-.23-.94c-1.19-1.18-2.72-3.2-4.15-4.97-1.38-1.82-2.63-3.43-3.27-3.84-.63-1.81-3.08-5.05-5.66-8.56-1.29-1.75-2.61-3.58-3.82-5.27-1.17-1.72-2.24-3.29-2.99-4.56l-.62.13c-2.14-3.47-4.34-6.71-7.03-11.02l-.3.53c-2.55-3.6-5.11-10.05-8.14-16.28.38.34,1.12,1.94,1.55,3.11-1.32-3.96-3.33-7.82-5.3-11.62-.97-1.9-1.94-3.79-2.76-5.67-.79-1.88-1.48-3.73-1.96-5.55-.42-.84-.76-1.57-1-2.26-.22-.7-.39-1.34-.53-1.98.06.16.11.31.17.43-.06-.18-.15-.45-.24-.73-.18-.81-.36-1.64-.56-2.54.13.78.26,1.52.42,2.15-.46-1.36-1.24-3.39-2.01-5.39l.29-1.04c-.05-.16-.09-.3-.15-.47-.36-2.06-.71-1.54-.82-.35-.38-1.01-.75-1.93-1.09-2.63.23-.94-.28-2.26-.67-3.68-.39-1.42-.8-2.93-.58-4.16-.19-.32-.46-1.14-.77-2.18-.31-1.05-.56-2.36-.87-3.64-.61-2.58-1.26-5.12-1.78-5.63.12-.09.11-.73.25.42-.16-2.39-.36-4.76-.84-6.87l.65-1.07-1.29-5.14c.35-3.19.63-4.48,1.2-1.38-.45-3.76-.59-5.31-.62-6.7-.02-1.4-.04-2.64-.32-5.9l.45.34c.12-2.29-.08-6.03.41-7.37.4-1.25.86-3.44,1.34-6.24.3-1.39.63-2.92.98-4.55.31-1.64.77-3.36,1.24-5.15,1.81-7.14,4.7-15.05,7.79-20.88-1.17.88-.37-.45.62-2.11.49-.83,1.04-1.74,1.41-2.5.4-.75.63-1.35.46-1.58.65-.54,1.66-2.07.92-.06.72-1.52,1.36-2.84,2.04-3.99.7-1.14,1.32-2.16,1.91-3.12.58-.97,1.14-1.87,1.68-2.8.53-.93,1.01-1.91,1.44-3.01.68-.47-.37,1.47.16,1,.22-.5.91-1.95,1.48-2.41.56-.45-.35.95-.79,1.92,1.87-2.85,2.75-4.54,3.06-5.66.35-1.1.14-1.62-.09-2.1,1.23-1.27,2.07-2.28,2.78-3.24.72-.95,1.25-1.89,1.81-3.08,1-.76,2.52-2.14-.08,1.28.4-.46,1.16-1.41,2.16-2.53,1-1.12,2.17-2.45,3.31-3.72,1.16-1.25,2.25-2.47,3.04-3.42.79-.94,1.3-1.59,1.2-1.77.67-.4,2.39-2.39,2.8-2.88,3.95-3.73,4.34-4,8.32-7.55l-1.21.86c1.02-2.05,3.24-3.05,6.55-5.8l-.04.15c4.11-2.74,4.95-3.38,5.77-4.04.41-.33.81-.66,1.64-1.21.85-.53,2.13-1.28,4.26-2.47l-.75-.18c.09-1.55,7.63-4.14,12.31-7.3l-1.94.73c1.24-.94,3.33-1.66,5.44-2.31,2.11-.65,4.3-1.11,5.69-1.77.64-.22-.86.64-1.66,1.15,3.74-1.55,3.88-1.84,3.75-2.1-.12-.25-.56-.55,2.13-1.92,1.17-.12-.84,1.52,2.83-.15,1.88-.67,10.19-5.99,15.66-7.22-1.24.16-2.48.31.05-.92,2-.79,4.85-1.45,7.59-2.21,2.78-.67,5.46-1.4,7.19-2.43.55-.07.77-.04.81.03,1.55-.53,4.1-1.31,6.49-2.08,2.41-.68,4.67-1.35,5.58-1.82.42.16,1.04.19,1.81.13.77-.04,1.7-.14,2.71-.31,1.01-.17,2.12-.39,3.26-.63.57-.13,1.15-.26,1.73-.38.58-.11,1.17-.22,1.75-.33,2.32-.44,4.54-.91,6.2-1.09,1.66-.15,2.75-.1,2.77.35,1.67-.17,3.34-.38,5.02-.52l5.03-.34-.25.2c1.61-.08,2.96-.15,4.11-.18,1.15-.05,2.11-.13,2.94-.22,1.65-.16,2.81-.45,3.92-.62,1.47.16.39.3.27.39,4.62.26,7.13.76,9.48.97,1.18.13,2.31.28,3.64.38,1.33.13,2.86.3,4.83.53l.65.77c.53.06,1.61.34,3.05.81,1.43.52,3.25,1.11,5.22,1.92,3.99,1.52,8.71,3.57,13.03,5.19-.11.02-.33.05-1.03-.18,4.87,1.8,10.24,5,14.78,7.88,4.54,2.9,8.35,5.37,10.52,5.56l3.01,1.69,2.97,1.76c-7.22-5.25,1.62,0-1.2-2.39,3,1.89,7.02,5.85,3.47,3.36l-.48-.49c-.96-.02,1.22,1.7,3.55,3.48,2.29,1.84,4.75,3.74,4.41,3.98,6.86,5.45,13.23,11.33,19.13,17.44,5.89,6.13,11.33,12.48,16.39,18.9l-.51-2.01c1.19,1.49,2.37,2.99,3.5,4.53.75,1.32.69,2-1.75-1.25.46,1,1.57,2.29,2.6,3.34,1.03,1.04,1.93,1.88,2.05,1.87,4.39,6.67-2.63-1.94-1.22.06l1.99,2.65-.36-.66c1.85,1.98,2.31,1.97,4.98,6.07,1.54,2.69.41,1.62,1.04,2.66-.06.03.14.38.96,1.59,1.23,2.04,2.39,4.12,3.5,6.22l-.8-2.83c1.87,2.6,3.17,5.96,2.3,2.66.32,1.22,1.22,3.32,2.33,5.87,1.1,2.56,2.38,5.58,3.56,8.59,2.38,6.02,4.33,11.96,4.59,13.45,1.78,4.13,2.95,8.41,4.1,13.76-.18-1.35.42-2.34,1.33,2.32-.95-.68-.65,1.47-.23,4.29.42,2.82.93,6.33.65,8.29.12-1.74.67,1.56,1.13,4.64.48,3.07.85,5.92,1.12,3.2.27,3.94-.55.3-.63,3.31.74,4.64.93,9.79.91,15.25-.01,5.45-.21,11.17-.34,16.94.2.19.59-1.74.79.76-.43,2.02-.9,4.03-1.39,6.03-.11,2.26,1.05,2.21-.14,6.26.24-.56.6-1.41.49.12-.9,5.58-2.02,11.17-3.69,16.55-.88,2.63-1.97,5.34-3.06,8.01-.57,1.33-1.12,2.67-1.71,3.99l-1.82,3.95c-5.02,10.45-11.29,20.45-19.07,28.9,2.22-2.2,1-.54-.47,1.33,1.03-1.15.38.34.78.28l-1.65,1.77-1.7,1.72-1.69,1.71-1.74,1.66c-.15.45-.64,1.17-1.32,1.99-.69.81-1.56,1.73-2.41,2.63-1.72,1.79-3.44,3.45-3.53,4.08l2.07-2.24c-1.13,1.74.21,1.09,1.91.13,1.66-.98,3.66-2.3,3.86-1.7,1.21-2.04,3.53-4.04,5.95-6.48,2.45-2.41,4.99-5.29,6.67-8.77,1.18-1.22-.56,1.36.18.8.4-.91.87-1.88,1.61-3.02.37-.57.8-1.2,1.3-1.89.49-.7,1.04-1.48,1.68-2.35l-.17.47c3.29-5.1,5.56-8.79,7.84-12.7,2.29-3.91,4.62-8.03,7.46-14.26l-.91.71c1.25-2.65,1.6-3.18,2.25-4.4.23-1.72-.54.19-1.34,2.13-.85,1.92-1.74,3.85-1.55,2.27.65-.77,1.5-2.34,2.35-4.33.87-1.95,1.84-4.41,2.53-6.86,1.47-4.9,2.24-9.72,3.1-10.93.65-4.51-.82,1.22-.18-3.27.17-.38.33-.76.49-1.15l-.32-1.19c.42-2.93.92-4.39,1.25-4.48-.1.72-.1,2.05-.14,2.82.19-.95.33-2.11.45-3.32.1-1.22.16-2.49.2-3.69.06-2.4.05-4.48.13-5.13-.11,1.44-.27,2.89-.41,4.33.17-6.16.29-12.98.11-19.74-.15-6.74-.65-13.49-1.64-19.35l-.17.92c-.71-4.48-.91-6.27-1.07-8.19-.17-1.92-.32-3.96-1.33-8.83l.13.34c-.63-1.91-1.27-4.48-1.84-7.14.86,2.38-.49-4.74.59-1.6-1.38-4.74-1.86-5.87-2.19-6.6-.37-.72-.67-1.05-2.03-4.02v-1.55c-1.03-2-1.27-2.12-2.96-6.76,1.68,3.72-.41-3.21,1.55.94-1.22-5.1-2.88-8.65-4.27-11.51-1.41-2.86-2.54-5.04-2.98-7.51-1.61-1.9-.73.21.3,2.51,1.03,2.31,2.17,4.85,1.53,3.66.53,2.21-2.36-3.27-3.74-6.22-.73-1.49-1.04-2.92-1.69-4.9-.65-1.98-1.66-4.52-3.92-8.08.44.71.55.71.99,1.42-1.4-2.85-3.66-4.98-5.45-8.42-1.83-1.35-2.89-4.09-3.99-4.05,1.55,2.03,3.12,4.05,4.62,6.13-2.68-3.45-5.9-6.12-9.91-12.04.5.31,2.02,1.82,3,2.92-1.04-1.85-2.62-3.06-3.76-4.93,1.13-.12,5.99,7.15,9.2,10.6-.51-1.03-1.93-2.74-2.97-3.99-1.06-1.25-1.72-2.08-.61-1.45-1.54-.96-2.74-2.63-4.17-4.5-1.39-1.9-3.02-3.99-5.23-5.84l.66-.08c-.63-.64-2.09-1.84-3.17-3.09l2.53,1.76c-3.51-3.04-5.53-6.99-8.89-9.91,3.26,3.29,3.43,3.85,3.19,3.87-.26.04-1.02-.37.17,1.2-2.06-1.97-3.35-3.26-4.22-4.29-.88-1.03-1.32-1.79-1.83-2.57-1-1.55-2.04-3.34-6.84-7.58,1.32,1.12,4.53,4.67,2.37,3.02-.85-.87-1.83-1.89-2.7-2.85-.9-.94-1.69-1.81-2.15-2.42-6.46-5.48.62,1.27-2.33-.84-1.77-2.36-3.32-2.51-6.34-4.65l.34-.46c-3.62-3.18-4.37-3.27-4.93-3.38-.59-.08-1.04-.14-4.4-2.87l3.41,1.54-3.76-2.52,1.13.03c-4.27-2.5-5.46-3.47-9.39-6.28.71.96-1.07.48-4.69-1.75-2.3-1.81,1.69.36-3.54-2.67,1.35.4,2.9.76,4.84,2.62.33-.01,1.33.42,1.67.41-2.44-2.03-6.69-4.23-8.62-5.29.73.43,1.59.96,2,1.3-2.67-1.25-5.35-2.46-8.07-3.57-1.13-.83-.08-.47.97-.11-1.61-.78-2.81-1.13-5.19-2.22.8-.1.89-.65,4.3.87-1.27-.59-2.58-1.12-3.88-1.66-1.29-.55-2.6-1.08-3.92-1.57-.42-.43-3.73-2.27-2.66-1.98-4.21-2.14-10.99-3.5-16.89-5.49-.34,0-.99-.08-2.29-.36-2.82-.79-5.5-1.54-8.38-2.1-2.87-.57-5.95-.91-9.49-.79-1.31-.3-2.69-.66-3.99-.9-5.38.29,5.27.94-3.66,1.42-6.31.4-2.38-.67-4.61-.81-1.57.3-3.71.74-6.18,1.06-2.47.36-5.26.72-8.19.66,1.9-.34,3.42-.37,5.2-.61ZM102.58,19.23c1.13-.62,3.33-1.97,4.32-2.04-1.09,1.18-2.24,1.34-4.32,2.04ZM25.94,81.95c.4-.88,1.26-2.07,2.44-3.26-.7.98-1.47,2.1-2.44,3.26ZM99.87,318.41c-.05-.02-.09-.03-.13-.05-2.26-1.62-1.47-1.04.13.05ZM104.76,321.47c.54.21.55.12.37-.06-.42-.07-1.56-.69-2.83-1.44.28.33.89.78,2.46,1.5ZM313.7,95.51l-.47-1.03c1.49,2.07.99,1.54.47,1.03Z"/>
            <path class="green-1" d="M32.11,72.37c.3-.22.45-.24.58-.23.24-.45.16-.53-.58.23Z"/>
            <path class="green-1" d="M207.68,4.56l.2.06c.12,0,.19-.02.23-.05h-.42Z"/>
            <path class="green-1" d="M36.48,263c-.6-1.06-.89-1.69-1.04-2.12-.15.02.05.55,1.04,2.12Z"/>
            <path class="green-1" d="M133.16,332.51l-3.54-1.01c1.7.53,2.27.84,3.09,1.21-.04-.15-.65-.55.45-.2Z"/>
            <path class="green-1" d="M164.05,341.92c.55-.03,1.16.08,1.71.05l-.13-.27c-2.33-.15-3.97-.06-1.57.23Z"/>
            <path class="green-1" d="M135.89,335.3c.07.27.69.53,1.59.79.91.25,2.1.6,3.39.81-.15-.03-.3-.07-.45-.1.46-.25,0-.43-.91-.69-.91-.26-2.27-.54-3.62-.81Z"/>
            <path class="green-1" d="M141.47,337.01c.79.15,1.59.32,2.35.51.36-.19-.94-.27-2.35-.51Z"/>
            <path class="green-1" d="M111.4,324.56c1.05.65.96-.22,1.5.25,1.47.11-7.62-2.99-1.5-.25Z"/>
            <polygon class="green-1" points="137.5 337.39 136.75 336.56 135.2 336.61 137.5 337.39"/>
            <path class="green-1" d="M118.06,330.16l3.81,1.75c-.02-.11.5.02,1.13.2-2.42-.92-4.96-2.17-4.94-1.96Z"/>
            <path class="green-1" d="M123.01,332.11c1.26.48,2.46.91,3.2,1.08-.68-.25-2.16-.77-3.2-1.08Z"/>
            <polygon class="green-1" points="131.94 335.92 130.79 335.41 127.98 334.45 131.94 335.92"/>
            <path class="green-1" d="M79.6,306.99c-1.21-.93-2.46-1.8-3.64-2.78-.48-.16.36.78,1.75,1.78.94.58,2.31,1.59,1.89,1Z"/>
            <path class="green-1" d="M89.81,316.55c-.96-.8-.95-.97-1.42-1.53l-.53.52c.65.34,1.29.69,1.95,1.01Z"/>
            <path class="green-1" d="M78.87,308.69c-.48-.13-5.59-3.78-1-.12.49.14,4.2,2.92,1,.12Z"/>
            <polygon class="green-1" points="34.34 255.91 34.96 256.9 35.89 256.13 34.34 255.91"/>
            <path class="green-1" d="M6.06,201.5c1.4,5.37,1.09,1.03,2.32,5.88.68,1.14-1.02-3.96-.37-2.77-1.38-3.05-1.59-4.82-1.96-3.11Z"/>
            <path class="green-1" d="M8.02,204.61c.21.49.45,1.01.71,1.55-.38-.89-.58-1.3-.71-1.55Z"/>
            <path class="green-1" d="M296.8,289.95c-.85.76-1.74,1.5-2.6,2.24l1.85-1.27c.25-.32.51-.64.75-.97Z"/>
            <path class="green-1" d="M292.7,295.2h-1.11s-1.05,1.91-1.05,1.91c.55-.56,1.61-1.63,2.16-1.91Z"/>
            <path class="green-1" d="M93.01,22.05l-.16.29c.57-.09,1.34-.42,2.85-1.12l-2.7.83Z"/>
            <polygon class="green-1" points="138.47 6.06 137.66 6.22 139.33 6.56 138.47 6.06"/>
            <path class="green-1" d="M178.55,0c-1.66-.02-3.6.24-5.27.32,3.61-.38,5.74.55,5.27-.32Z"/>
          </g>
        </g>
      </g>
    </g>
  </g>
</svg>
