<?xml version="1.0" encoding="UTF-8"?>
<svg id="Layer_2" data-name="Layer 2" xmlns="http://www.w3.org/2000/svg" viewBox="0 0 349.35 340.95">
  <defs>
    <style>
      .pink-1 {
        fill: #fff;
      }

      .pink-2 {
        fill: none;
      }

      .pink-3 {
        fill: #9e2071;
      }
    </style>
  </defs>
  <g id="Layer_1-2" data-name="Layer 1">
    <g id="Artwork_59" data-name="Artwork 59">
      <g>
        <path class="pink-3" d="M261.87,21.64c-21.63-11.49-48.4-18.55-75.14-19.41-15.75-.51-37.49,5.88-54.96,12.24-19.59,7.13-38.07,16.83-54.61,29.15-11.52,8.57-19.76,16.54-29.15,28.46C12.4,117.28-4.34,178.45,7.7,213.49c13.42,39.07,38.49,70.46,73.48,95.39,36.3,25.87,113.85,54.89,188.99-7.32,41.76-34.58,82.06-85.71,78.36-152.22-2.75-49.38-40.14-103-86.67-127.7Z"/>
        <g>
          <path class="pink-2" d="M261.87,21.64c-21.63-11.49-48.4-18.55-75.14-19.41-15.75-.51-37.49,5.88-54.96,12.24-19.59,7.13-38.07,16.83-54.61,29.15-11.52,8.57-19.76,16.54-29.15,28.46C12.4,117.28-4.34,178.45,7.7,213.49c13.42,39.07,38.49,70.46,73.48,95.39,36.3,25.87,113.85,54.89,188.99-7.32,41.76-34.58,82.06-85.71,78.36-152.22-2.75-49.38-40.14-103-86.67-127.7Z"/>
          <g>
            <path class="pink-1" d="M261.59,24.74c-1.31-.78-1.07-.08-1.31-.11,2.28,1.14,1.31-.03,1.31.11Z"/>
            <polygon class="pink-1" points="283.31 37.74 282.84 37.62 286.08 39.56 283.31 37.74"/>
            <path class="pink-1" d="M300.97,53.68c-.49-1.1-2.04-2.61-3.82-4.23-1.82-1.58-3.85-3.3-5.35-4.8l-.4-.61-1.87-.77c3.97,3.27,9.08,7.63,11.44,10.41Z"/>
            <path class="pink-1" d="M308.07,64.28c-.25-.8,1.97,1.9-1.81-2.31.16.23.2.31.28.46.33.39.78.92,1.53,1.85Z"/>
            <path class="pink-1" d="M306.54,62.43c-1.64-1.86.85,1.41,0,0h0Z"/>
            <path class="pink-1" d="M313.88,71.25c-.72-.82-1.46-1.63-2.23-2.41.29.64,2.01,2.98,1.24,2.21,2.13,2.58,1.88,1.92.98.2Z"/>
            <path class="pink-1" d="M316.23,73.37l-1.12-1.29c.11.29.36.66,1.12,1.29Z"/>
            <path class="pink-1" d="M312.74,69.36c.81.89,1.58,1.81,2.38,2.72-.18-.46,0-.67-1.07-1.27.37.09-.23-.35-1.31-1.45Z"/>
            <path class="pink-1" d="M311.57,67.69c-1-1.55-2.4-3.5-.12-1.09-2-2.43-3.05-3.3-3-3.04.02.28,1.14,1.7,3.11,4.13Z"/>
            <path class="pink-1" d="M302.43,53.96c-.51-.66-1.02-1.33-1.55-1.96l-1.72-1.33c.43.33,1.24,1.22,1.94,1.99.7.78,1.28,1.45,1.33,1.3Z"/>
            <path class="pink-1" d="M324.85,88.4c.26.09-.14-1.19-.07-1.52-.46-.66-.96-1.3-1.44-1.95.57,1.11,1.67,3.19,1.51,3.47Z"/>
            <path class="pink-1" d="M324.77,86.88l2.09,2.98c-1.6-2.82-2.02-3.25-2.09-2.98Z"/>
            <path class="pink-1" d="M317.33,73.3c-1.37-1.48-2.72-2.96-4.11-4.4,1.61,1.76,3.23,3.51,4.78,5.34l-.67-.94Z"/>
            <path class="pink-1" d="M331.32,100.54c-.4-.56-.84-1.1-1.27-1.65.75.98,1.44,1.99,2.14,3l-.87-1.35Z"/>
            <path class="pink-1" d="M335.11,108.83c-.89-1.26.23,2.13-.56.74.95,2.27,2.02,4.11,2.87,5.82-.78-1.86-1.56-3.86-2.32-6.56Z"/>
            <path class="pink-1" d="M338.84,118.28c-.38-.94-.9-1.87-1.41-2.89.42.99.91,1.93,1.41,2.89Z"/>
            <path class="pink-1" d="M329.75,95.31c.03.3.02.91.83,2.77l-.2-1.5c-.19-.39-.41-.83-.64-1.28Z"/>
            <path class="pink-1" d="M330.38,96.54v.05c.69,1.39,1.17,2.35,1.37,2.76-.17-.35-.59-1.2-1.37-2.81Z"/>
            <path class="pink-1" d="M329.59,94.99c.06.12.1.2.16.32-.02-.14-.04-.23-.16-.32Z"/>
            <path class="pink-1" d="M322.35,81.44c1.38,1.65,3.99,5.3,2.07,1.4-1.11-1.12,0,1.1-2.07-1.4Z"/>
            <path class="pink-1" d="M329.3,93.14c-.59-1.14-1.15-2.31-1.77-3.44-.08.13.11.83-.55-.02.81,1.13,1.54,2.3,2.31,3.46Z"/>
            <polygon class="pink-1" points="330.34 94.73 329.3 93.14 329.94 94.42 330.34 94.73"/>
            <path class="pink-1" d="M337.07,111.95c.83,1.46,1.4,3.18,2.14,5.1-.65-2.1-1.33-4.27-2.15-6.27-.26-.23-.87-1,.01,1.18Z"/>
            <path class="pink-1" d="M334.08,104.36c.05.1.12.23.17.33-.05-.23-.11-.4-.17-.33Z"/>
            <path class="pink-1" d="M344.24,136.53c.01-.12.02-.22.04-.33-.03-.02-.06-.03-.1-.06l.06.39Z"/>
            <path class="pink-1" d="M337.01,110.4c-.51-1.58-.99-2.45-1.52-3.25.55,1.11,1.05,2.32,1.57,3.63.12.1.17.11-.05-.38Z"/>
            <path class="pink-1" d="M340.71,123.56c-.12-.86-.31-1.81-.55-2.81.12.84.36,2.55.55,2.81Z"/>
            <path class="pink-1" d="M334.34,105.25c-.04-.07-.08-.14-.12-.22.12.54.14.46.12.22Z"/>
            <path class="pink-1" d="M334.34,105.25c.4.75.78,1.32,1.15,1.89-.43-.91-.85-1.75-1.24-2.46.05.2.08.41.09.57Z"/>
            <path class="pink-1" d="M348.31,142.17c-.47-.25-1.45-4.56-1.72-8.39-1.09-3.62-2.07-.87-2.31,2.42.22.08.4.04,1.27,3.75.02-.67-.17-2.78-.25-4.34-.14-1.55-.15-2.55.38-1,.59,2.47.67,3.52.7,4.24,0,.72-.06,1.12-.05,2.36.16-1.08.56.49,1.01,2.2.48,1.7.83,3.56,1.24,2.97-.19-1.49-.48-2.97-.76-4.44.12-.1.52,1.5.5.24Z"/>
            <path class="pink-1" d="M342.83,129.13l-.42-1.5c.31,1.75.51,3.02.58,5.38.73,2.48,1.01,2.98,1.18,3.13-.47-2.51-.92-5.03-1.54-7.51l.19.5Z"/>
            <path class="pink-1" d="M340.52,120.88c.89,1,2.05,4.59,1.98,2.21-1.34-4.43-1.36-2.97-2.38-5.53,2.36,7.04-.91-1.94.44,3.25-.53-1.36-.92-2.6-1.35-3.76.38,1.28.67,2.53.95,3.71,0-.07-.01-.11-.02-.17v-.03s0,0,0,0c-.04-.32-.03-.43.04-.08.01.02.04.11.06.14.08.03.18.14.28.26.55,2.07-.02.36-.28-.26-.03-.02-.07-.06-.1-.06,0,0,0,.02,0,.03.43,1.16.82,2.33,1.18,3.51.36,1.18.78,2.34,1.09,3.54-.14-.77-.36-1.63-.67-2.7-.32-1.07-.65-2.4-1.22-4.04Z"/>
            <path class="pink-1" d="M327.45,85.69c.08.22.04.23.02.27.3.39.43.53-.02-.27Z"/>
            <path class="pink-1" d="M328.75,88.52c-.34-.44-.74-.73-1.59-2.29-.65-1.41.21-.12.31-.27-.64-.87-2.26-3.02-.72-.03l.33.42c.68,1.36,1.4,2.93,1.85,4.15.45,1.22.69,2.03.54,1.82-.03-.98-.08-1.84-.72-3.8Z"/>
            <path class="pink-1" d="M335.76,104.59c.9,1.87,1.8,3.75,2.62,5.66-.26-1.04-.49-2.09-.78-3.12l-.18.25c-1.31-3.3-1.3-2.47-1.66-2.79Z"/>
            <polygon class="pink-1" points="344.1 137.27 343.45 136.56 344.75 139.93 344.1 137.27"/>
            <polygon class="pink-1" points="345.23 145.15 344.74 144.9 345.19 146.96 345.23 145.15"/>
            <path class="pink-1" d="M26.63,257.75l-1.17-1.48c.54.71.89,1.16,1.17,1.48Z"/>
            <path class="pink-1" d="M34.57,268.76l.39.12c-.49-.41-.73-.55-.39-.12Z"/>
            <path class="pink-1" d="M253.85,310.13c-2.47,1.08-5.29,2.1-4.75,2.37h.95c1.5-1.09,2.72-1.81,3.8-2.37Z"/>
            <path class="pink-1" d="M124.22,330.71c.23.13.46.27.7.4.67.05,1.31.09,1.88.1-.78-.11-1.65-.31-2.58-.5Z"/>
            <path class="pink-1" d="M121.73,332.08c-1.1-.48-2.2-.98-3.27-1.52.71.4,1.76.91,3.27,1.52Z"/>
            <path class="pink-1" d="M.53,188.69c-.18-.74-.38-1.48-.53-2.23,0,3.49.28,1.95.53,2.23Z"/>
            <path class="pink-1" d="M330,224.79c-1.15,1.98-2.12,3.52-2.87,4.93.78-1.14,1.49-2.18,2.05-3,.53-.84.85-1.51.82-1.93Z"/>
            <path class="pink-1" d="M34.04,259.02c-.71-.86-1.06-1.2-1.14-1.11.72.9,1.17,1.37,1.14,1.11Z"/>
            <path class="pink-1" d="M323.94,235.5c.23-.33.46-.66.7-.99.73-1.51,1.55-2.98,2.5-4.78-1.1,1.71-2.42,3.63-3.19,5.77Z"/>
            <path class="pink-1" d="M164.91,1.67c.2-.02.43-.06.61-.07.04-.08-.22-.03-.61.07Z"/>
            <path class="pink-1" d="M240.58,14.72c-.71-.24-1.87-.62-2.97-.99.52.22,1.43.48,2.97.99Z"/>
            <path class="pink-1" d="M344.26,177.25c.18-1.69-.02-.27,0,0h0Z"/>
            <path class="pink-1" d="M347.13,169.2c.03.37.07.65.19.7-.11-.15-.17-.4-.19-.7Z"/>
            <path class="pink-1" d="M317.36,251.62s-.05.07-.09.12c.38-.36.32-.3.09-.12Z"/>
            <path class="pink-1" d="M344.81,174.74c-.14.63-.29,1.35-.42,2.14.08-.34.21-.99.42-2.14Z"/>
            <path class="pink-1" d="M344.53,175.05c.09-.58.17-1.03.23-1.47-.06-.22-.13-.04-.23,1.47Z"/>
            <path class="pink-1" d="M343.96,179.59c.15-.96.29-1.85.42-2.71-.08.33-.12.46-.13.37-.07.49-.1,1.2-.29,2.34Z"/>
            <path class="pink-1" d="M44.46,74.16c.08-.08.18-.18.27-.27.9-1.53.46-.89-.27.27Z"/>
            <path class="pink-1" d="M215.77,334.5c.07-.04.12-.05.18-.09-.08.02-.18.05-.25.07l.07.02Z"/>
            <path class="pink-1" d="M209.79,336.62c2.43-1.36,3.94-1.62,5.92-2.14-.8-.23-1.61-.5-2.42-.79l-3.5,2.93Z"/>
            <path class="pink-1" d="M10.78,229.38l1.46,4.23c-3.01-4.54-4.17-8.31-3.17-4.16.87-.03,2.68,3.91,4.62,7.78,1.01,1.92,2.02,3.83,2.88,5.26.88,1.42,1.67,2.3,2.08,2.25l1.16,2.71c-.4-.74-.55-.81-.95-1.54,2.15,5.36,3.11,3.09,6.77,9.41,1.32,2.18,2.15,3.77,1,2.44,1.19,1.49,2.34,2.99,3.55,4.46.96,1.34.5,1.18-.46-.16,1.78,2.28,3.49,4.61,5.32,6.85l-.08-.02c.98.81,3.04,2.74,4.02,3.69,1.21,1.85-.82-.75-.62-.18,1.08,1.18,2.25,2.28,3.4,3.39.49.87,0,.62-.87-.16-.44-.39-.97-.91-1.53-1.5-.55-.59-1.1-1.27-1.61-1.92.78,2.26,1.54,2.94,2.76,4.06.61.56,1.35,1.23,2.28,2.25.92,1.04,2.1,2.37,3.61,4.28-1.08-1.06-2.2-2.08-3.25-3.18.63,1.41,1.67,2.66,2.9,4.12.62.72,1.29,1.5,2.01,2.34.72.85,1.53,1.72,2.34,2.73-.75-1.01-6.15-8.39-2.28-4.87.9,1.17,2.25,2.57,4.48,4.29-.19.21.23.77,1.01,1.58.76.82,1.92,1.84,3.21,2.98l-.68.39c2.9,2.35,2.93,1.87,4.78,3.08,3.1,2.73,3.38,3.72,3.82,4.73,5.02,4.34-2.94-3.62,3.21,1.25,2.08,1.8,3.89,3.29,5.93,4.7,2.06,1.38,4.23,2.82,7.06,4.52,3.04,2.41-.82,0,.2.96,1.06.48,2.1.99,3.18,1.43.7.47.37.47.2.48,2.56,1.36.58-.45,4.54,1.74.74-.04,2.54,1.45,4.9,3.09,1.17.85,2.48,1.72,3.85,2.48,1.36.78,2.76,1.46,4.13,1.85,1.14.8-.8.12-.55.56,3.58,1.45,5.15,1.98,6.54,2.47,1.39.5,2.66.85,5.72,1.67,1.58.86,3.21,1.6,4.82,2.4-3.48-1.95,1.44-.68,5.76.15-1.23-.7-2.26-1.31-2.97-1.67,2.24.6,4.45,1.29,6.71,1.8.76.36.02.4-1.16.37.47.07.92.14,1.27.2,2.3.98.95,1.03-.89.91-.77-.39-1.53-.78-2.26-1.2-1.77-.12-3.47-.17-3.28.36.46.07,1.32.28,2.25.55-.47-.03-.78-.02-.6.12.2.15.95.23,2.1.42l1.28,1.27.47-.2c1.45.52,2.89,1.08,4.35,1.57l4.4,1.43c3.33.35,6.44.57,10.02.72.89.06,1.81.12,2.77.18.96.05,1.96.09,3.02.14,1.05.07,2.15.15,3.31.23,1.16.05,2.38.12,3.68.21-2.62.35-.66.94-.86,1.65-1.38-.52-3.4-.63-5.74-.84-1.17-.09-2.43-.16-3.73-.3-1.29-.17-2.62-.38-3.95-.66,2.77.6,2.1.82,1.37.81,1.61.19,3.23.36,4.85.46,1.62.1,3.23.26,4.85.31-.29.57,2,.65,4.5,1.16-.9-.69.91-.66,3.45-.63,1.27.04,2.71.09,4.09.14,1.38-.01,2.69-.03,3.67-.11.12.2-.06.4-.87.52-.4.06-.97.11-1.73.13-.76.03-1.73,0-2.93-.11,1.31.32,2.41.37,3.39.3.98-.06,1.84-.22,2.69-.39,1.71-.3,3.38-.74,5.98-.44-1.17.04-1.8,0-2.26.22,1.37-.23,3.72-.28,5.54-.31,1.82-.07,3.11-.01,2.33.22l-1.17.1c.97-.06,2.07-.13,3.26-.21.59-.04,1.2-.09,1.83-.14.62-.08,1.26-.16,1.91-.24,1.29-.17,2.63-.35,3.95-.52,1.33-.17,2.62-.48,3.88-.71,1.25-.26,2.45-.52,3.55-.75,1.09-.28,2.08-.58,2.93-.85,1.7-.54,2.83-.99,3.06-1.3.11.11-.71,1.39-1.13,1.69,2.16-1.01,4.23-2.22,6.29-3.37,2.08-1.11,4.07-2.39,6.05-3.64-.89,1.2,4.23,1.64-1.76,4.15.9-.24,1.91-.5,3.15-.9,1.24-.4,2.72-.9,4.48-1.79-1.23.36-3.37-.03-1.78-.72,2.36-.41,3.18-.6,4.12-.84.92-.28,2.02-.49,4.84-1.36-1.81.61-.41-1.49,2.31-2.67-.34.37.78,1.1-.16,1.68,1.04-.72,2.1-1.4,3.11-2.15l3.01-2.28c-1.54,1.06.21,1.15,1.88.71-.41.05,1.05-.64,2.78-1.58,1.71-.96,3.73-2.08,4.56-2.64l-2.9,1.32c1.85-1.01,3.17-1.88,4.21-2.67,1.03-.81,1.76-1.6,2.51-2.35.74-.76,1.47-1.52,2.45-2.37.49-.42,1.04-.87,1.69-1.35.63-.51,1.35-1.05,2.19-1.65-.65.8-1.07,2.83,2.48.49.29-.42.77-1.1,1.38-1.97.62-.86,1.39-1.9,2.24-3.1.86-1.18,1.85-2.46,2.95-3.75.55-.64,1.13-1.29,1.75-1.93.6-.65,1.22-1.31,1.88-1.94l1.32-.6c1.33-1.31,2.62-2.66,3.93-3.98-.97,1.52-2.95,4.3-5.19,7.16-2.26,2.84-4.83,5.76-6.7,7.78,2.66-1.71.97-.18,4.66-3.14,1.54-.75-1.69,2.03-2.77,2.91,2.92-2.23,5.92-4.41,8.73-6.74-.86-.26,5.84-6.07,5.06-6.31-2.78,2.84-5.6,5.62-8.5,8.36-.85-.3,3.88-6.06,9.67-11.14,1.67-1.08-.15,2.02.14,2.11.59-.85,5.07-5.36,5.71-5.71l-2.12,2.55c1.69-1.36,2.79-2.76,3.99-4.22,1.21-1.44,2.51-2.93,4.6-4.52,1.31-1.21,4.45-3.15,4.33-3.69-2.68,1.5-5.05-.04-4.22-1.89.5-.37,6.98-6.18,8.6-7.47,2.47-1.74-1.64,4.42.46,2.95-.09-.22.79-1.62,1.17-2.19,1.37-1.3.01,1.04,2.59-2.13-.16-1.03,5.37-6.33.72-1.91,1.2-1.59,1.89-2.4,2.65-3.26.76-.86,1.63-1.74,3.03-3.63-1.32.86,1.19-4.38,3.27-7.75.03.31.77-.26,1.12-.54,1.18-1.66,2.22-3.12,3.19-4.49.95-1.38,1.83-2.65,2.7-3.91.88-1.25,1.67-2.55,2.54-3.89.88-1.35,1.73-2.82,2.66-4.47.26-.26.89-1.16,1.4-1.8.49-.66.86-1.06.65-.28.39-1.04.61-2.06,1.69-4.15,1.32-1.88.79-.68.15.62-.63,1.3-1.31,2.74-.14,1.39-.24-.47,2.22-5.72,3.31-8.9-1.03.66-3.42,6.92-4.77,10.01-.44-.23-.21-1.75.53-4.11.67-2.39,1.86-5.6,3.21-9.3,2.21-5.84,1.63-2.26,1.93-3.31,1.17-2.7,1.8-4.71,2.22-6.3.44-1.58.63-2.77.8-3.9.18-1.12.35-2.18.7-3.52.32-1.35.79-2.99,1.64-5.27,1.55-3.58,1.26.15,1.91-.56-.53,2.51-1.21,4.36-1.8,6.02-.65,1.64-1.29,3.06-1.81,4.71l1.61-3.96c-.32,1.6-1.17,4.93-2.03,6.61.21-.36.47-.92.78-1.65.29-.73.61-1.63.97-2.66.35-1.03.77-2.17,1.14-3.42.36-1.25.75-2.58,1.15-3.96,1.51-5.53,2.87-11.86,3.79-16.35.1-1.63.16-4.45-.23-3.16-.09.96-.18,1.92-.32,2.87-.47,1.27-.42-.1-.36-1.33.01-1.24.04-2.34-.3-.56.15-3.87.11-8.17.64-13.54l.76-.98c-.23.11-.54,3.51-.5,5.04-.03-1.13.3-3.19.55-5.28.3-2.09.36-4.23-.1-5.47-.18,1.26-.32,2.52-.54,3.78-.12-1.93-.43-4.08-.61-6.33-.28-2.25-.47-4.62-.49-6.99-.58,2.18.13,1.09-.56,4.49.23-.74.37-.35.47.58.05.46.09,1.06.11,1.72,0,.66,0,1.37,0,2.08-.01,2.81-.04,5.41.53,3.07-.5,1.72-.71,3.21-.86,4.83-.13,1.62-.37,3.37-.97,5.58.24-.12.6-1.55.12,2.39.05.19.08.61.1.89-.02.12-.03.16-.05.26.02-.08.04-.14.06-.21.01.18.02.19.02-.08.23-.93.43-1.68.58-1.98.21,1.02.03,3.09-.12,5.2-.14,2.11-.5,4.21-.51,5.3-.5,2.33-.1-1.03-.57.21-.02,1.08-.09,2.16-.18,3.24-.58.22-2.12,5.98-1.3.47-.35,1.63-.66,3.27-1.1,4.88-.51,1.39-.97,3.07-1.49,4.69-.5,1.61-.92,3.19-1.17,4.42-.84,2.2-1.29,5.85-1.05,3.76-.34,1.27-.74,2.51-1.14,3.76-.41,1.24-.77,2.51-1.22,3.74l-.15.02c-2.88,7.17-5.59,15.08-10.83,22.35-.57,1.18-1.2,2.36-1.97,3.7-.76,1.35-1.68,2.87-2.94,4.67l-.84.47c-.82,1.47-2.36,3.48-3.7,5.32-1.36,1.83-2.61,3.45-2.83,4.18-.77.56-1.8,1.63-2.95,3-1.13,1.38-2.45,3.03-3.79,4.74-1.32,1.74-2.76,3.47-4.05,5.09-1.32,1.6-2.58,3.03-3.59,4.11l.3.56c-2.77,3-5.29,5.99-8.71,9.76l.59.15c-2.77,3.45-8.29,7.66-13.44,12.29.22-.47,1.56-1.6,2.56-2.35-3.47,2.34-6.6,5.38-9.72,8.31-1.54,1.5-3.14,2.85-4.7,4.17-1.58,1.3-3.12,2.54-4.79,3.42-1.4,1.24-2.54,1.97-3.68,2.62.14-.1.26-.2.36-.29-.16.11-.39.27-.62.44-.73.39-1.45.84-2.28,1.25.73-.3,1.38-.67,1.94-1.01-1.14.88-2.96,2.07-4.67,3.35l-1.07.02c-.14.1-.26.18-.4.28-1.86.96-1.27,1.14-.11.89-.86.66-1.62,1.31-2.22,1.79-1.94.05-4.7,3.11-7.21,3.36-.53.54-2.87,1.84-5.16,3.18-2.3,1.32-4.62,2.53-4.93,3.24-.12-.09-.72.11.33-.37-1.12.43-2.22.89-3.29,1.34-1.09.42-2.12.87-3.07,1.39l-1.2-.3-2.25,1.4-2.31,1.29c-3.16.59-4.46.76-1.66-.76-3.44,1.64-4.93,2.06-6.25,2.52-.66.23-1.29.44-2.13.76-.42.16-.89.35-1.45.57-.56.2-1.21.43-1.98.71l.2-.52c-1.12.26-2.55.75-3.88,1.16-1.32.44-2.58.65-3.3.6-.66,0-1.54.07-2.61.19-.53.07-1.12.14-1.74.22-.63.06-1.3.12-2,.19-1.41.16-2.97.33-4.64.51-1.67.12-3.45.25-5.29.38-7.36.45-15.79.21-22.31-.85,1.21.81-.31.5-2.2.11-1.9-.35-4.14-.96-4.47-.46-.72-.43-2.51-.87-.35-.85-3.36-.27-5.81-.95-8.03-1.39-2.21-.5-4.15-.96-6.53-1.03-.67-.49,1.51-.13.89-.48-.55-.03-2.14-.25-2.77-.61-.61-.36,1.02-.01,2.08.12-6.63-1.66-7.56-1-8.31-.24-3.24-1.41-4.89-1.96-7.5-2.19-.53-.34-1.25-.76-1.31-.93-.07-.17.49-.06,2.54.57-1.15-.38-4.57-1.77-7.74-3.04-1.57-.66-3.1-1.28-4.26-1.69-1.15-.45-1.94-.68-2.07-.53-.61-.49-3.06-1.43-3.66-1.66-2.43-1.22-3.75-1.87-5.03-2.59-1.28-.71-2.59-1.34-4.92-2.65l1.23.84c-1.13-.12-2.13-.63-3.31-1.36-1.18-.73-2.51-1.74-4.38-2.81h.15c-3.98-2.94-4.87-3.51-5.77-4.05-.45-.27-.9-.53-1.7-1.13-.79-.61-1.94-1.56-3.79-3.15l.09.77c-1.48.45-6.51-5.75-11.08-9.07l1.36,1.57c-1.31-.84-2.71-2.56-4.04-4.32-1.32-1.77-2.51-3.66-3.61-4.74-.43-.53.9.59,1.64,1.16-2.74-2.98-3.06-3.01-3.26-2.8-.2.21-.31.7-2.52-1.36-.52-1.06,1.72.27-1.11-2.61-1.28-1.53-9.09-7.55-12.11-12.28.57,1.11,1.14,2.23-.88.26-1.39-1.64-3.02-4.06-4.63-6.41-1.55-2.4-3.18-4.65-4.69-5.96-.24-.5-.29-.71-.24-.78-1.01-1.29-2.65-3.4-4.12-5.43-1.44-2.05-2.83-3.94-3.58-4.65-.01-.88-.63-2.43-1.63-4.22-.49-.9-1.07-1.87-1.69-2.86-.59-1.01-1.19-2.05-1.79-3.06-2.46-4.04-4.42-7.92-3.62-8.24l-1.08-2.28c-.35-.76-.66-1.54-1-2.31l-1.97-4.64.27.18c-1.09-3.03-1.89-5.06-2.61-6.57-.36-.74-.66-1.37-.93-1.94-.28-.56-.55-1.06-.82-1.57-.31-1.44.16-.46.29-.37-.51-2.26-.88-4.01-1.11-5.5-.13-.74-.26-1.42-.37-2.05-.1-.64-.19-1.23-.3-1.81-.11-.58-.23-1.15-.34-1.74-.11-.59-.22-1.2-.34-1.86-.28-1.31-.55-2.82-.87-4.78l.53-.84c-.19-1.06-.08-4.45.27-8.71.35-4.26,1-9.36,1.33-13.96.05.1.13.3.11,1.04.35-5.18,1.96-11.22,3.47-16.39,1.5-5.17,2.87-9.51,2.43-11.65.54-2.23,1.06-4.48,1.68-6.7-3.05,8.39-.45-1.56-1.98,1.8.53-1.68,1.42-3.79,2.05-4.94.63-1.15.95-1.36.24.68l-.32.6c.24.93,1.28-1.64,2.38-4.37,1.12-2.72,2.32-5.58,2.61-5.33,3.38-8.08,7.33-15.8,11.63-23.13,4.31-7.33,9-14.25,13.83-20.85l-1.8,1.03c1.14-1.53,2.25-3.09,3.44-4.58,1.08-1.07,1.75-1.19-.74,2.02,1.68-1.41,3.82-5.67,3.78-5.87,5.29-5.99-1.18,3.04.38,1.16l2.03-2.62-.55.51c1.44-2.29,1.28-2.75,4.55-6.39,2.2-2.18,1.45-.82,2.3-1.69.04.05.34-.23,1.29-1.34,1.66-1.7,3.37-3.36,5.12-4.97l-2.53,1.49c2.04-2.47,4.96-4.58,1.99-2.91,2.17-1.25,7.25-5.59,12.46-9.46,5.17-3.92,10.35-7.43,11.71-8.07,3.49-2.84,7.29-5.15,12.11-7.75-1.25.55-2.36.25,1.86-1.93-.39,1.1,1.59.22,4.18-.99,1.3-.6,2.75-1.26,4.12-1.83,1.38-.55,2.68-.99,3.66-1.14-1.7.38,1.31-1.08,4.13-2.41,2.81-1.33,5.43-2.52,2.75-1.99,3.7-1.39.45.45,3.35-.35,8.47-4.04,19.55-6.85,30.62-10.07.12-.25-1.83-.04.49-.99,2.06-.18,4.12-.36,6.17-.47,2.19-.61,1.79-1.65,6.01-1.75-.61-.06-1.52-.16-.03-.5,5.6-.78,11.27-1.49,16.89-1.43,5.69.11,11.53.49,17.29,1.14,11.54,1.3,23.04,3.94,33.63,8.4-2.82-1.37-.85-.75,1.41,0-1.43-.58.19-.47,0-.83,1.49.62,2.96,1.28,4.42,1.97,1.47.66,2.91,1.37,4.35,2.09.48-.01,1.32.2,2.32.57,1,.38,2.16.88,3.3,1.37,2.27,1.01,4.42,2.05,5.04,1.93l-2.82-1.18c2.02.47.95-.57-.53-1.84-1.49-1.23-3.41-2.65-2.92-3.05-1.15-.25-2.42-.69-3.76-1.31-1.34-.64-2.81-1.34-4.36-2.08-3.1-1.49-6.67-2.91-10.51-3.32-1.54-.71,1.47.07.69-.44-.99-.06-2.05-.21-3.39-.51-1.33-.3-2.92-.79-4.99-1.39h.5c-5.9-1.42-10.14-2.3-14.58-3.19-1.11-.22-2.23-.43-3.4-.66-1.17-.2-2.38-.4-3.66-.61-1.28-.23-2.64-.4-4.11-.59-.73-.1-1.49-.2-2.27-.3-.79-.08-1.61-.16-2.46-.25l.97.63c-2.92-.29-3.52-.53-4.89-.72-1.7.36.36.42,2.44.6,2.09.18,4.21.37,2.64.72-.94-.34-2.7-.66-4.86-.84-1.08-.09-2.25-.16-3.47-.23-1.22-.06-2.53-.05-3.81-.06-5.11.11-9.95.76-11.36.35-4.5.7,1.41.4-3.07,1.15l-1.24-.13-1.04.65c-2.91.52-4.47.41-4.64.16.71-.14,1.99-.51,2.74-.7-3.89.35-10.54,2.63-11.83,2.88,1.41-.31,2.83-.63,4.25-.9-11.87,3.33-26.18,7.74-36.89,13l.93-.1c-4.08,1.97-5.75,2.67-7.54,3.37-1.79.71-3.7,1.44-8.09,3.77l.29-.22c-1.65,1.14-3.94,2.48-6.34,3.77,1.03-.73-.08-.31-1.1.09-1.02.4-1.96.75-.6-.21-4.17,2.64-5.12,3.41-5.74,3.93-.6.55-.82.93-3.3,3.06l-1.49.44c-1.64,1.53-1.69,1.78-5.7,4.68,3.12-2.64-2.97,1.27.48-1.75-4.57,2.57-7.54,5.11-9.92,7.2-2.39,2.11-4.19,3.77-6.47,4.82-1.42,2.04.39.66,2.35-.93,1.96-1.59,4.11-3.36,3.14-2.42,1.99-1.09-2.54,3.13-5.03,5.22-1.25,1.09-2.56,1.75-4.31,2.88-1.75,1.13-3.95,2.76-6.82,5.85.58-.61.55-.71,1.13-1.32-2.4,2.09-3.88,4.82-6.73,7.46-.82,2.12-3.19,3.86-2.85,4.93,1.53-2.05,3.08-4.09,4.7-6.08-2.64,3.49-4.35,7.31-8.99,12.75.18-.56,1.21-2.44,2.01-3.67-1.51,1.49-2.24,3.36-3.76,4.94-.19-.51,1.12-2.45,2.81-4.74.86-1.14,1.79-2.37,2.66-3.58.89-1.19,1.7-2.36,2.31-3.37-1.77,1.48-4.93,7.38-4.29,4.9-.26.87-.71,1.7-1.29,2.55-.56.86-1.23,1.74-1.95,2.67-1.47,1.84-3.04,3.99-4.24,6.59l-.25-.62c-.43.8-1.22,2.51-2.13,3.88l1.03-2.91c-1,2.1-2.34,3.88-3.62,5.68-1.31,1.77-2.6,3.55-3.56,5.55,2.31-4.02,2.78-4.35,2.88-4.11.11.24-.08,1.08,1.11-.48-1.35,2.51-2.23,4.11-3.01,5.22-.77,1.11-1.36,1.76-1.98,2.45-1.24,1.38-2.67,2.86-5.46,8.64.7-1.59,3.29-5.62,2.26-3.1-1.25,2.09-2.85,4.88-3.77,6.1-3.51,7.72,1.05-.94-.17,2.47-1.82,2.33-1.51,3.88-2.76,7.36l-.53-.2c-2.05,4.36-1.97,5.09-1.91,5.67.07.58.17,1.05-1.56,5.02l.56-3.7-1.41,4.3-.27-1.1c-1.24,4.8-1.83,6.2-3.48,10.76.71-.95.79.91-.39,4.99-1.08,2.72-.1-1.72-1.59,4.15.02-1.4-.06-2.99,1.18-5.38-.1-.31.04-1.39-.05-1.71-.64,1.45-1.21,3.35-1.65,5.16-.47,1.8-.81,3.51-1.06,4.59.22-.82.48-1.8.69-2.28l-.65,4.37c-.21,1.46-.36,2.92-.54,4.38-.49,1.31-.43.21-.37-.9-.33,1.76-.27,3.02-.7,5.61-.33-.75-.84-.67-.36-4.38-.36,2.8-.7,5.59-.93,8.4-.31.52-1.11,4.22-1.14,3.11-.88,4.65-.26,11.54-.5,17.77.09.32.19.97.28,2.3.03,1.47.07,2.9.1,4.33.09,1.43.15,2.86.28,4.32.33,2.91.81,5.98,2,9.33.03.68.05,1.37.1,2.06l.21,2.06c.93,2.66.76,1.25.75.3,0-.47.03-.84.26-.53.22.3.62,1.28,1.48,3.33,2.42,5.85.16,2.46.71,4.64,1.55,2.81,4.35,7.54,6.26,13.07-.95-1.68-1.48-3.11-2.29-4.72ZM48.03,283.82c-.97-.85-3-2.46-3.4-3.37,1.48.62,2.03,1.65,3.4,3.37ZM133.15,334.53c-.97-.06-2.37-.52-3.88-1.22.58.15,1.19.33,1.84.54.65.19,1.33.41,2.04.68ZM341.09,195.59c0,.05,0,.09,0,.14-.98,2.61-.62,1.69,0-.14ZM342.7,190.05c.04-.58-.04-.56-.17-.34.08.43-.25,1.68-.63,3.11.24-.36.53-1.06.8-2.77ZM59.21,62.45l-.88.72c1.62-1.96,1.24-1.34.88-.72Z"/>
            <path class="pink-1" d="M122.06,331.93c-.31-.21-.37-.34-.42-.47-.51-.07-.55.03.42.47Z"/>
            <path class="pink-1" d="M.63,189.1v-.2c-.03-.11-.07-.17-.1-.2l.1.41Z"/>
            <path class="pink-1" d="M304.57,271.46c-.86.86-1.39,1.3-1.77,1.57.06.14.51-.2,1.77-1.57Z"/>
            <path class="pink-1" d="M345.28,159.74l.06,1.84v1.84c.06-1.78.18-2.41.27-3.3-.13.08-.33.78-.33-.37Z"/>
            <path class="pink-1" d="M345.21,127.46c-.2-.52-.27-1.13-.48-1.64l-.21.21c.56,2.26,1.15,3.81.69,1.43Z"/>
            <path class="pink-1" d="M347.18,156.33c.51-.3.25-2.64.07-5.24,0,.16.01.31.02.46-.71-.74-.34,2.02-.09,4.78Z"/>
            <path class="pink-1" d="M347.21,150.48c-.05-.8-.1-1.62-.15-2.4-.31-.28.06.97.15,2.4Z"/>
            <path class="pink-1" d="M343.79,182.82c.32-1.19-.47-.86-.17-1.51-.19-.72-.34,1.31-.35,2.7,0,.7,0,1.23.08,1.17.09-.05.25-.7.43-2.37Z"/>
            <path class="pink-1" d="M348.7,154.18l-.55.95c.18.49.32.97.48,1.46.05-.81.07-1.61.07-2.42Z"/>
            <path class="pink-1" d="M347.34,174.87c.25-1.38.39-2.77.57-4.16-.1.05-.12-.48-.1-1.14-.13,1.28-.26,2.63-.37,3.64-.12,1.01-.2,1.69-.1,1.65Z"/>
            <path class="pink-1" d="M347.81,169.58c.06-.67.12-1.32.16-1.9.02-.58,0-1.09-.02-1.47,0,.73-.1,2.29-.14,3.37Z"/>
            <path class="pink-1" d="M348.9,159.93l-.13,1.24c-.02.99-.11,1.98-.16,2.97.12-1.4.25-2.8.29-4.21Z"/>
            <path class="pink-1" d="M335.52,218.18l-1.71,4.25c0,.51.61-.58,1.23-2.17.32-1.06.94-2.64.47-2.08Z"/>
            <path class="pink-1" d="M341.97,205.77c-.51,1.15-.65,1.19-1.06,1.79l.64.37c.16-.71.28-1.44.42-2.16Z"/>
            <path class="pink-1" d="M337.36,218.43c0,.5-2.2,6.38.14.99.04-.5,1.62-4.86-.14-.99Z"/>
            <polygon class="pink-1" points="298.32 275.43 299.11 274.57 298.11 273.88 298.32 275.43"/>
            <path class="pink-1" d="M253.68,317.48c2.4-1.38,2.58-1.71,2.7-2,.06-.14.11-.28.42-.52.31-.24.88-.6,1.94-1.27.45-.49-.42.04-1.29.57-.89.49-1.77.99-1.28.53-2.63,2.05-4.2,2.86-2.48,2.69Z"/>
            <path class="pink-1" d="M256.16,314.79c.42-.33.87-.67,1.32-1.08-.75.61-1.11.88-1.32,1.08Z"/>
            <path class="pink-1" d="M252.03,20.02l3,1.68-1.83-1.31c-.39-.12-.77-.26-1.17-.37Z"/>
            <path class="pink-1" d="M258.37,22.08l.38,1.05,2.16.33c-.71-.32-2.08-.95-2.54-1.38Z"/>
            <path class="pink-1" d="M53.94,291.87l.32.05c-.27-.52-.85-1.12-2.02-2.31l1.69,2.26Z"/>
            <polygon class="pink-1" points="23.55 254.41 23.98 255.12 23.73 253.44 23.55 254.41"/>
            <path class="pink-1" d="M4.81,218.4c.56,1.56,1.32,3.37,1.95,4.91-1.45-3.33-1.28-5.64-1.95-4.91Z"/>
          </g>
        </g>
      </g>
    </g>
  </g>
</svg>
