<?xml version="1.0" encoding="UTF-8"?>
<svg id="Layer_2" data-name="Layer 2" xmlns="http://www.w3.org/2000/svg" viewBox="0 0 350.25 324.04">
  <defs>
    <style>
      .purple-1 {
        fill: #433c59;
      }

      .purple-2 {
        fill: #fff;
      }

      .purple-3 {
        fill: none;
      }
    </style>
  </defs>
  <g id="Layer_1-2" data-name="Layer 1">
    <g id="Artwork_59" data-name="Artwork 59">
      <g>
        <path class="purple-1" d="M337.15,96.26c-9.6-22.02-26.05-43.67-46.45-60.44-12.02-9.88-33.16-17.96-50.92-23.48-19.93-6.2-40.62-9.72-61.48-10.02-14.52-.21-26.09,1.07-41.08,4.76C80.33,21.07,28.02,58.95,15,93.66.48,132.36.02,172.06,11.47,212.65c11.88,42.12,54.06,111.54,152.83,108.01,54.89-1.97,119.24-17.79,158.96-72.15,29.49-40.36,34.53-104.89,13.89-152.25Z"/>
        <g>
          <path class="purple-3" d="M337.15,96.26c-9.6-22.02-26.05-43.67-46.45-60.44-12.02-9.88-33.16-17.96-50.92-23.48-19.93-6.2-40.62-9.72-61.48-10.02-14.52-.21-26.09,1.07-41.08,4.76C80.33,21.07,28.02,58.95,15,93.66.48,132.36.02,172.06,11.47,212.65c11.88,42.12,54.06,111.54,152.83,108.01,54.89-1.97,119.24-17.79,158.96-72.15,29.49-40.36,34.53-104.89,13.89-152.25Z"/>
          <g>
            <path class="purple-2" d="M335,98.51c-.54-1.43-.78-.73-.95-.9,1.07,2.31,1.05.79.95.9Z"/>
            <path class="purple-2" d="M343.78,122.25l-.29-.39c.43,1.18.9,2.36,1.29,3.56-.3-1.06-.67-2.11-1-3.16Z"/>
            <path class="purple-2" d="M347.36,145.77c.36-1.16.08-3.31-.26-5.7-.18-1.19-.43-2.44-.62-3.65-.19-1.22-.36-2.4-.47-3.45l.08-.72-.97-1.78c1.04,5.04,2.2,11.66,2.25,15.3Z"/>
            <path class="purple-2" d="M346.09,158.47c.31-.78.32,2.72.06-2.93-.03.28-.05.37-.08.53.01.51.02,1.21.01,2.4Z"/>
            <path class="purple-2" d="M346.08,156.07c-.06-2.48-.25,1.63,0,0h0Z"/>
            <path class="purple-2" d="M346.12,167.54c-.06-1.1-.08-2.19-.16-3.28-.2.68-.39,3.58-.47,2.49.01,3.35.23,2.68.63.79Z"/>
            <path class="purple-2" d="M346.57,170.68c0-.57,0-1.14-.02-1.71-.09.29-.13.74.02,1.71Z"/>
            <path class="purple-2" d="M346.44,165.36l.1,3.61c.16-.47.43-.51-.02-1.66.23.31.03-.42-.08-1.95Z"/>
            <path class="purple-2" d="M346.62,163.32c.21-1.84.36-4.22.6-.92.01-3.15-.23-4.49-.36-4.26-.07.12-.13.62-.16,1.5-.05.87-.09,2.11-.08,3.68Z"/>
            <path class="purple-2" d="M348.31,146.92l.06-2.51-.5-2.12c.28,1.06.2,4.8.44,4.62Z"/>
            <path class="purple-2" d="M343.56,187.74c.14.23.64-1.01.91-1.21.05-.81.14-1.61.17-2.42-.29,1.22-.8,3.52-1.08,3.64Z"/>
            <path class="purple-2" d="M344.47,186.52c-.1,1.21-.17,2.42-.29,3.63.58-3.19.51-3.8.29-3.63Z"/>
            <path class="purple-2" d="M347.45,171.33c-.04-2.01-.23-4.01-.34-6.01.11,2.38.25,4.77.26,7.16l.08-1.15Z"/>
            <polygon class="purple-2" points="340.71 201.2 340.82 199.13 340.52 202.8 340.71 201.2"/>
            <path class="purple-2" d="M338.27,209.98c.14-1.53-1.19,1.78-.9.21-.68,2.37-1.13,4.44-1.54,6.31.28-.97.61-1.96,1.02-3.02.41-1.06.84-2.22,1.42-3.5Z"/>
            <path class="purple-2" d="M335.03,219.62c.3-.97.57-1.98.8-3.11-.28,1.04-.58,2.05-.8,3.11Z"/>
            <path class="purple-2" d="M342.87,196.19c-.17.25-.56.72-1.12,2.67l.8-1.27c.1-.42.21-.9.32-1.39Z"/>
            <path class="purple-2" d="M342.58,197.53l-.03.05c-.34,1.51-.61,2.55-.74,2.99.1-.38.36-1.29.77-3.03Z"/>
            <path class="purple-2" d="M342.95,195.84c-.03.13-.05.22-.08.35.08-.12.11-.2.08-.35Z"/>
            <path class="purple-2" d="M346.1,180.8c0,2.15-.29,6.64.7,2.4-.14-1.57-.7.85-.7-2.4Z"/>
            <path class="purple-2" d="M343.94,194.23l.84-3.78c-.14.05-.47.7-.4-.36l-.44,4.14Z"/>
            <path class="purple-2" d="M343.69,196.12c.08-.63.19-1.25.25-1.88-.1.47-.23.93-.34,1.39l.1.49Z"/>
            <path class="purple-2" d="M337.78,213.64c-.38,1.62-.93,3.36-1.66,5.27.47-.99.86-2.04,1.27-3.08.39-1.04.82-2.07,1.14-3.1-.06-.34-.02-1.33-.75.91Z"/>
            <path class="purple-2" d="M340.36,205.9c-.02.11-.05.26-.08.36.1-.21.17-.38.08-.36Z"/>
            <path class="purple-2" d="M327.38,237.06c.08-.08.16-.15.24-.23-.01-.04-.03-.07-.04-.11l-.21.34Z"/>
            <path class="purple-2" d="M338.73,212.41c.61-1.54.8-2.53.94-3.47-.34,1.19-.71,2.45-1.15,3.79.02.15.06.19.2-.32Z"/>
            <path class="purple-2" d="M333.07,224.87c.44-.74.92-1.59,1.41-2.5-.49.71-1.41,2.17-1.41,2.5Z"/>
            <path class="purple-2" d="M340,206.76c.02-.08.03-.16.05-.24-.25.49-.19.44-.05.24Z"/>
            <path class="purple-2" d="M340,206.76c-.17.84-.23,1.52-.32,2.19.25-.98.46-1.89.61-2.69-.09.19-.2.37-.29.5Z"/>
            <path class="purple-2" d="M326.87,244.01c-.11-.25.34-1.37,1.12-2.79.78-1.42,1.8-3.21,2.99-4.73.74-1.75.47-2.25-.25-2.02-.72.24-1.9,1.2-3.1,2.36.1.19.32.31-1.44,3.7.96-.96,4.79-7.01,3.56-4-2.35,4.52-2.25,3.52-3.78,5.46.81-.73.12.74-.62,2.35-.8,1.57-1.65,3.27-.98,3.06.77-1.3,1.59-2.56,2.29-3.89.16,0-.55,1.49.23.5Z"/>
            <path class="purple-2" d="M331.11,230.5l.63-1.43c-.43.78-.81,1.44-1.28,2.14-.48.69-1.03,1.42-1.74,2.36-1,2.4-1.2,2.9-1.13,3.15.67-1.09,1.29-2.21,1.9-3.33.61-1.13,1.25-2.24,1.8-3.39l-.17.51Z"/>
            <path class="purple-2" d="M334.66,222.7c-.03,1.31-1.37,4.85.07,2.96,1.85-4.24.89-3.14,1.74-5.77-2.66,6.94.54-2.08-1.74,2.78.48-1.38.93-2.6,1.38-3.76-.55,1.21-1.1,2.38-1.64,3.46.04-.06.06-.1.09-.14v-.03s.02,0,.02,0c.18-.27.25-.35.08-.03,0,.03-.03.11-.05.15.05.07.05.22.04.38-.97,1.92-.25.26-.04-.38-.01-.03-.01-.1-.04-.11l-.02.02c-.91,2.29-1.79,4.6-2.83,6.84.37-.69.78-1.47,1.25-2.49.44-1.03.98-2.28,1.67-3.88Z"/>
            <path class="purple-2" d="M347.29,187.33c-.08.22-.12.21-.15.22-.02.49,0,.68.15-.22Z"/>
            <path class="purple-2" d="M346.48,190.34c.04-.55-.1-1.04.24-2.78.4-1.5.24.05.41,0,.04-1.08.24-3.76-.54-.48l-.02.54c-.16.74-.36,1.53-.57,2.29-.23.75-.47,1.47-.68,2.09-.43,1.22-.76,2.01-.74,1.74.61-.77,1.08-1.47,1.9-3.38Z"/>
            <path class="purple-2" d="M341.51,207.16c-.47,2.03-1.07,4.02-1.63,6.03l1.4-2.89-.3.07c1.16-3.36.59-2.73.53-3.21Z"/>
            <path class="purple-2" d="M326.81,237.54l-.05-.97c-.39,1.13-.73,2.31-1.17,3.42.44-.8.82-1.63,1.22-2.45Z"/>
            <polygon class="purple-2" points="322.58 244.29 322.37 243.79 321.39 245.66 322.58 244.29"/>
            <path class="purple-2" d="M1.63,138.26c0-.63.03-1.26.07-1.88-.08.89-.08,1.46-.07,1.88Z"/>
            <path class="purple-2" d="M.71,151.82l.21.34c-.1-.63-.18-.89-.21-.34Z"/>
            <path class="purple-2" d="M147.55,317.61c-2.63-.56-5.5-1.53-5.23-.96l.77.57c1.85.04,3.26.27,4.46.39Z"/>
            <path class="purple-2" d="M31.62,256.26c.1.24.2.5.3.75.51.45,1,.85,1.44,1.22-.54-.58-1.15-1.24-1.74-1.97Z"/>
            <path class="purple-2" d="M28.82,255.82c-.55-1.07-1.15-2.12-1.66-3.21.31.76.85,1.78,1.66,3.21Z"/>
            <path class="purple-2" d="M26.23,68.62l1.04-2.03c-2.25,2.66-1.05,1.66-1.04,2.03Z"/>
            <path class="purple-2" d="M260.24,296.51c-2.13.84-3.86,1.45-5.32,2.09,1.32-.41,2.52-.79,3.48-1.09.94-.33,1.6-.66,1.84-1Z"/>
            <path class="purple-2" d="M6.55,143.98c0-1.12-.06-1.6-.17-1.58-.01,1.15.03,1.81.17,1.58Z"/>
            <path class="purple-2" d="M248.82,301.16c.39-.12.77-.23,1.16-.35,1.51-.73,3.06-1.38,4.93-2.21-1.93.66-4.16,1.36-6.09,2.55Z"/>
            <path class="purple-2" d="M272.38,21.52c.17.11.38.22.53.32.08-.04-.16-.16-.53-.32Z"/>
            <path class="purple-2" d="M324.71,77.64c-.42-.62-1.09-1.64-1.73-2.6.27.49.82,1.26,1.73,2.6Z"/>
            <path class="purple-2" d="M301.31,268.43c1.2-1.2.16-.23,0,0h0Z"/>
            <path class="purple-2" d="M308.64,264.03c-.21.3-.35.55-.3.67.01-.19.12-.41.3-.67Z"/>
            <path class="purple-2" d="M233.68,309.8s-.09.03-.14.04c.52-.06.43-.05.14-.04Z"/>
            <path class="purple-2" d="M303.31,266.83c-.5.4-1.07.87-1.68,1.39.28-.21.79-.64,1.68-1.39Z"/>
            <path class="purple-2" d="M302.9,266.89c.44-.39.78-.7,1.11-.99.1-.21-.08-.12-1.11.99Z"/>
            <path class="purple-2" d="M299.57,270.04c.73-.64,1.41-1.24,2.07-1.82-.26.21-.38.28-.33.21-.35.36-.87.83-1.73,1.61Z"/>
            <path class="purple-2" d="M132.4,6.73c.12-.01.25-.03.38-.05,1.65-.65.91-.42-.38.05Z"/>
            <path class="purple-2" d="M102.42,314.37c.08.02.12.03.2.04-.08-.03-.17-.07-.24-.1l.04.06Z"/>
            <path class="purple-2" d="M96.34,312.52c1.37.21,2.4.47,3.32.79.94.27,1.76.61,2.71,1.01l-1.48-2.05c-1.52.16-3.02.18-4.55.26Z"/>
            <path class="purple-2" d="M7.73,106.31c-.61,1.37-1.07,2.78-1.61,4.17.16-1.35.34-2.6.55-3.64.23-1.04.41-1.88.53-2.43.22-1.11.11-1.07-.81.85.35.27.15,1.42-.13,3.08-.31,1.64-.84,3.75-1.37,5.85-.91,4.24-1.8,8.49-1.03,8.95l-.83,2.83c.16-.83.09-.98.25-1.79-1.72,5.51.33,4.36-.81,11.57-.24,1.26-.43,2.32-.57,2.86-.14.54-.25.54-.27-.34l-.1,5.71c-.17,1.65-.41,1.23-.24-.42-.2,2.89-.21,5.79-.32,8.68l-.04-.07c.23,1.25.61,4.05.76,5.41-.24,2.2-.16-1.1-.36-.54.12,1.6.23,3.19.44,4.78-.33,1.96-.94-2-.8-5.32-.8,2.24-.74,3.25-.48,4.9.12.82.27,1.81.35,3.19.08,1.39.07,3.17.05,5.6-.19-1.51-.37-3.01-.47-4.53-.42,1.49-.44,3.12-.4,5.03.06,1.9.09,4.09.14,6.69.04-.31.07-1.12.12-2.07.08-.96.18-2.06.29-2.96.23-1.8.54-2.77.93-.19,0,.74.02,1.59.1,2.61.1,1.01.32,2.19.63,3.56-.28.04-.31.74-.21,1.86.1,1.12.29,2.65.59,4.35l-.78-.13c.78,3.66,1.11,3.3,1.77,5.41.66,4.08.28,5.03-.03,6.09,1.14,6.55.02-4.68,1.69,2.99.48,2.71.98,5.01,1.66,7.39.74,2.37,1.54,4.85,2.66,7.96.86,3.79-.63-.52-.44.87.53,1.04,1.02,2.09,1.58,3.11.25.8,0,.6-.14.5,1.15,2.66.74.01,2.46,4.21.6.43,1.08,2.72,1.91,5.48.39,1.39.88,2.89,1.47,4.34.29.73.61,1.44.94,2.12.36.67.74,1.31,1.15,1.89.4,1.34-.7-.41-.78.1,1.91,3.37,2.82,4.75,3.61,6.01.78,1.26,1.59,2.31,3.47,4.86.73,1.64,1.55,3.24,2.32,4.86-1.55-3.68,1.57.34,4.46,3.66-.53-1.31-.97-2.43-1.31-3.15,1.38,1.87,2.73,3.75,4.19,5.54.38.76-.23.33-1.14-.42.33.35.64.68.88.94,1.2,2.19.12,1.4-1.26.17-.37-.78-.73-1.56-1.06-2.33-1.32-1.19-2.63-2.28-2.8-1.74.32.34.86,1.03,1.43,1.82-.35-.31-.6-.5-.55-.28.07.24.59.78,1.41,1.61l.23,1.79.5.13c1.59,2.65,3.35,5.18,5.1,7.74,1.22,1.15,2.42,2.24,3.64,3.34,1.23,1.1,2.54,2.15,3.89,3.34,2.73,2.33,5.8,4.94,9.71,8.35-2.28-1.33-1.09.35-1.68.79-1.55-2.5-6.11-5.37-9.59-9.58,1.83,2.17,1.16,1.94.59,1.48,1.14,1.15,2.39,2.21,3.59,3.3,1.2,1.09,2.41,2.17,3.68,3.18-.57.27,1.17,1.76,2.88,3.66-.65-2.13,5.93,4.22,9.32,6.28-.04.46-1.04.2-4.75-2.89,1.79,2.01,3.37,2.81,4.92,3.58,1.57.75,3.18,1.4,5.06,3.23-.96-.68-1.43-1.1-1.93-1.21,2.36,1.41,7.87,5.2,6.36,4.65l-.99-.63c.81.54,1.73,1.16,2.72,1.82,1.02.6,2.12,1.24,3.25,1.91,2.23,1.36,4.72,2.58,7.02,3.69.58.28,1.14.55,1.69.81.56.24,1.11.46,1.63.67,1.05.42,2.01.79,2.85,1.09.84.3,1.55.53,2.1.68.55.13.95.16,1.13.1.03.14-1.42.74-1.93.71,2.36.4,4.74.7,7.07,1.04,2.35.3,4.72.45,7.03.67-1.43.42,2.41,3.88-3.88,2.25,1.72.71,3.85,1.66,7.73,2.39-1.19-.47-2.68-2.05-1-1.65,4.3,2.18,2.98,1.5,8.5,3.6-1.81-.61.56-1.44,3.44-.72-.5.09-.03,1.35-1.13,1.24,1.26.09,2.53.09,3.79.09h3.78c-1.86-.08-.52,1.05,1.08,1.72-.74-.29,6.41.87,8.4,1.01l-3.11-.71c4.17.7,6.3.3,8.39,0,1.05-.16,2.09-.32,3.38-.39,1.29-.09,2.84-.19,4.91-.09-1,.24-2.56,1.59,1.69,1.9.49-.15,1.28-.4,2.29-.73,1.01-.32,2.26-.76,3.66-1.17,2.81-.83,6.23-1.62,9.85-2.08l1.41.32,5.55-.78c-1.7.62-4.95,1.64-8.48,2.54-1.76.48-3.59.89-5.32,1.24-1.73.36-3.36.67-4.72.89,3.15.26.88.44,5.61.35,1.68.34-2.57.58-3.97.62l5.53.04c1.84,0,3.66-.07,5.49-.11-.52-.74,8.33-1.29,7.86-1.95-3.93.58-7.87,1.06-11.83,1.5-.5-.77,6.76-2.45,14.45-2.98,1.99.15-1.35,1.52-1.17,1.76.99-.32,7.28-1.17,8.01-1.07-1.07.27-2.15.51-3.23.75,4.34-.12,6.89-1.76,12.13-1.7,1.78-.19,5.45.21,5.69-.29-3.04-.45-3.99-3.12-2.19-4.07.62.03,9.3-.67,11.38-.67,3.02.14-4.01,2.48-1.44,2.6.07-.23,1.61-.8,2.26-1.01,1.88-.19-.63.84,3.35-.11.51-.9,8.13-1.74,1.75-1.07,1.93-.52,2.96-.76,4.09-.95,1.13-.21,2.36-.38,4.62-1.01-1.57-.12,3.62-2.74,7.34-4.1-.17.26.77.27,1.22.26,1.94-.6,3.67-1.11,5.28-1.57,1.6-.5,3.08-.96,4.54-1.42,2.91-.96,5.76-1.9,9.27-3.37.36-.04,1.41-.36,2.21-.55.79-.21,1.33-.3.68.18.95-.58,1.76-1.23,3.9-2.21,4.44-1.25-4.74,2.25-1.24,1.58.1-.52,5.29-3.11,8.13-4.91-1.22-.13-6.98,3.29-9.96,4.88-.21-.45.92-1.51,2.96-2.9,2.01-1.45,4.95-3.23,8.31-5.29,5.38-3.18,2.69-.74,3.58-1.38,1.29-.71,2.39-1.32,3.32-1.91.92-.6,1.69-1.13,2.36-1.62,1.33-.97,2.24-1.75,3.08-2.54,1.69-1.54,3.2-2.84,7.35-5.38,3.48-1.78.89.92,1.85.78-2.02,1.57-3.68,2.65-5.2,3.53-1.54.86-2.92,1.58-4.37,2.54l3.73-2.09c-1.25,1.06-4.02,3.1-5.73,3.88.77-.3,2.24-1.08,4.07-2.25.92-.58,1.94-1.24,3.04-1.94,1.07-.75,2.2-1.54,3.38-2.36,4.66-3.35,9.74-7.36,13.28-10.28.54-.62,1.3-1.43,1.76-2.01.46-.59.64-.93.08-.57-.66.7-1.39,1.33-2.08,2-1.16.69-.26-.34.56-1.26.83-.91,1.54-1.77.13-.61,1.29-1.44,2.59-3.03,4.1-4.67,1.44-1.72,3.11-3.46,5.02-5.37l1.21-.27c-.12-.03-.79.56-1.53,1.32-.76.74-1.63,1.62-2.08,2.24.67-.92,2.3-2.23,3.8-3.72,1.53-1.45,3.02-3,3.43-4.27l-1.4,1.3-1.45,1.25c2.3-3.12,4.67-7.28,7.69-10.95-1.88,1.29-.6.93-3.3,3.1.65-.42.51-.03,0,.75-.52.77-1.47,1.88-2.37,2.97-1.76,2.19-3.54,4.09-1.55,2.7-1.52.98-2.59,2.02-3.74,3.18-1.16,1.15-2.46,2.35-4.31,3.69.25.05,1.47-.79-1.45,1.91-.08.17-.33.53-.49.75-.09.08-.13.11-.21.17.06-.05.11-.08.18-.13-.1.15-.11.16.07-.05.76-.58,1.4-1.03,1.72-1.15-.52.88-1.94,2.42-3.4,3.95-1.49,1.5-3.06,2.94-3.77,3.77-1.85,1.49.57-.87-.57-.2-.7.82-1.47,1.59-2.2,2.38-.59-.2-5.41,3.32-1.3-.46l-1.94,1.58-2,1.51c-2.5,1.59-5.88,3.81-7.82,5.41-2.04,1.2-4.68,3.76-3.18,2.29-1.05.78-2.17,1.47-3.26,2.21-1.1.72-2.17,1.48-3.3,2.15l-.13-.08c-6.74,3.8-13.79,8.31-22.42,10.79-1.18.57-2.4,1.12-3.84,1.7-1.44.59-3.1,1.23-5.2,1.86l-.96-.15c-3.12,1.3-9.75,2.65-11.01,3.48-.95-.03-2.42.2-4.17.56-.88.19-1.83.41-2.82.67-1,.24-2.04.5-3.1.76-4.23,1.09-8.76,2.17-11.69,2.61l-.11.63c-2.01.37-3.98.71-6.06,1.14-2.09.38-4.3.85-6.8,1.29l.38.48c-4.3,1.04-11.25,1.02-18.16,1.58.46-.24,2.21-.31,3.47-.29-4.18-.26-8.52.27-12.78.7-1.07.11-2.13.23-3.18.32-1.05.07-2.08.13-3.1.17-2.04.07-4.02.09-5.89-.13-1.87.13-3.22.02-4.52-.16.17,0,.33,0,.46-.01-.19,0-.47-.02-.76-.03-.82-.12-1.66-.23-2.57-.36.77.15,1.51.28,2.16.35-.72-.02-1.62-.03-2.62-.03-.99,0-2.07-.07-3.14-.08l-.86-.64c-.17,0-.31-.01-.49-.02-2.07-.37-1.7.13-.62.64-1.08,0-2.08.04-2.85.11-1.6-1.03-5.62-.39-7.79-1.63-1.5.31-10.63-1.46-11.94-.87-.04-.14-.65-.35.49-.09-2.3-.68-4.62-1.23-6.74-1.6l-.78-.97c-1.75-.18-3.53-.3-5.28-.54-2.88-1.44-4.02-2.1-.88-1.61-3.71-.83-5.21-1.21-6.53-1.69-1.32-.45-2.52-.82-5.68-1.66l.47-.29c-2.09-.95-5.74-1.9-6.82-2.87-1.05-.8-2.99-1.92-5.47-3.31-2.41-1.51-5.42-3.17-8.47-5.26-6.18-4.03-12.77-9.29-17.34-14.06.47,1.39-.54.21-1.81-1.25-.63-.73-1.32-1.53-1.93-2.13-.59-.61-1.08-1.03-1.36-.93-.31-.78-1.45-2.23.23-.89-1.22-1.16-2.27-2.19-3.15-3.19-.86-1.02-1.64-1.93-2.37-2.8-1.5-1.7-2.71-3.29-4.55-4.79-.23-.8,1.28.82,1,.17-.4-.37-1.57-1.47-1.83-2.16-.25-.67.78.64,1.58,1.35-2.14-2.67-3.45-4.04-4.43-4.68-.93-.67-1.5-.64-2.02-.58-.83-1.57-1.51-2.69-2.21-3.65-.68-.98-1.4-1.78-2.36-2.68-.41-1.19-1.25-3.06,1.19.48-.31-.52-.98-1.55-1.73-2.84-.75-1.3-1.65-2.83-2.5-4.31-.83-1.5-1.64-2.92-2.3-3.96-.65-1.05-1.1-1.73-1.3-1.7-.17-.77-1.52-3.02-1.85-3.57-1.14-2.47-1.78-3.8-2.34-5.15-.56-1.35-1.2-2.66-2.2-5.13l.44,1.42c-.81-.8-1.27-1.82-1.74-3.13-.47-1.31-.88-2.93-1.67-4.93l.13.09c-1.28-4.78-1.61-5.78-1.98-6.76-.38-.98-.71-1.97-1.58-6.78l-.41.65c-.69-.29-1.13-2.42-1.44-5.19-.17-1.38-.36-2.9-.6-4.42-.25-1.52-.47-3.05-.86-4.42l.07,2.07c-.49-1.48-.5-3.69-.42-5.89.14-2.22.37-4.43.21-5.96,0-.68.33,1.03.55,1.94-.27-4.03-.47-4.27-.75-4.23-.29.03-.67.34-1.09-2.65.27-1.15,1.17,1.3.78-2.72,0-1.01-.52-3.9-1.04-7.24-.29-1.67-.44-3.46-.54-5.18-.08-1.72-.15-3.36.06-4.75-.16.61-.3,1.22-.44,1.33-.14.11-.31-.29-.4-1.69-.02-1.07.04-2.34.14-3.69.09-1.35.21-2.79.39-4.2.33-2.84.47-5.62.21-7.58.13-.54.23-.74.31-.75-.06-3.29.74-10.64.54-12.68,1.24-1.35,1.76-6.41,2.6-11.07.34-2.34.8-4.56,1.23-6.17.43-1.61.85-2.61,1.28-2.47.38-1.64.93-3.23,1.38-4.85.5-1.61.91-3.24,1.48-4.82l.09.31c1.14-3.01,1.76-5.12,2.21-6.7.49-1.55.66-2.68.98-3.77.74-1.28.43-.24.47-.09,2.12-4.12,3.59-6.22,4.74-8.3.61-1.02,1.18-2,1.82-3.19.67-1.16,1.42-2.51,2.44-4.22l.97-.29c.27-.47.95-1.34,1.96-2.48,1.04-1.11,2.31-2.54,3.85-4.03,1.49-1.54,3.2-3.16,4.89-4.87,1.74-1.66,3.44-3.4,5.06-5.06-.02.11-.09.32-.57.88,3.58-3.77,8.63-7.46,13.08-10.51,4.45-3.05,8.23-5.59,9.24-7.52l2.73-2.11,2.78-2.05c-7.65,4.62.63-1.49-2.67.17,2.91-2.02,8.12-4.2,4.45-1.89l-.64.26c-.39.88,2.04-.46,4.6-1.92,2.58-1.41,5.3-2.93,5.38-2.53,15.39-8.44,31.54-14.38,47.28-18.82l-2.06-.3c1.85-.5,3.68-1.05,5.53-1.51,1.51-.18,2.11.12-1.83,1.15,2.19-.11,6.51-2.14,6.59-2.34,7.86-1.5-2.8,1.69-.41,1.15l3.21-.83-.75.07c2.54-.93,2.7-1.39,7.51-2.29,3.08-.39,1.65.24,2.86.06,0,.06.41.02,1.84-.27,2.36-.34,4.72-.64,7.1-.86-.97-.13-1.94-.24-2.92-.34,3.12-.74,6.73-.65,3.34-1.12,2.49.32,9.17-.07,15.66-.02,6.49.01,12.74.33,14.23.62,4.5-.16,8.92.29,14.34,1.11-1.33-.31-2.04-1.22,2.65-.43-.98.66,1.15,1.11,3.94,1.73,2.8.58,6.27,1.35,8.01,2.3-1.59-.71,1.7-.09,4.76.54,3.05.64,5.87,1.23,3.4.06,3.8,1.1.09.62,2.89,1.74,4.61.91,9.54,2.49,14.68,4.34,5.14,1.85,10.47,3.95,15.87,6.01.25-.12-1.44-1.15.98-.5,1.77,1.07,3.51,2.2,5.23,3.32,2.1.85,2.43-.25,5.87,2.2-.45-.41-1.14-1.02.28-.42,4.98,2.71,9.91,5.57,14.48,8.9,2.22,1.67,4.45,3.58,6.64,5.45l3.25,2.89,3.18,2.98c8.35,8.07,15.9,17.15,21.51,27.18-1.41-2.79-.2-1.12,1.11.86-.77-1.34.44-.25.51-.66.78,1.41,1.55,2.83,2.27,4.27.74,1.43,1.46,2.87,2.13,4.33.39.28.9.98,1.48,1.88.55.91,1.15,2.03,1.74,3.12,1.17,2.19,2.19,4.35,2.76,4.64l-1.47-2.68c1.29,1.62,1.1.14.73-1.77-.42-1.89-1.04-4.2-.4-4.2-1.56-1.79-2.74-4.62-4.3-7.69-1.53-3.08-3.47-6.4-6.25-9.09-.8-1.5,1.13.96.81.08-.74-.66-1.52-1.41-2.37-2.48-.43-.53-.88-1.13-1.39-1.82-.52-.68-1.08-1.45-1.71-2.33l.4.31c-3.82-4.72-6.62-8.04-9.62-11.43-2.99-3.4-6.17-6.91-11.19-11.58l.38,1.09c-2.12-2.03-2.51-2.52-3.47-3.53-1.56-.77,0,.57,1.59,1.95,1.55,1.41,3.11,2.87,1.66,2.19-.53-.86-1.75-2.16-3.37-3.6-1.57-1.44-3.6-3.14-5.7-4.58-4.17-2.96-8.46-5.28-9.33-6.48-4.04-2.1.89,1.16-3.15-.91-.31-.28-.61-.58-.92-.85l-1.23-.09c-2.63-1.36-3.84-2.32-3.81-2.65.64.33,1.91.76,2.62,1.07-3.32-2.05-10.02-4.19-11.2-4.78l3.94,1.82c-5.76-2.21-12.15-4.61-18.57-6.71-6.41-2.11-12.9-3.98-18.75-5.06l.81.47c-4.45-.87-6.2-1.31-8.06-1.83-1.86-.5-3.82-1.09-8.74-1.84h.37c-2.01-.09-4.65-.39-7.33-.8,2.54.04-4.6-1.23-1.29-1.12-4.92-.39-6.14-.38-6.95-.3-.81.09-1.21.22-4.48.45l-1.45-.55c-1.12.11-1.72.23-2.67.29-.95.05-2.23.05-4.71.01,4.08-.2-3.14-.8,1.44-1.09-5.2-.71-9.1-.48-12.26-.25-3.18.23-5.62.48-8.07-.05-2.36.78-.08.75,2.44.68,2.52-.09,5.31-.2,3.97-.04,2.25.34-3.92.97-7.17,1.13-1.66.11-3.09-.15-5.18-.31-2.08-.14-4.81-.21-8.97.52.83-.14.87-.23,1.7-.36-3.17.21-6.01,1.47-9.88,1.82-1.95,1.18-4.89,1.09-5.26,2.16,2.46-.7,4.94-1.35,7.43-1.94-4.23,1.15-7.91,3.12-14.92,4.58.49-.32,2.46-1.18,3.84-1.67-2.1.27-3.83,1.27-6,1.59.16-.53,2.4-1.23,5.13-2.02,2.75-.74,5.99-1.59,8.19-2.44-2.31.1-8.42,2.82-6.4,1.25-2.94,2.06-8.04,2.05-13.16,4.74l.18-.65c-.83.37-2.51,1.22-4.08,1.74l2.61-1.65c-2.09,1.03-4.23,1.62-6.35,2.24-2.13.58-4.23,1.19-6.23,2.16,4.3-1.72,4.87-1.71,4.8-1.46-.06.26-.73.79,1.17.31-2.61,1.13-4.29,1.86-5.59,2.25-1.29.4-2.16.54-3.07.71-1.83.32-3.87.6-9.64,3.39,1.54-.81,6.07-2.37,3.7-1.03-2.28.87-5.27,2.06-6.74,2.45-7.55,3.86,1.41-.09-1.67,1.83-2.87.7-3.6,2.09-6.75,4.04l-.29-.49c-4.33,2.12-4.71,2.75-5.03,3.24-.31.5-.53.91-4.35,2.94l2.75-2.55-3.79,2.49.47-1.03c-3.97,2.97-5.32,3.68-9.45,6.2,1.16-.29.03,1.18-3.44,3.64-2.57,1.41,1-1.41-3.85,2.22.9-1.08,1.83-2.37,4.31-3.43.12-.3.91-1.06,1.03-1.37-2.82,1.46-6.51,4.51-8.24,5.86.68-.51,1.51-1.09,1.98-1.33-2.19,1.97-4.36,3.96-6.45,6.03-1.21.71-.47-.11.27-.93-1.35,1.17-2.14,2.14-4.09,3.9.23-.78-.24-1.07,2.5-3.61-1.05.94-2.05,1.94-3.06,2.91-1.02.97-2.01,1.97-2.98,2.98-.56.22-3.56,2.53-2.87,1.67-3.63,3.03-7.56,8.72-11.75,13.32-.13.31-.47.88-1.24,1.96-.95,1.12-1.83,2.25-2.71,3.37-.9,1.1-1.73,2.27-2.58,3.46-1.68,2.39-3.23,5.08-4.57,8.35-.81,1.09-1.67,2.17-2.46,3.31-.98,2.64-.22,1.46.38.73.61-.73.99-1-.54,3.3-1.86,6.06-1.45,2-2.4,4.02-.16.78-.36,1.7-.57,2.74-.19,1.04-.41,2.19-.69,3.41-.28,1.22-.61,2.51-1.03,3.82-.37,1.33-.79,2.7-1.33,4.07.36-1.9.79-3.36,1.28-5.09ZM1.51,172.03c-.21-1.27-.78-3.8-.5-4.76.74,1.42.52,2.56.5,4.76ZM36.35,264.76c-.71-.65-1.57-1.85-2.33-3.34.71.97,1.54,2.04,2.33,3.34ZM287.2,280.63s-.06.07-.09.1c-2.4,1.42-1.54.93.09-.1ZM291.95,277.35c.41-.41.33-.45.09-.36-.23.36-1.26,1.15-2.46,2.01.42-.13,1.07-.5,2.37-1.65ZM151.26,6.46l-1.13.04c2.48-.59,1.8-.31,1.13-.04Z"/>
            <path class="purple-2" d="M29.16,255.9c-.12-.36-.08-.5-.04-.63-.35-.37-.45-.32.04.63Z"/>
            <path class="purple-2" d="M26.05,69.01l.13-.16c.04-.11.05-.18.05-.23l-.18.38Z"/>
            <path class="purple-2" d="M211.41,317.64c-1.21.15-1.9.18-2.36.16-.04.15.53.16,2.36-.16Z"/>
            <path class="purple-2" d="M313.27,255.57c-.75.97-1.55,1.9-2.32,2.85,1.16-1.35,1.69-1.73,2.34-2.35-.15-.02-.75.39-.02-.5Z"/>
            <path class="purple-2" d="M333.99,230.75c.18-.52.5-1.05.68-1.57l-.3.02c-1.01,2.1-1.54,3.67-.38,1.55Z"/>
            <path class="purple-2" d="M316.9,254.14c.28.04.76-.42,1.37-1.15.6-.73,1.29-1.77,2.05-2.83-.1.12-.19.24-.28.37-.03-.51-.42-.18-1,.57-.29.37-.61.86-.97,1.39-.37.52-.77,1.09-1.17,1.65Z"/>
            <path class="purple-2" d="M320.67,249.67c.47-.65.96-1.31,1.45-1.93-.03-.4-.64.74-1.45,1.93Z"/>
            <path class="purple-2" d="M297.4,272.45c1-.72.18-.97.82-1.28.31-.68-1.08.82-1.99,1.88-.93,1.03-1.28,1.71,1.16-.59Z"/>
            <polygon class="purple-2" points="319.47 253.48 318.41 253.84 317.84 255.27 319.47 253.48"/>
            <path class="purple-2" d="M305.18,268.54c1.05-.92,2.1-1.85,3.1-2.84-.11-.02.22-.45.64-.95-1.78,1.88-3.93,3.73-3.74,3.78Z"/>
            <path class="purple-2" d="M308.92,264.75c.94-.96,1.83-1.88,2.27-2.5-.49.54-1.57,1.67-2.27,2.5Z"/>
            <path class="purple-2" d="M315.94,258.03c-.29.3-.6.58-.91.86l-2.01,2.19c.97-1.02,1.97-2.01,2.92-3.05Z"/>
            <path class="purple-2" d="M268.68,294.77l-3.99,2.26c-.33.39.84-.07,2.32-.93.91-.63,2.38-1.49,1.67-1.33Z"/>
            <path class="purple-2" d="M281.49,289.12c-1.11.58-1.25.52-1.96.72l.27.69c.58-.45,1.13-.93,1.69-1.41Z"/>
            <path class="purple-2" d="M269.96,296.11c-.31.39-5.69,3.62-.5.86.34-.37,4.31-2.76.5-.86Z"/>
            <polygon class="purple-2" points="204.03 316.97 205.18 316.77 204.81 315.62 204.03 316.97"/>
            <path class="purple-2" d="M142.99,323.39c5.51.71,1.35-.57,6.32-.02,1.3-.24-4.06-.43-2.72-.62-3.33.06-5.07-.27-3.6.64Z"/>
            <path class="purple-2" d="M146.6,322.75c.53-.03,1.1-.07,1.7-.13-.96.04-1.42.08-1.7.13Z"/>
            <path class="purple-2" d="M330.44,88.88c.46,1.05.88,2.12,1.31,3.18l-.62-2.16c-.22-.34-.45-.68-.69-1.01Z"/>
            <path class="purple-2" d="M334.13,94.43l-.36,1.05,1.49,1.6c-.35-.7-1.04-2.04-1.13-2.65Z"/>
            <path class="purple-2" d="M.99,182.02l.21.25c.13-.57.05-1.41-.11-3.07l-.11,2.82Z"/>
            <polygon class="purple-2" points="1.43 133.72 1.31 134.54 2.19 133.09 1.43 133.72"/>
            <path class="purple-2" d="M10.19,94.05c-.58,1.56-1.08,3.46-1.67,5.02,1.09-3.47,2.62-5.15,1.67-5.02Z"/>
          </g>
        </g>
      </g>
    </g>
  </g>
</svg>
