<?xml version="1.0" encoding="UTF-8"?>
<svg id="Layer_2" data-name="Layer 2" xmlns="http://www.w3.org/2000/svg" viewBox="0 0 352.11 326.13">
  <defs>
    <style>
      .turq-1 {
        fill: #008287;
      }

      .turq-2 {
        fill: #fff;
      }

      .turq-3 {
        fill: none;
      }
    </style>
  </defs>
  <g id="Layer_1-2" data-name="Layer 1">
    <g id="Artwork_59" data-name="Artwork 59">
      <g>
        <path class="turq-1" d="M349.52,183.25c2.76-23.76-.64-50.44-9.95-74.75-5.49-14.32-19.83-31.39-32.52-44.64-14.24-14.86-30.51-27.76-48.53-37.93-12.55-7.08-23.29-11.45-38.22-15.35C163.62-4.22,98.87,3.97,69.98,28.05,37.76,54.91,17.3,89.29,6.76,130.12c-10.93,42.37-9.24,122.91,78.65,166.71,48.85,24.34,112.95,41.09,175.05,12.56,46.1-21.19,83.12-75.06,89.06-126.14Z"/>
        <g>
          <path class="turq-3" d="M349.52,183.25c2.76-23.76-.64-50.44-9.95-74.75-5.49-14.32-19.83-31.39-32.52-44.64-14.24-14.86-30.51-27.76-48.53-37.93-12.55-7.08-23.29-11.45-38.22-15.35C163.62-4.22,98.87,3.97,69.98,28.05,37.76,54.91,17.3,89.29,6.76,130.12c-10.93,42.37-9.24,122.91,78.65,166.71,48.85,24.34,112.95,41.09,175.05,12.56,46.1-21.19,83.12-75.06,89.06-126.14Z"/>
          <g>
            <path class="turq-2" d="M346.53,184.12c.25-1.51-.31-1.02-.37-1.26-.23,2.53.51,1.21.37,1.26Z"/>
            <path class="turq-2" d="M342.17,209.04l-.06-.49c-.23,1.24-.41,2.49-.68,3.72.28-1.07.49-2.16.73-3.24Z"/>
            <path class="turq-2" d="M333.43,231.17c.9-.82,1.73-2.82,2.64-5.06.45-1.12.85-2.32,1.3-3.47.45-1.15.89-2.26,1.33-3.22l.43-.59.05-2.02c-1.63,4.88-3.96,11.18-5.75,14.36Z"/>
            <path class="turq-2" d="M325.97,241.53c.66-.52-1.09,2.51,1.53-2.51-.17.23-.23.29-.33.42-.24.45-.59,1.06-1.19,2.08Z"/>
            <path class="turq-2" d="M327.16,239.44c1.2-2.18-1.03,1.28,0,0h0Z"/>
            <path class="turq-2" d="M321.45,249.4c.5-.98,1.03-1.93,1.5-2.92-.5.49-2.12,2.91-1.65,1.93-1.67,2.91-1.14,2.44.15,1Z"/>
            <path class="turq-2" d="M320.27,252.34c.29-.49.56-.99.83-1.49-.23.2-.48.58-.83,1.49Z"/>
            <path class="turq-2" d="M322.82,247.67l-1.72,3.18c.37-.33.62-.22.81-1.45.05.38.23-.35.91-1.73Z"/>
            <path class="turq-2" d="M323.99,245.99c1.1-1.48,2.43-3.47.98-.49,1.59-2.72,2.05-4,1.82-3.87-.23.13-1.21,1.65-2.8,4.36Z"/>
            <path class="turq-2" d="M333.68,232.64l1.31-2.14.63-2.08c-.29,1.05-2.24,4.25-1.95,4.22Z"/>
            <path class="turq-2" d="M309.16,265.64c0,.27,1.06-.55,1.39-.6.46-.67.92-1.33,1.35-2.02-.84.92-2.44,2.66-2.74,2.62Z"/>
            <path class="turq-2" d="M310.55,265.04l-2.05,3.01c2.08-2.49,2.34-3.04,2.05-3.01Z"/>
            <path class="turq-2" d="M320.71,253.34c.96-1.76,1.81-3.59,2.71-5.37-1.1,2.11-2.17,4.26-3.36,6.34l.64-.96Z"/>
            <path class="turq-2" d="M300.01,275.93c.37-.59.76-1.16,1.12-1.76-.67,1.03-1.38,2.03-2.08,3.05l.96-1.29Z"/>
            <path class="turq-2" d="M293.55,282.38c.88-1.26-1.92.96-.88-.26-.89.85-1.68,1.68-2.4,2.49-.74.79-1.41,1.54-2.05,2.25.72-.71,1.5-1.4,2.38-2.13.86-.75,1.83-1.52,2.96-2.35Z"/>
            <path class="turq-2" d="M286,289.2c.75-.68,1.45-1.48,2.22-2.34-.77.76-1.49,1.54-2.22,2.34Z"/>
            <path class="turq-2" d="M304.36,272.64c-.27.13-.84.34-2.3,1.76l1.33-.71c.3-.32.63-.68.97-1.05Z"/>
            <path class="turq-2" d="M303.44,273.66l-.05.03c-1.05,1.13-1.78,1.92-2.12,2.24.29-.27.93-.96,2.16-2.26Z"/>
            <path class="turq-2" d="M304.61,272.38c-.09.1-.16.17-.24.26.13-.07.2-.12.24-.26Z"/>
            <path class="turq-2" d="M314.82,260.88c-1.07,1.86-3.57,5.61-.59,2.43.67-1.43-1.03.39.59-2.43Z"/>
            <path class="turq-2" d="M306.26,271.47l2.61-2.85c-.15-.03-.75.38-.17-.51l-2.45,3.37Z"/>
            <path class="turq-2" d="M305.12,272.99c.39-.5.77-1,1.14-1.52-.32.35-.64.71-.98,1.05l-.16.47Z"/>
            <path class="turq-2" d="M291.32,285.33c-1.1,1.26-2.49,2.44-4.03,3.79,1.73-1.36,3.54-2.74,5.13-4.22.12-.32.63-1.17-1.1.43Z"/>
            <path class="turq-2" d="M297.39,279.85c-.08.09-.17.2-.25.28.19-.13.33-.24.25-.28Z"/>
            <path class="turq-2" d="M270.82,300.75c.11-.03.21-.06.33-.09,0-.04,0-.07.02-.11l-.35.2Z"/>
            <path class="turq-2" d="M292.75,284.72c1.29-1.05,1.96-1.79,2.52-2.56-.86.9-1.83,1.78-2.86,2.74-.05.15-.04.2.34-.18Z"/>
            <path class="turq-2" d="M281.71,292.83c.75-.43,1.6-.92,2.44-1.5-.74.42-2.28,1.21-2.44,1.5Z"/>
            <path class="turq-2" d="M296.64,280.42c.05-.06.1-.12.16-.19-.46.3-.38.29-.16.19Z"/>
            <path class="turq-2" d="M296.64,280.42c-.56.64-.96,1.2-1.37,1.75.7-.73,1.33-1.42,1.86-2.03-.17.12-.36.22-.5.29Z"/>
            <path class="turq-2" d="M267.03,306.59c.02-.28.97-1.01,2.33-1.9,1.34-.93,3.15-1.89,4.89-2.73,2.98-2.33.08-2.24-3.09-1.29,0,.23.11.39-3.04,2.55.64-.23,2.54-1.17,3.96-1.81,1.41-.67,2.33-1.05,1.08,0-2.11,1.43-3.05,1.89-3.71,2.17-.67.28-1.08.34-2.23.8,1.06-.24-.26.7-1.68,1.74-1.41,1.06-3.02,2.07-2.32,2.23,1.32-.72,2.59-1.52,3.87-2.32.14.08-1.2,1.03-.04.55Z"/>
            <path class="turq-2" d="M277.25,296.79l1.25-.93c-1.52.94-2.65,1.54-4.83,2.47-2.05,1.59-2.43,2.01-2.51,2.22,2.18-1.33,4.38-2.66,6.48-4.12l-.4.36Z"/>
            <path class="turq-2" d="M284.16,291.71c-.64,1.16-3.57,3.56-1.38,2.63,1.86-1.38,2.41-1.99,2.79-2.45.37-.46.55-.79,1.56-1.74-5.74,4.73,1.49-1.55-2.88,1.57,1.09-.97,2.09-1.81,3.05-2.59-1.08.78-2.14,1.52-3.14,2.2.06-.03.1-.05.15-.08l.03-.02h0c.29-.14.39-.17.09.02-.02.02-.08.08-.11.1,0,.09-.07.22-.14.36-1.76,1.23-.34.11.14-.36,0-.03.04-.09.02-.12h-.03c-.93.83-1.91,1.57-2.87,2.36-.96.78-1.93,1.55-2.93,2.28,1.34-.81,2.91-2.01,5.65-4.15Z"/>
            <path class="turq-2" d="M312.6,267.14c-.18.15-.2.12-.24.11-.26.42-.34.59.24-.11Z"/>
            <path class="turq-2" d="M310.4,269.35c.29-.47.42-.95,1.59-2.3,1.09-1.1.18.16.36.2.58-.92,2.09-3.14-.23-.68l-.28.46c-2.01,2.27-5.08,4.75-4.77,4.32.92-.37,1.67-.74,3.33-1.99Z"/>
            <path class="turq-2" d="M297.76,281.51l-2.16,2.25-2.23,2.19,2.65-1.82-.3-.08c2.65-2.38,1.86-2.09,2.04-2.54Z"/>
            <polygon class="turq-2" points="270.09 300.89 270.52 300.02 267.83 302.46 270.09 300.89"/>
            <polygon class="turq-2" points="263.13 304.8 263.18 304.26 261.42 305.42 263.13 304.8"/>
            <path class="turq-2" d="M35.54,60.9c.33-.53.63-1.09.99-1.6-.51.73-.78,1.24-.99,1.6Z"/>
            <path class="turq-2" d="M27.96,72.18l.02.4c.22-.6.29-.86-.02-.4Z"/>
            <path class="turq-2" d="M74.04,287.24c-2.09-1.67-4.17-3.88-4.19-3.27l.41.87c1.58.97,2.81,1.67,3.78,2.39Z"/>
            <path class="turq-2" d="M2.3,178.02c-.04.26-.07.53-.11.8.23.64.45,1.24.65,1.78-.16-.77-.39-1.65-.54-2.57Z"/>
            <path class="turq-2" d="M.1,176.23c.06-1.21.07-2.41.16-3.61-.12.81-.14,1.97-.16,3.61Z"/>
            <path class="turq-2" d="M90.99,12.1c.62-.44,1.23-.9,1.87-1.31-3.23,1.3-1.71.98-1.87,1.31Z"/>
            <path class="turq-2" d="M183.43,321.41c-2.28-.31-4.09-.46-5.68-.64,2.72.53,4.94,1,5.68.64Z"/>
            <path class="turq-2" d="M36.93,68.31c.56-.97.75-1.42.64-1.45-.59.99-.88,1.58-.64,1.45Z"/>
            <path class="turq-2" d="M171.17,320.18c.4.08.79.16,1.19.25,1.67.12,3.36.14,5.39.35-2.01-.37-4.32-.68-6.58-.6Z"/>
            <path class="turq-2" d="M330.1,86.43c.1.17.23.37.31.53.09,0-.07-.21-.31-.53Z"/>
            <path class="turq-2" d="M348.1,160.91c-.05-.75-.13-1.97-.2-3.12,0,.56.07,1.5.2,3.12Z"/>
            <path class="turq-2" d="M232.89,315.86c1.64-.47.25-.12,0,0h0Z"/>
            <path class="turq-2" d="M241.45,315.48c-.33.16-.58.31-.58.44.1-.16.31-.3.58-.44Z"/>
            <path class="turq-2" d="M153.75,320.75c-.05-.01-.09-.02-.15-.03.49.19.4.16.15.03Z"/>
            <path class="turq-2" d="M235.43,315.43c-.63.1-1.36.24-2.14.41.35-.05,1-.17,2.14-.41Z"/>
            <path class="turq-2" d="M235.03,315.28c.57-.13,1.02-.23,1.45-.34.18-.15,0-.12-1.45.34Z"/>
            <path class="turq-2" d="M230.61,316.5c.94-.26,1.82-.47,2.67-.66-.33.05-.47.06-.39.02-.48.13-1.16.32-2.28.64Z"/>
            <path class="turq-2" d="M213.81,7.43c.11.04.24.08.35.13,1.77.17,1.01.04-.35-.13Z"/>
            <path class="turq-2" d="M35.75,263.15c.06.05.1.08.15.13-.05-.07-.12-.15-.16-.21v.07Z"/>
            <path class="turq-2" d="M31.28,258.64c.55.42,1.02.82,1.43,1.19.43.36.81.71,1.15,1.05.69.69,1.25,1.39,1.88,2.19l-.31-2.53-2.1-.92c-.7-.31-1.36-.66-2.05-1Z"/>
            <path class="turq-2" d="M56.63,36.16c-1.16.93-2.29,1.9-3.45,2.85.81-1.09,1.6-2.07,2.27-2.9.68-.82,1.29-1.43,1.65-1.86.74-.85.63-.87-1.13.34.28.75-2.7,3.9-5.7,7.02-2.88,3.24-5.76,6.48-5.3,7.27l-2.13,2.04c.55-.64.56-.8,1.11-1.43-2.11,1.95-2.58,2.95-3.1,4.15-.49,1.23-1.04,2.65-3.35,5.48-1.64,1.96-2.79,3.33-1.96,1.78l-2.94,4.89c-.94,1.36-.97.86,0-.48-1.59,2.42-3.08,4.9-4.6,7.36v-.08c-.42,1.2-1.5,3.81-2.05,5.07-1.31,1.78.41-1.03-.05-.65l-1.04,2.16c-.34.73-.64,1.47-.97,2.2-1.26,1.54.18-2.2,1.96-5.01-1.82,1.54-2.26,2.45-2.86,4-.31.77-.67,1.7-1.3,2.93-.31.62-.69,1.32-1.16,2.11-.46.8-.96,1.73-1.6,2.76.6-1.39,1.19-2.8,1.86-4.15-1.11,1.07-1.94,2.48-2.86,4.15-.92,1.67-1.98,3.58-3.23,5.85.67-1.06,5.73-8.71,3.78-3.84-.37.63-.79,1.38-1.22,2.3-.41.93-.82,2.05-1.24,3.4-.26-.1-.64.49-1.12,1.5-.48,1.01-1.07,2.44-1.67,4.05l-.61-.5c-1.17,3.55-.7,3.41-1.19,5.57-1.48,3.86-2.29,4.49-3.08,5.25-2.31,6.24,2.37-4.03-.04,3.44-.95,2.59-1.68,4.82-2.28,7.22-.55,2.42-1.11,4.97-1.7,8.22-1.16,3.71-.29-.77-.82.53-.07,1.17-.17,2.32-.19,3.48-.19.82-.31.52-.37.36-.34,2.88.63.38,0,4.87.3.67-.43,2.89-1.1,5.7-.37,1.4-.69,2.94-.91,4.5-.24,1.55-.34,3.11-.21,4.52-.33,1.36-.4-.7-.73-.31-.05,3.87.06,5.53.11,7.01.04,1.48.23,2.79.57,5.94-.18,1.79-.28,3.58-.42,5.37.5-3.96,1.2,1.08,2.04,5.4.2-1.4.38-2.59.45-3.39l.38,3.46c.13,1.15.33,2.29.49,3.44-.05.84-.37.18-.78-.94.11.47.21.91.29,1.25-.06,2.5-.6,1.27-1.18-.48.08-.86.16-1.71.24-2.55-.55-1.69-1.13-3.29-1.55-2.9.11.45.23,1.33.32,2.29-.15-.45-.27-.73-.34-.51-.06.24.12.97.42,2.1l-.69,1.67.37.36c.04,1.54.09,3.09.22,4.63.12,1.54.19,3.09.36,4.63.48,1.61.98,3.15,1.48,4.71.56,1.55,1.12,3.13,1.73,4.82.58,1.69,1.31,3.47,1.98,5.46.67,1.99,1.54,4.13,2.35,6.6-1.33-2.28-1.11-.23-1.85-.14-.03-1.49-.74-3.39-1.51-5.62-.71-2.24-1.68-4.77-2.11-7.46.5,2.8.04,2.27-.23,1.58.44,1.57,1,3.1,1.5,4.64.26.77.5,1.54.78,2.31l.87,2.28c-.61-.05.12,2.12.72,4.6.24-1.09,1.02.56,1.95,2.92.44,1.19,1,2.53,1.56,3.79.55,1.27,1.08,2.47,1.53,3.34-.27.38-1-.34-2.71-4.85.59,2.63,1.54,4.12,2.54,5.54,1.04,1.41,2.09,2.77,2.84,5.3-.5-1.06-.71-1.66-1.08-2,.37.58.79,1.42,1.24,2.3.47.87.94,1.8,1.33,2.63.78,1.65,1.24,2.86.72,2.24l-.55-1.04c1.72,3.51,4.81,8.61,7.79,12.77,1.51,2.06,3.02,3.87,4.18,5.22,1.17,1.35,2.14,2.12,2.5,2.2-.05.14-1.58-.04-2.04-.29,1.92,1.45,3.78,2.93,5.71,4.29,1.97,1.33,3.9,2.67,5.86,3.94-.74-.13-.65.97-.99,1.6-.33.61-1.14.79-3.48-1.47.59.72,1.21,1.58,2.12,2.5.91.93,2.05,2,3.55,3.28-.82-.99-1.37-3.1-.09-1.94,2.68,4.03,1.98,2.67,5.79,7.2-.65-.71-.35-.95.37-.78.74.16,1.85.81,3.02,1.74-.49-.14-.66,1.17-1.6.59l6.62,3.66c-1.57-1-.98.72.18,1.98-.24-.33,1.07.63,2.64,1.8,1.57,1.18,3.41,2.58,4.31,3.04l-1.24-1-1.19-1.06c1.65,1.32,3.07,2.03,4.24,2.63,1.18.58,2.18.95,3.17,1.31,1.96.77,4.02,1.31,7.55,3.46-.99-.27-2.99.18.59,2.48,1,.2,3.32.47,6.16,1.08,2.83.64,6.27,1.48,9.67,2.8l1.1.94c1.74.67,3.5,1.31,5.26,1.92-3.59-.45-13.38-2.68-18.52-4.6,2.65,1.74.56.82,4.77,2.98,1.33,1.08-2.54-.69-3.78-1.34,3.22,1.82,6.46,3.49,9.75,5.11-.05-.46,1.93.26,3.92.97,2,.7,3.99,1.41,3.93,1.02-3.73-1.36-7.45-2.76-11.13-4.26-.08-.91,7.13,1.02,14.15,4.17,1.69,1.06-1.91.71-1.87,1.01.52.07,2.26.68,3.95,1.32,1.69.62,3.34,1.27,3.63,1.49l-3.21-.85c3.9,1.91,6.91,1.69,11.51,4.18,1.66.67,4.7,2.77,5.16,2.41-2.49-1.79-2.06-4.62-.03-4.61.28.13,2.41,1.09,4.69,2.13,2.3,1,4.76,2.13,5.67,2.61,1.3.75.13.84-1.1.91-1.22.04-2.5.05-1.39.72.17-.17,1.8.06,2.48.16,1.75.7-.94.42,3.01,1.48.87-.55,8.01,2.23,2.04-.13,3.91.82,4.05,1.28,8.62,2.34-1.33-.83,4.49-.73,8.41-.2-.27.16.55.58.96.78,1.99.41,3.76.77,5.4,1.07,1.64.31,3.16.64,4.67.88,1.51.25,3,.52,4.59.75,1.59.21,3.28.42,5.17.62.68.25,4.33.77,2.74.99,1.11-.07,2.13-.2,4.48-.13,2.25.46.95.42-.5.39-1.45,0-3.03-.11-1.33.45.33-.46,6.13-.28,9.48-.57-.51-.38-2.44-.4-4.66-.42-2.22-.02-4.75.1-6.43.09.03-.5,1.51-.85,3.97-1.19,1.23-.17,2.7-.27,4.35-.41,1.66-.15,3.49-.25,5.46-.36,6.24-.33,2.72.6,3.81.44,2.94,0,5.04-.25,6.67-.45,1.63-.24,2.8-.56,3.9-.82,2.21-.53,4.15-1.04,9.01-1.3,3.91.05.35,1.21,1.26,1.54-2.51.54-4.49.59-6.25.69-1.76.1-3.32.03-5.05.19,1.42-.03,2.86,0,4.28-.07-1.6.39-5.01.8-6.88.76,1.65.17,6.64-.15,12.34-.88,5.69-.74,12.04-2,16.56-2.81,1.54-.58,4.18-1.54,2.83-1.44-.92.27-1.84.56-2.77.81-1.36.03-.06-.39,1.09-.86,1.15-.45,2.19-.84.4-.49,3.64-1.32,7.62-2.99,12.8-4.51l1.2.34c-.19-.18-3.47.8-4.86,1.43,2.04-.96,8.21-1.76,10.16-3.6-1.24.3-2.47.62-3.71.91,1.74-.85,3.63-1.91,5.66-2.92,1.99-1.09,4.13-2.15,6.33-3.03-2.25.26-.97.53-4.39,1.12.77-.06.46.22-.37.65-.41.21-.96.47-1.56.74-.61.24-1.28.51-1.94.76-2.62,1.02-5.04,1.97-2.66,1.62-1.78.2-3.25.54-4.81,1.01-.79.22-1.59.48-2.5.69-.91.2-1.91.38-3.05.51.2.19,1.66-.04-2.18,1.02-.15.12-.54.31-.79.43-.12.02-.16.03-.26.05.08-.01.14-.02.22-.03-.16.08-.17.09.08-.01.95-.13,1.71-.27,2.05-.23-1.74,1.12-7.91,2.73-9.97,3.42-2.35.42.91-.48-.41-.44-1.02.36-2.03.77-3.06,1.1-.43-.46-6.35.31-.93-1.03-1.65.29-3.28.62-4.93.88-1.48.07-3.23.23-4.91.45-1.69.17-3.31.37-4.54.63-2.35.17-5.9,1.09-3.88.53-2.6.35-5.22.57-7.84.8l-.08-.13c-7.74.22-16.08.93-24.87-.93-1.31-.08-2.64-.14-4.19-.28-1.54-.17-3.31-.41-5.47-.78l-.78-.59c-3.36-.35-9.86-2.19-11.36-2.07-.82-.49-2.23-.97-3.95-1.44-1.72-.52-3.77-.99-5.89-1.51-4.23-1.05-8.76-2.16-11.55-3.17l-.39.5c-3.91-1.21-7.65-2.37-12.5-3.88l.11.6c-4.28-1.11-10.41-4.37-16.77-7.14.51.02,2.1.76,3.2,1.36-3.58-2.16-7.63-3.79-11.61-5.39-1.97-.84-3.96-1.6-5.79-2.51-1.83-.91-3.57-1.86-5.12-2.92-1.76-.68-2.87-1.45-3.94-2.22.15.09.29.16.41.21-.16-.1-.41-.24-.66-.39-.66-.49-1.35-1-2.09-1.55.61.5,1.2.97,1.73,1.35-1.24-.73-3.17-1.74-5.05-2.76l-.46-.98c-.15-.09-.27-.16-.42-.26-1.63-1.32-1.55-.7-.85.27-.95-.51-1.84-.96-2.55-1.27-.45-.86-1.7-1.52-2.93-2.34-1.23-.81-2.53-1.68-3.18-2.76-.36-.12-1.1-.55-2.02-1.14-.93-.58-1.98-1.41-3.06-2.17-2.16-1.54-4.34-3.01-5.06-3.05.03-.15-.4-.62.47.15-1.71-1.69-3.41-3.35-5.19-4.59l-.22-1.23-4.38-2.99c-1.89-2.59-2.52-3.77-.03-1.81-2.84-2.51-3.94-3.6-4.94-4.58-.94-1.03-1.79-1.95-4.17-4.2l.56-.04c-.76-.87-1.75-2-2.66-3.05-.91-1.05-1.71-2.05-1.96-2.72-.59-1.16-1.67-3.13-3.19-5.53-.78-1.19-1.49-2.59-2.34-4.03-.42-.72-.85-1.47-1.29-2.24-.42-.78-.83-1.59-1.25-2.41-3.46-6.51-6.65-14.31-8.29-20.71-.54,2.86-1.21-6.04-2.31-6.26.12-.83-.15-2.65.64-.66-.49-1.61-.86-3.03-1.17-4.33-.27-1.31-.46-2.49-.66-3.6-.45-2.22-.74-4.19-1.58-6.41.19-.81.71,1.34.78.64-.15-.52-.65-2.06-.52-2.78.1-.7.38.94.71,1.96-1.03-6.75-2.01-7.35-2.99-7.76.06-1.77.04-3.08-.1-4.27-.1-1.19-.32-2.25-.7-3.5.24-1.24.45-3.28.79,1-.02-.6-.05-1.83-.08-3.33,0-1.5,0-3.27-.01-4.98.04-1.71.05-3.35,0-4.58-.05-1.23-.09-2.05-.28-2.12.23-.75.21-3.37.19-4.02.49-5.41.6-5.88,1.24-11.17l-.33,1.45c-.59-2.21.42-4.43,1.09-8.68l.07.14c1.3-4.77,1.51-5.8,1.69-6.84.17-1.03.38-2.05,2.04-6.66l-.68.36c-.44-.6.24-2.66,1.36-5.21.54-1.28,1.15-2.69,1.7-4.12.54-1.44,1.13-2.87,1.48-4.25l-.98,1.82c.32-1.53,1.43-3.44,2.6-5.31,1.23-1.85,2.54-3.64,3.17-5.05.34-.59-.23,1.05-.5,1.95,1.8-3.62,1.74-3.92,1.47-4.04-.27-.12-.75-.04.39-2.84.81-.86.35,1.71,2.04-1.96.51-.87,1.5-3.63,2.74-6.79.59-1.59,1.35-3.22,2.12-4.76.79-1.53,1.57-2.98,2.43-4.08-.45.44-.86.91-1.04.93-.17.03-.13-.41.49-1.67,1.06-1.87,2.71-4.28,4.4-6.57.85-1.15,1.66-2.3,2.34-3.4.34-.55.65-1.09.92-1.61.28-.51.52-.99.7-1.46.38-.4.57-.52.64-.5.42-.71.99-1.62,1.62-2.62.32-.5.65-1.03.98-1.56.35-.52.71-1.05,1.07-1.56,1.41-2.07,2.69-4.05,3.1-4.99.87-.28,2.07-1.44,3.4-3,1.3-1.59,2.85-3.49,4.35-5.32.75-.92,1.48-1.82,2.15-2.65.71-.8,1.38-1.52,1.97-2.12,1.18-1.19,2.04-1.84,2.34-1.51,1.15-1.23,2.37-2.39,3.58-3.55,1.22-1.16,2.42-2.34,3.65-3.48l-.08.31c2.48-2.07,4.07-3.56,5.23-4.76,1.17-1.17,1.92-1.99,2.67-2.86,1.27-.76.49,0,.45.14.97-.63,1.84-1.19,2.61-1.7.78-.49,1.51-.9,2.16-1.29,1.28-.8,2.37-1.38,3.38-2.01,1.01-.63,1.98-1.23,3.12-1.94,1.12-.74,2.44-1.53,4.14-2.56l.98.19c.92-.56,4.12-1.71,8.21-2.97,4.09-1.25,9.07-2.58,13.46-4.02-.07.09-.23.24-.92.49,4.95-1.62,11.14-2.46,16.5-3.06,2.68-.34,5.16-.55,7.18-.92,2.03-.32,3.61-.74,4.51-1.37,2.27-.38,4.54-.76,6.83-1.08-8.92.52,1.26-1.04-2.43-1.1,3.52-.39,9.14.08,4.82.43l-.68-.07c-.76.61,2.02.5,4.96.47,2.94-.09,6.05-.07,5.93.3,8.77-.14,17.43.4,25.88,1.39,8.46.99,16.71,2.4,24.71,4.1-.55-.42-1.12-.81-1.68-1.21,1.88.36,3.73.83,5.6,1.25,1.43.52,1.82,1.09-2.16.17,1.99.9,6.75,1.16,6.91,1.01,3.84,1.14,3,1.22,1.53,1.03-1.48-.15-3.62-.51-2.43-.2,1.08.25,2.16.47,3.23.75l-.7-.29c2.69.37,3.03.03,7.72,1.47,2.91,1.09,1.36.98,2.51,1.37-.02.05.35.21,1.76.61,2.25.79,4.49,1.61,6.69,2.52-.8-.56-1.61-1.11-2.43-1.65,3.11.79,6.27,2.52,3.48.55,2.06,1.43,8.16,4.16,13.87,7.24,5.73,3.03,11.11,6.25,12.27,7.22,4.05,1.97,7.74,4.44,12.13,7.72-1.02-.92-1.23-2.03,2.54.87-1.16.11.47,1.54,2.66,3.38,2.18,1.85,4.88,4.15,5.97,5.82-1.06-1.39,1.54.73,3.92,2.74,2.39,1.99,4.56,3.89,2.96,1.67,2.81,2.78-.22.59,1.72,2.9,3.63,2.99,7.19,6.72,10.81,10.83,3.61,4.09,7.27,8.5,11.03,12.89.27.01-.72-1.69,1.1.04,1.02,1.8,2.02,3.61,2.98,5.43.74.86,1.28,1.12,1.89,1.61.61.5,1.3,1.23,2.2,3.15-.2-.58-.49-1.45.45-.24,3.06,4.76,6.02,9.64,8.4,14.76.32.63.57,1.29.84,1.93.27.65.56,1.28.8,1.97l1.51,4.06,1.41,4.11,1.29,4.16c3.29,11.13,5.33,22.76,5.17,34.25.16-3.12.39-1.07.53,1.3,0-1.55.51,0,.77-.32-.03,1.61-.06,3.22-.17,4.83-.08,1.61-.17,3.21-.32,4.81.19.44.29,1.3.34,2.37.02,1.06-.02,2.33-.06,3.57-.09,2.48-.29,4.86.06,5.4l.07-3.05c.3,2.05.88.68,1.52-1.17.58-1.84,1.21-4.15,1.76-3.84-.45-2.33-.06-5.37.13-8.81.21-3.44.19-7.28-.88-11,.05-1.7.51,1.39.67.47-.7-1.88-1-4.18-1.44-8.48l.19.47c-.98-5.99-1.74-10.27-2.68-14.7-.94-4.43-1.94-9.06-4.03-15.6l-.21,1.14c-.85-2.81-.96-3.43-1.29-4.78-.97-1.44-.28.51.42,2.48.69,1.98,1.29,4.03.38,2.72-.02-1.02-.48-2.74-1.17-4.79-.17-.51-.35-1.05-.54-1.6-.22-.55-.45-1.12-.68-1.71-.45-1.17-1.02-2.32-1.56-3.48-2.21-4.61-4.89-8.69-5.06-10.17-2.53-3.79.21,1.46-2.32-2.31l-.41-1.18-1.03-.68c-1.67-2.45-2.24-3.89-2.06-4.16.4.6,1.29,1.6,1.77,2.2-1.93-3.39-6.76-8.51-7.52-9.58.88,1.15,1.73,2.32,2.58,3.5-3.98-4.72-8.43-9.88-13.06-14.82-4.59-4.94-9.45-9.67-14.06-13.41l.48.8c-3.5-2.89-4.83-4.11-6.22-5.44-1.39-1.33-2.86-2.76-6.82-5.77l.32.18c-1.73-1.02-3.91-2.54-6.09-4.17,1.1.62.24-.2-.54-.97-.79-.75-1.51-1.46-.06-.63-4.16-2.66-5.25-3.21-5.99-3.54-.75-.32-1.19-.34-4.17-1.71l-1.03-1.16c-2.08-.84-2.33-.79-6.65-3.2,3.71,1.71-2.41-2.16,1.79-.3-4.26-3.06-7.81-4.69-10.73-5.96-2.92-1.28-5.21-2.18-7.13-3.79-2.46-.4-.42.62,1.85,1.73,2.28,1.09,4.8,2.29,3.54,1.8,1.83,1.34-3.92-.96-6.88-2.32-1.52-.67-2.67-1.57-4.45-2.66-1.78-1.09-4.17-2.4-8.19-3.68.8.26.88.2,1.67.46-2.91-1.29-6-1.47-9.59-2.97-2.27.12-4.84-1.28-5.66-.54,2.5.54,5,1.1,7.48,1.74-2.13-.48-4.25-.7-6.69-1.05-2.43-.39-5.19-.85-8.63-1.87.58-.07,2.71.15,4.17.33-1.99-.72-3.97-.71-6.05-1.38.81-.86,9.17,1.72,13.87,2.25-2.09-.97-8.76-1.46-6.24-1.89-3.57.51-8.06-1.97-13.85-1.93l.46-.49c-.9-.06-2.78-.14-4.41-.37,1.02-.1,2.05-.18,3.07-.24-2.32-.1-4.5-.5-6.65-1-2.16-.44-4.3-.92-6.52-1,9.2,1.07,1.99.91,5.82,1.78-5.69-.35-7.27-.83-9.04-1.43-.88-.3-1.8-.62-3.31-.89-1.51-.27-3.59-.55-6.79-.63,1.74-.02,6.47.75,3.75.81-2.42-.27-5.61-.66-7.1-1-8.48-.15,1.28.61-2.33.84-2.86-.78-4.16.2-7.85.38l-.03-.56c-4.82-.11-5.45.19-5.96.5-.51.31-.9.58-5.23.55,1.2-.34,2.41-.62,3.62-.93-1.5.13-3.01.23-4.51.4l.9-.7c-4.9.76-6.42.75-11.25,1.03,1.16.29-.53,1.06-4.75,1.58-2.92.05,1.55-.76-4.44.13,1.3-.55,2.74-1.17,5.41-1,.25-.21,1.3-.5,1.56-.71-3.18-.06-7.86.91-10.03,1.28.84-.11,1.85-.24,2.37-.24l-4.28,1.08-4.25,1.18c-1.4.07-.36-.33.68-.68-1.74.38-2.89.92-5.45,1.5.56-.59.3-1.02,3.91-2l-4.07,1.12-4.04,1.22c-.6-.1-4.32.58-3.31.12-4.63.95-10.78,4.1-16.65,6.16-.27.21-.83.54-2.03,1.11-5.38,2.26-10.4,4.14-15.88,8.68-1.25.54-2.52,1.08-3.74,1.73-2.15,1.81-.9,1.16-.02.81.44-.17.79-.27.59.05-.18.33-1.01,1.02-2.62,2.56-4.61,4.35-2.25,1.02-4.08,2.31-1.08,1.17-2.42,2.91-4.11,4.74-.84.93-1.79,1.85-2.77,2.83-.97.98-2.03,1.95-3.17,2.88,1.24-1.48,2.38-2.49,3.61-3.8ZM18.54,90.07c.45-1.2,1.24-3.68,1.95-4.37-.06,1.61-.83,2.48-1.95,4.37ZM2.18,187.74c-.29-.92-.43-2.39-.37-4.06.14,1.19.33,2.54.37,4.06ZM214.69,319.99c-.05.02-.09.03-.13.05-1.39.11-1.84.1-1.7.1.14,0,.87-.05,1.83-.15ZM220.44,319.33c.56-.19.5-.25.25-.29-.37.22-1.64.48-3.11.64.43.07,1.19.11,2.86-.35ZM230.63,15.96l-1.03-.49c2.47.63,1.74.56,1.03.49Z"/>
            <path class="turq-2" d="M.36,176.48c.08-.37.18-.47.28-.56-.12-.5-.23-.5-.28.56Z"/>
            <path class="turq-2" d="M90.65,12.35l.19-.07c.09-.07.13-.13.15-.17l-.34.25Z"/>
            <path class="turq-2" d="M130.39,317.29c-1.15-.41-1.76-.72-2.16-.96-.1.1.38.41,2.16.96Z"/>
            <path class="turq-2" d="M249.54,310.23c-1.12.5-2.25.99-3.4,1.42,1.68-.6,2.3-.74,3.18-.98-.12-.09-.85-.02.22-.44Z"/>
            <path class="turq-2" d="M279.65,298.42c.41-.37.96-.67,1.36-1.03l-.28-.13c-1.91,1.34-3.14,2.44-1.09,1.16Z"/>
            <path class="turq-2" d="M253.43,310.72c.47.36,2.54-.75,4.9-1.87-.14.06-.28.12-.42.18.43-.93-2.01.42-4.48,1.68Z"/>
            <path class="turq-2" d="M258.88,308.6c.73-.34,1.47-.69,2.18-1.02.15-.39-.88.41-2.18,1.02Z"/>
            <path class="turq-2" d="M227.55,317.56c1.22-.15.61-.76,1.33-.73,1.21-.89-7.81,2.52-1.33.73Z"/>
            <path class="turq-2" d="M255.98,311.34l-1.09-.16c-.39.35-.79.67-1.18.99.77-.25,1.52-.54,2.27-.83Z"/>
            <path class="turq-2" d="M236.27,317.82c1.37-.3,2.71-.7,4.07-1.05-.09-.08.4-.29,1.02-.52-2.48.74-5.22,1.46-5.08,1.57Z"/>
            <path class="turq-2" d="M241.35,316.25c1.3-.36,2.5-.81,3.18-1.15-.68.25-2.16.78-3.18,1.15Z"/>
            <path class="turq-2" d="M250.71,313.66l-1.2.34c-.92.37-1.88.64-2.81.96l2.02-.62,1.99-.69Z"/>
            <path class="turq-2" d="M191.71,323.82c-1.53.1-3.05.08-4.58.12-.47.19.78.34,2.49.29,1.1-.1,2.8-.23,2.1-.41Z"/>
            <path class="turq-2" d="M205.67,324.81c-1.26-.02-1.35-.15-2.06-.28l-.09.74,2.15-.46Z"/>
            <path class="turq-2" d="M192.22,325.59c-.45.25-6.72.53-.85.55.47-.21,5.1-.44.85-.55Z"/>
            <polygon class="turq-2" points="124.18 313.25 125.29 313.6 125.5 312.42 124.18 313.25"/>
            <path class="turq-2" d="M67.28,290.26c4.56,3.15,1.5.07,5.61,2.93,1.26.41-3.36-2.32-2.09-1.85-1.52-.71-2.62-1.34-3.21-1.64-.6-.28-.73-.19-.3.57Z"/>
            <path class="turq-2" d="M70.8,291.33c.48.23,1,.47,1.55.7-.87-.42-1.29-.61-1.55-.7Z"/>
            <path class="turq-2" d="M347.42,173.51c-.12,1.14-.31,2.27-.46,3.4l.55-2.18c-.02-.41-.05-.81-.09-1.22Z"/>
            <path class="turq-2" d="M347.84,180.15l-.84.73.48,2.13c.04-.78.13-2.29.36-2.86Z"/>
            <path class="turq-2" d="M13.08,98.45l.06.32c.4-.43.75-1.19,1.45-2.71l-1.51,2.39Z"/>
            <polygon class="turq-2" points="37.61 56.86 37.09 57.51 38.58 56.69 37.61 56.86"/>
            <path class="turq-2" d="M64.8,26.71c-1.27,1.07-2.66,2.45-3.92,3.55,2.63-2.49,4.82-3.19,3.92-3.55Z"/>
          </g>
        </g>
      </g>
    </g>
  </g>
</svg>
